# MagicaVoxel @ Ephtracy

# group
g Blue-15

# material
mtllib Blue-15.mtl
usemtl palette

# normals
vn -1 0 0
vn 1 0 0
vn 0 0 1
vn 0 0 -1
vn 0 -1 0
vn 0 1 0

# texcoords
vt 0.00195313 0.5
vt 0.0332031 0.5
vt 0.0371094 0.5
vt 0.0410156 0.5

# verts
v -7 5 7
v -7 5 5
v -7 7 7
v -7 7 5
v -6 0 5
v -6 0 -5
v -6 1 6
v -6 1 5
v -6 1 3
v -6 1 1
v -6 1 -1
v -6 1 -3
v -6 1 -5
v -6 1 -6
v -6 3 6
v -6 3 5
v -6 3 3
v -6 3 1
v -6 3 -1
v -6 3 -3
v -6 3 -5
v -6 3 -6
v -6 4 5
v -6 4 -5
v -6 5 5
v -6 5 -1
v -6 7 7
v -6 7 5
v -6 7 -1
v -6 8 7
v -6 8 5
v -4 1 3
v -4 1 1
v -4 1 -1
v -4 1 -3
v -4 3 3
v -4 3 1
v -4 3 -1
v -4 3 -3
v -4 4 4
v -4 4 -4
v -4 5 4
v -4 5 -1
v -4 7 4
v -4 7 -1
v -4 11 4
v -4 11 -4
v -3 5 -4
v -3 5 -8
v -3 10 -7
v -3 10 -8
v -3 11 -1
v -3 11 -4
v -3 14 -1
v -3 14 -3
v -3 15 -3
v -3 15 -5
v -3 16 -5
v -3 16 -7
v -2 11 3
v -2 11 1
v -2 12 3
v -2 12 1
v -1 12 3
v -1 12 1
v -1 13 3
v -1 13 1
v 1 1 4
v 1 1 -4
v 1 3 4
v 1 3 -4
v 1 6 -5
v 1 6 -6
v 1 7 -5
v 1 7 -6
v 2 1 5
v 2 1 4
v 2 1 -4
v 2 1 -5
v 2 3 5
v 2 3 4
v 2 3 -4
v 2 3 -5
v 2 6 -6
v 2 6 -7
v 2 7 -5
v 2 7 -6
v 2 10 -7
v 2 11 -3
v 2 11 -4
v 2 11 -5
v 2 11 -6
v 2 11 -7
v 2 12 -2
v 2 12 -3
v 2 14 -2
v 2 14 -3
v 2 15 -3
v 2 15 -5
v 2 16 -5
v 2 16 -6
v 3 5 7
v 3 5 5
v 3 7 7
v 3 7 5
v 4 0 5
v 4 0 -5
v 4 1 6
v 4 1 5
v 4 1 3
v 4 1 1
v 4 1 -1
v 4 1 -3
v 4 1 -5
v 4 1 -6
v 4 3 6
v 4 3 5
v 4 3 4
v 4 3 -4
v 4 3 -5
v 4 3 -6
v 4 4 5
v 4 4 4
v 4 4 -4
v 4 4 -5
v 4 5 5
v 4 5 4
v 4 7 7
v 4 7 5
v 4 7 4
v 4 8 7
v 4 8 5
v -4 0 5
v -4 0 -5
v -4 1 6
v -4 1 5
v -4 1 3
v -4 1 1
v -4 1 -1
v -4 1 -3
v -4 1 -5
v -4 1 -6
v -4 3 6
v -4 3 5
v -4 3 4
v -4 3 -4
v -4 3 -5
v -4 3 -6
v -4 4 5
v -4 4 4
v -4 4 -4
v -4 4 -5
v -4 5 5
v -4 5 4
v -4 7 7
v -4 7 5
v -4 7 4
v -4 8 7
v -4 8 5
v -3 5 7
v -3 5 5
v -3 7 7
v -3 7 5
v -2 1 5
v -2 1 4
v -2 1 -4
v -2 1 -5
v -2 3 5
v -2 3 4
v -2 3 -4
v -2 3 -5
v -2 6 -6
v -2 6 -7
v -2 7 -5
v -2 7 -6
v -2 10 -7
v -2 11 -3
v -2 11 -4
v -2 11 -5
v -2 11 -6
v -2 11 -7
v -2 12 -2
v -2 12 -3
v -2 14 -2
v -2 14 -3
v -2 15 -3
v -2 15 -5
v -2 16 -5
v -2 16 -6
v -1 1 4
v -1 1 -4
v -1 3 4
v -1 3 -4
v -1 6 -5
v -1 6 -6
v -1 7 -5
v -1 7 -6
v 1 12 3
v 1 12 1
v 1 13 3
v 1 13 1
v 2 11 3
v 2 11 1
v 2 12 3
v 2 12 1
v 3 5 -4
v 3 5 -8
v 3 10 -7
v 3 10 -8
v 3 11 -1
v 3 11 -4
v 3 14 -1
v 3 14 -3
v 3 15 -3
v 3 15 -5
v 3 16 -5
v 3 16 -7
v 4 1 3
v 4 1 1
v 4 1 -1
v 4 1 -3
v 4 3 3
v 4 3 1
v 4 3 -1
v 4 3 -3
v 4 4 4
v 4 4 -4
v 4 5 4
v 4 5 -1
v 4 7 4
v 4 7 -1
v 4 11 4
v 4 11 -4
v 6 0 5
v 6 0 -5
v 6 1 6
v 6 1 5
v 6 1 3
v 6 1 1
v 6 1 -1
v 6 1 -3
v 6 1 -5
v 6 1 -6
v 6 3 6
v 6 3 5
v 6 3 3
v 6 3 1
v 6 3 -1
v 6 3 -3
v 6 3 -5
v 6 3 -6
v 6 4 5
v 6 4 -5
v 6 5 5
v 6 5 -1
v 6 7 7
v 6 7 5
v 6 7 -1
v 6 8 7
v 6 8 5
v 7 5 7
v 7 5 5
v 7 7 7
v 7 7 5
v -7 5 7
v -7 7 7
v -6 5 7
v -6 7 7
v -6 8 7
v -4 5 7
v -4 7 7
v -4 8 7
v -3 5 7
v -3 7 7
v 3 5 7
v 3 7 7
v 4 5 7
v 4 7 7
v 4 8 7
v 6 5 7
v 6 7 7
v 6 8 7
v 7 5 7
v 7 7 7
v -6 1 6
v -6 3 6
v -4 1 6
v -4 3 6
v 4 1 6
v 4 3 6
v 6 1 6
v 6 3 6
v -6 0 5
v -6 1 5
v -6 3 5
v -6 4 5
v -4 0 5
v -4 1 5
v -4 3 5
v -4 4 5
v -2 1 5
v -2 3 5
v 2 1 5
v 2 3 5
v 4 0 5
v 4 1 5
v 4 3 5
v 4 4 5
v 6 0 5
v 6 1 5
v 6 3 5
v 6 4 5
v -4 3 4
v -4 4 4
v -4 5 4
v -4 7 4
v -4 11 4
v -3 8 4
v -3 10 4
v -2 1 4
v -2 3 4
v -2 7 4
v -2 8 4
v -1 1 4
v -1 3 4
v 1 1 4
v 1 3 4
v 2 1 4
v 2 3 4
v 2 7 4
v 2 8 4
v 3 8 4
v 3 10 4
v 4 3 4
v 4 4 4
v 4 5 4
v 4 7 4
v 4 11 4
v -2 11 3
v -2 12 3
v -1 11 3
v -1 12 3
v -1 13 3
v 1 11 3
v 1 12 3
v 1 13 3
v 2 11 3
v 2 12 3
v -6 1 1
v -6 3 1
v -4 1 1
v -4 3 1
v 4 1 1
v 4 3 1
v 6 1 1
v 6 3 1
v -3 11 -1
v -3 14 -1
v 3 11 -1
v 3 14 -1
v -6 1 -3
v -6 3 -3
v -4 1 -3
v -4 3 -3
v -3 14 -3
v -3 15 -3
v -2 14 -3
v -2 15 -3
v 2 14 -3
v 2 15 -3
v 3 14 -3
v 3 15 -3
v 4 1 -3
v 4 3 -3
v 6 1 -3
v 6 3 -3
v -3 15 -5
v -3 16 -5
v -2 15 -5
v -2 16 -5
v 2 15 -5
v 2 16 -5
v 3 15 -5
v 3 16 -5
v -2 11 -6
v -2 16 -6
v 2 11 -6
v 2 16 -6
v -2 6 -7
v -2 10 -7
v 2 6 -7
v 2 10 -7
v -7 5 5
v -7 7 5
v -6 5 5
v -6 7 5
v -6 8 5
v -4 5 5
v -4 7 5
v -4 8 5
v -3 5 5
v -3 7 5
v 3 5 5
v 3 7 5
v 4 5 5
v 4 7 5
v 4 8 5
v 6 5 5
v 6 7 5
v 6 8 5
v 7 5 5
v 7 7 5
v -6 1 3
v -6 3 3
v -4 1 3
v -4 3 3
v 4 1 3
v 4 3 3
v 6 1 3
v 6 3 3
v -2 11 1
v -2 12 1
v -1 12 1
v -1 13 1
v 1 12 1
v 1 13 1
v 2 11 1
v 2 12 1
v -6 1 -1
v -6 3 -1
v -6 5 -1
v -6 7 -1
v -4 1 -1
v -4 3 -1
v -4 5 -1
v -4 7 -1
v 4 1 -1
v 4 3 -1
v 4 5 -1
v 4 7 -1
v 6 1 -1
v 6 3 -1
v 6 5 -1
v 6 7 -1
v -2 12 -2
v -2 14 -2
v 2 12 -2
v 2 14 -2
v -2 11 -3
v -2 12 -3
v 2 11 -3
v 2 12 -3
v -4 3 -4
v -4 4 -4
v -4 11 -4
v -3 4 -4
v -3 5 -4
v -3 11 -4
v -2 1 -4
v -2 3 -4
v -2 4 -4
v -2 5 -4
v -1 1 -4
v -1 3 -4
v -1 4 -4
v -1 5 -4
v 1 1 -4
v 1 3 -4
v 1 4 -4
v 1 5 -4
v 2 1 -4
v 2 3 -4
v 2 4 -4
v 2 5 -4
v 3 4 -4
v 3 5 -4
v 3 11 -4
v 4 3 -4
v 4 4 -4
v 4 11 -4
v -6 0 -5
v -6 1 -5
v -6 3 -5
v -6 4 -5
v -4 0 -5
v -4 1 -5
v -4 3 -5
v -4 4 -5
v -2 1 -5
v -2 3 -5
v -2 7 -5
v -2 11 -5
v -1 6 -5
v -1 7 -5
v 1 6 -5
v 1 7 -5
v 2 1 -5
v 2 3 -5
v 2 7 -5
v 2 11 -5
v 4 0 -5
v 4 1 -5
v 4 3 -5
v 4 4 -5
v 6 0 -5
v 6 1 -5
v 6 3 -5
v 6 4 -5
v -6 1 -6
v -6 3 -6
v -4 1 -6
v -4 3 -6
v -2 6 -6
v -2 7 -6
v -1 6 -6
v -1 7 -6
v 1 6 -6
v 1 7 -6
v 2 6 -6
v 2 7 -6
v 4 1 -6
v 4 3 -6
v 6 1 -6
v 6 3 -6
v -3 10 -7
v -3 16 -7
v -2 10 -7
v -2 11 -7
v 2 10 -7
v 2 11 -7
v 3 10 -7
v 3 16 -7
v -3 5 -8
v -3 10 -8
v 3 5 -8
v 3 10 -8
v -6 0 5
v -4 0 5
v 4 0 5
v 6 0 5
v -6 0 -5
v -4 0 -5
v 4 0 -5
v 6 0 -5
v -6 1 6
v -4 1 6
v 4 1 6
v 6 1 6
v -6 1 5
v -4 1 5
v -2 1 5
v 2 1 5
v 4 1 5
v 6 1 5
v -2 1 4
v -1 1 4
v 1 1 4
v 2 1 4
v -4 1 3
v -3 1 3
v 3 1 3
v 4 1 3
v -4 1 1
v -3 1 1
v 3 1 1
v 4 1 1
v -4 1 -1
v -3 1 -1
v 3 1 -1
v 4 1 -1
v -4 1 -3
v -3 1 -3
v 3 1 -3
v 4 1 -3
v -2 1 -4
v -1 1 -4
v 1 1 -4
v 2 1 -4
v -6 1 -5
v -4 1 -5
v -2 1 -5
v 2 1 -5
v 4 1 -5
v 6 1 -5
v -6 1 -6
v -4 1 -6
v 4 1 -6
v 6 1 -6
v -1 3 4
v 1 3 4
v -6 3 3
v -4 3 3
v 4 3 3
v 6 3 3
v -6 3 1
v -4 3 1
v 4 3 1
v 6 3 1
v -6 3 -1
v -4 3 -1
v 4 3 -1
v 6 3 -1
v -6 3 -3
v -4 3 -3
v 4 3 -3
v 6 3 -3
v -1 3 -4
v 1 3 -4
v -7 5 7
v -6 5 7
v -4 5 7
v -3 5 7
v 3 5 7
v 4 5 7
v 6 5 7
v 7 5 7
v -7 5 5
v -6 5 5
v -4 5 5
v -3 5 5
v 3 5 5
v 4 5 5
v 6 5 5
v 7 5 5
v -4 5 4
v 4 5 4
v -6 5 -1
v -4 5 -1
v 4 5 -1
v 6 5 -1
v -3 5 -4
v -2 5 -4
v -1 5 -4
v 1 5 -4
v 2 5 -4
v 3 5 -4
v -3 5 -8
v 3 5 -8
v -2 11 -6
v 2 11 -6
v -2 11 -7
v 2 11 -7
v -6 1 3
v -4 1 3
v 4 1 3
v 6 1 3
v -6 1 1
v -4 1 1
v 4 1 1
v 6 1 1
v -6 1 -1
v -4 1 -1
v 4 1 -1
v 6 1 -1
v -6 1 -3
v -4 1 -3
v 4 1 -3
v 6 1 -3
v -6 3 6
v -4 3 6
v 4 3 6
v 6 3 6
v -6 3 5
v -4 3 5
v -2 3 5
v 2 3 5
v 4 3 5
v 6 3 5
v -4 3 4
v -2 3 4
v 2 3 4
v 4 3 4
v -4 3 -4
v -2 3 -4
v 2 3 -4
v 4 3 -4
v -6 3 -5
v -4 3 -5
v -2 3 -5
v 2 3 -5
v 4 3 -5
v 6 3 -5
v -6 3 -6
v -4 3 -6
v 4 3 -6
v 6 3 -6
v -6 4 5
v -4 4 5
v 4 4 5
v 6 4 5
v -4 4 4
v 4 4 4
v -4 4 -4
v 4 4 -4
v -6 4 -5
v -4 4 -5
v 4 4 -5
v 6 4 -5
v -1 6 -5
v 1 6 -5
v -2 6 -6
v -1 6 -6
v 1 6 -6
v 2 6 -6
v -2 6 -7
v 2 6 -7
v -7 7 7
v -6 7 7
v -4 7 7
v -3 7 7
v 3 7 7
v 4 7 7
v 6 7 7
v 7 7 7
v -7 7 5
v -6 7 5
v -4 7 5
v -3 7 5
v 3 7 5
v 4 7 5
v 6 7 5
v 7 7 5
v -4 7 4
v 4 7 4
v -6 7 -1
v -4 7 -1
v 4 7 -1
v 6 7 -1
v -2 7 -5
v -1 7 -5
v 1 7 -5
v 2 7 -5
v -2 7 -6
v -1 7 -6
v 1 7 -6
v 2 7 -6
v -6 8 7
v -4 8 7
v 4 8 7
v 6 8 7
v -6 8 5
v -4 8 5
v 4 8 5
v 6 8 5
v -3 10 -7
v -2 10 -7
v 2 10 -7
v 3 10 -7
v -3 10 -8
v 3 10 -8
v -4 11 4
v 4 11 4
v -2 11 3
v -1 11 3
v 1 11 3
v 2 11 3
v -2 11 1
v 2 11 1
v -3 11 -1
v 3 11 -1
v -2 11 -3
v 2 11 -3
v -4 11 -4
v -3 11 -4
v -2 11 -4
v 2 11 -4
v 3 11 -4
v 4 11 -4
v -2 11 -5
v 2 11 -5
v -2 12 3
v -1 12 3
v 1 12 3
v 2 12 3
v -2 12 1
v -1 12 1
v 1 12 1
v 2 12 1
v -2 12 -2
v 2 12 -2
v -2 12 -3
v 2 12 -3
v -1 13 3
v 1 13 3
v -1 13 1
v 1 13 1
v -3 14 -1
v 3 14 -1
v -2 14 -2
v 2 14 -2
v -3 14 -3
v -2 14 -3
v 2 14 -3
v 3 14 -3
v -3 15 -3
v -2 15 -3
v 2 15 -3
v 3 15 -3
v -3 15 -5
v -2 15 -5
v 2 15 -5
v 3 15 -5
v -3 16 -5
v -2 16 -5
v 2 16 -5
v 3 16 -5
v -2 16 -6
v 2 16 -6
v -3 16 -7
v 3 16 -7

# faces
f 3/4/1 2/4/1 1/4/1
f 4/4/1 2/4/1 3/4/1
f 8/3/1 6/3/1 5/3/1
f 9/3/1 6/3/1 8/3/1
f 10/3/1 6/3/1 9/3/1
f 11/3/1 6/3/1 10/3/1
f 12/3/1 6/3/1 11/3/1
f 13/3/1 6/3/1 12/3/1
f 15/3/1 8/3/1 7/3/1
f 16/4/1 9/4/1 8/4/1
f 16/3/1 8/3/1 15/3/1
f 17/4/1 9/4/1 16/4/1
f 18/4/1 11/4/1 10/4/1
f 19/4/1 11/4/1 18/4/1
f 20/4/1 13/4/1 12/4/1
f 21/3/1 14/3/1 13/3/1
f 21/4/1 13/4/1 20/4/1
f 22/3/1 14/3/1 21/3/1
f 23/3/1 20/3/1 19/3/1
f 23/3/1 19/3/1 18/3/1
f 23/3/1 21/3/1 20/3/1
f 23/3/1 17/3/1 16/3/1
f 23/3/1 18/3/1 17/3/1
f 24/3/1 21/3/1 23/3/1
f 28/4/1 26/4/1 25/4/1
f 29/4/1 26/4/1 28/4/1
f 30/3/1 28/3/1 27/3/1
f 31/3/1 28/3/1 30/3/1
f 36/2/1 33/2/1 32/2/1
f 37/2/1 33/2/1 36/2/1
f 38/2/1 35/2/1 34/2/1
f 39/2/1 35/2/1 38/2/1
f 42/1/1 41/1/1 40/1/1
f 43/1/1 41/1/1 42/1/1
f 45/1/1 41/1/1 43/1/1
f 46/1/1 45/1/1 44/1/1
f 47/1/1 41/1/1 45/1/1
f 47/1/1 45/1/1 46/1/1
f 50/3/1 49/3/1 48/3/1
f 51/3/1 49/3/1 50/3/1
f 53/3/1 50/3/1 48/3/1
f 54/3/1 53/3/1 52/3/1
f 55/3/1 53/3/1 54/3/1
f 56/3/1 53/3/1 55/3/1
f 57/3/1 50/3/1 53/3/1
f 57/3/1 53/3/1 56/3/1
f 58/3/1 50/3/1 57/3/1
f 59/3/1 50/3/1 58/3/1
f 62/1/1 61/1/1 60/1/1
f 63/1/1 61/1/1 62/1/1
f 66/1/1 65/1/1 64/1/1
f 67/1/1 65/1/1 66/1/1
f 70/4/1 69/4/1 68/4/1
f 71/4/1 69/4/1 70/4/1
f 74/3/1 73/3/1 72/3/1
f 75/3/1 73/3/1 74/3/1
f 80/4/1 77/4/1 76/4/1
f 81/4/1 77/4/1 80/4/1
f 82/4/1 79/4/1 78/4/1
f 83/4/1 79/4/1 82/4/1
f 87/3/1 85/3/1 84/3/1
f 88/3/1 85/3/1 87/3/1
f 88/3/1 87/3/1 86/3/1
f 91/3/1 88/3/1 86/3/1
f 92/3/1 88/3/1 91/3/1
f 93/3/1 88/3/1 92/3/1
f 95/3/1 90/3/1 89/3/1
f 95/3/1 91/3/1 90/3/1
f 95/3/1 92/3/1 91/3/1
f 96/3/1 95/3/1 94/3/1
f 97/3/1 92/3/1 95/3/1
f 97/3/1 95/3/1 96/3/1
f 98/3/1 92/3/1 97/3/1
f 99/3/1 92/3/1 98/3/1
f 100/3/1 92/3/1 99/3/1
f 101/3/1 92/3/1 100/3/1
f 104/4/1 103/4/1 102/4/1
f 105/4/1 103/4/1 104/4/1
f 109/3/1 107/3/1 106/3/1
f 110/3/1 107/3/1 109/3/1
f 111/3/1 107/3/1 110/3/1
f 112/3/1 107/3/1 111/3/1
f 113/3/1 107/3/1 112/3/1
f 114/3/1 107/3/1 113/3/1
f 116/3/1 109/3/1 108/3/1
f 117/3/1 109/3/1 116/3/1
f 120/3/1 115/3/1 114/3/1
f 121/3/1 115/3/1 120/3/1
f 122/3/1 118/3/1 117/3/1
f 123/3/1 118/3/1 122/3/1
f 124/3/1 120/3/1 119/3/1
f 125/3/1 120/3/1 124/3/1
f 129/4/1 127/4/1 126/4/1
f 130/4/1 127/4/1 129/4/1
f 131/3/1 129/3/1 128/3/1
f 132/3/1 129/3/1 131/3/1
f 133/3/2 134/3/2 136/3/2
f 136/3/2 134/3/2 137/3/2
f 137/3/2 134/3/2 138/3/2
f 138/3/2 134/3/2 139/3/2
f 139/3/2 134/3/2 140/3/2
f 140/3/2 134/3/2 141/3/2
f 135/3/2 136/3/2 143/3/2
f 143/3/2 136/3/2 144/3/2
f 141/3/2 142/3/2 147/3/2
f 147/3/2 142/3/2 148/3/2
f 144/3/2 145/3/2 149/3/2
f 149/3/2 145/3/2 150/3/2
f 146/3/2 147/3/2 151/3/2
f 151/3/2 147/3/2 152/3/2
f 153/4/2 154/4/2 156/4/2
f 156/4/2 154/4/2 157/4/2
f 155/3/2 156/3/2 158/3/2
f 158/3/2 156/3/2 159/3/2
f 160/4/2 161/4/2 162/4/2
f 162/4/2 161/4/2 163/4/2
f 164/4/2 165/4/2 168/4/2
f 168/4/2 165/4/2 169/4/2
f 166/4/2 167/4/2 170/4/2
f 170/4/2 167/4/2 171/4/2
f 172/3/2 173/3/2 175/3/2
f 175/3/2 173/3/2 176/3/2
f 174/3/2 175/3/2 176/3/2
f 174/3/2 176/3/2 179/3/2
f 179/3/2 176/3/2 180/3/2
f 180/3/2 176/3/2 181/3/2
f 177/3/2 178/3/2 183/3/2
f 178/3/2 179/3/2 183/3/2
f 179/3/2 180/3/2 183/3/2
f 182/3/2 183/3/2 184/3/2
f 183/3/2 180/3/2 185/3/2
f 184/3/2 183/3/2 185/3/2
f 185/3/2 180/3/2 186/3/2
f 186/3/2 180/3/2 187/3/2
f 187/3/2 180/3/2 188/3/2
f 188/3/2 180/3/2 189/3/2
f 190/4/2 191/4/2 192/4/2
f 192/4/2 191/4/2 193/4/2
f 194/3/2 195/3/2 196/3/2
f 196/3/2 195/3/2 197/3/2
f 198/1/2 199/1/2 200/1/2
f 200/1/2 199/1/2 201/1/2
f 202/1/2 203/1/2 204/1/2
f 204/1/2 203/1/2 205/1/2
f 206/3/2 207/3/2 208/3/2
f 208/3/2 207/3/2 209/3/2
f 206/3/2 208/3/2 211/3/2
f 210/3/2 211/3/2 212/3/2
f 212/3/2 211/3/2 213/3/2
f 213/3/2 211/3/2 214/3/2
f 211/3/2 208/3/2 215/3/2
f 214/3/2 211/3/2 215/3/2
f 215/3/2 208/3/2 216/3/2
f 216/3/2 208/3/2 217/3/2
f 218/2/2 219/2/2 222/2/2
f 222/2/2 219/2/2 223/2/2
f 220/2/2 221/2/2 224/2/2
f 224/2/2 221/2/2 225/2/2
f 226/1/2 227/1/2 228/1/2
f 228/1/2 227/1/2 229/1/2
f 229/1/2 227/1/2 231/1/2
f 230/1/2 231/1/2 232/1/2
f 231/1/2 227/1/2 233/1/2
f 232/1/2 231/1/2 233/1/2
f 234/3/2 235/3/2 237/3/2
f 237/3/2 235/3/2 238/3/2
f 238/3/2 235/3/2 239/3/2
f 239/3/2 235/3/2 240/3/2
f 240/3/2 235/3/2 241/3/2
f 241/3/2 235/3/2 242/3/2
f 236/3/2 237/3/2 244/3/2
f 237/4/2 238/4/2 245/4/2
f 244/3/2 237/3/2 245/3/2
f 245/4/2 238/4/2 246/4/2
f 239/4/2 240/4/2 247/4/2
f 247/4/2 240/4/2 248/4/2
f 241/4/2 242/4/2 249/4/2
f 242/3/2 243/3/2 250/3/2
f 249/4/2 242/4/2 250/4/2
f 250/3/2 243/3/2 251/3/2
f 248/3/2 249/3/2 252/3/2
f 247/3/2 248/3/2 252/3/2
f 249/3/2 250/3/2 252/3/2
f 245/3/2 246/3/2 252/3/2
f 246/3/2 247/3/2 252/3/2
f 252/3/2 250/3/2 253/3/2
f 254/4/2 255/4/2 257/4/2
f 257/4/2 255/4/2 258/4/2
f 256/3/2 257/3/2 259/3/2
f 259/3/2 257/3/2 260/3/2
f 261/4/2 262/4/2 263/4/2
f 263/4/2 262/4/2 264/4/2
f 267/4/3 266/4/3 265/4/3
f 268/4/3 266/4/3 267/4/3
f 270/3/3 268/3/3 267/3/3
f 270/3/3 269/3/3 268/3/3
f 271/3/3 269/3/3 270/3/3
f 272/3/3 269/3/3 271/3/3
f 273/4/3 271/4/3 270/4/3
f 274/4/3 271/4/3 273/4/3
f 277/4/3 276/4/3 275/4/3
f 278/4/3 276/4/3 277/4/3
f 280/3/3 278/3/3 277/3/3
f 280/3/3 279/3/3 278/3/3
f 281/3/3 279/3/3 280/3/3
f 282/3/3 279/3/3 281/3/3
f 283/4/3 281/4/3 280/4/3
f 284/4/3 281/4/3 283/4/3
f 287/3/3 286/3/3 285/3/3
f 288/3/3 286/3/3 287/3/3
f 291/3/3 290/3/3 289/3/3
f 292/3/3 290/3/3 291/3/3
f 297/3/3 294/3/3 293/3/3
f 298/3/3 294/3/3 297/3/3
f 299/3/3 296/3/3 295/3/3
f 300/3/3 296/3/3 299/3/3
f 301/4/3 299/4/3 298/4/3
f 302/4/3 299/4/3 301/4/3
f 306/4/3 304/4/3 303/4/3
f 307/4/3 304/4/3 306/4/3
f 309/3/3 306/3/3 305/3/3
f 310/3/3 306/3/3 309/3/3
f 311/3/3 308/3/3 307/3/3
f 312/3/3 308/3/3 311/3/3
f 318/1/3 314/1/3 313/1/3
f 318/1/3 317/1/3 316/1/3
f 318/1/3 316/1/3 315/1/3
f 318/1/3 315/1/3 314/1/3
f 319/1/3 317/1/3 318/1/3
f 321/1/3 318/1/3 313/1/3
f 322/1/3 318/1/3 321/1/3
f 323/2/3 319/2/3 318/2/3
f 323/1/3 318/1/3 322/1/3
f 324/4/3 321/4/3 320/4/3
f 325/1/3 322/1/3 321/1/3
f 325/4/3 321/4/3 324/4/3
f 327/1/3 322/1/3 325/1/3
f 328/4/3 327/4/3 326/4/3
f 329/1/3 322/1/3 327/1/3
f 329/4/3 327/4/3 328/4/3
f 330/2/3 323/2/3 322/2/3
f 330/1/3 322/1/3 329/1/3
f 331/2/3 319/2/3 323/2/3
f 331/2/3 323/2/3 330/2/3
f 332/1/3 330/1/3 329/1/3
f 332/2/3 319/2/3 331/2/3
f 332/1/3 331/1/3 330/1/3
f 333/1/3 317/1/3 319/1/3
f 333/2/3 319/2/3 332/2/3
f 334/1/3 332/1/3 329/1/3
f 334/1/3 333/1/3 332/1/3
f 335/1/3 333/1/3 334/1/3
f 336/1/3 333/1/3 335/1/3
f 337/1/3 333/1/3 336/1/3
f 338/1/3 317/1/3 333/1/3
f 338/1/3 333/1/3 337/1/3
f 341/1/3 340/1/3 339/1/3
f 342/1/3 340/1/3 341/1/3
f 344/2/3 342/2/3 341/2/3
f 345/1/3 343/1/3 342/1/3
f 345/2/3 342/2/3 344/2/3
f 346/1/3 343/1/3 345/1/3
f 347/1/3 345/1/3 344/1/3
f 348/1/3 345/1/3 347/1/3
f 351/4/3 350/4/3 349/4/3
f 352/4/3 350/4/3 351/4/3
f 355/4/3 354/4/3 353/4/3
f 356/4/3 354/4/3 355/4/3
f 359/3/3 358/3/3 357/3/3
f 360/3/3 358/3/3 359/3/3
f 363/4/3 362/4/3 361/4/3
f 364/4/3 362/4/3 363/4/3
f 367/3/3 366/3/3 365/3/3
f 368/3/3 366/3/3 367/3/3
f 371/3/3 370/3/3 369/3/3
f 372/3/3 370/3/3 371/3/3
f 375/4/3 374/4/3 373/4/3
f 376/4/3 374/4/3 375/4/3
f 379/3/3 378/3/3 377/3/3
f 380/3/3 378/3/3 379/3/3
f 383/3/3 382/3/3 381/3/3
f 384/3/3 382/3/3 383/3/3
f 387/3/3 386/3/3 385/3/3
f 388/3/3 386/3/3 387/3/3
f 391/3/3 390/3/3 389/3/3
f 392/3/3 390/3/3 391/3/3
f 393/4/4 394/4/4 395/4/4
f 395/4/4 394/4/4 396/4/4
f 396/3/4 397/3/4 399/3/4
f 399/3/4 397/3/4 400/3/4
f 398/4/4 399/4/4 401/4/4
f 401/4/4 399/4/4 402/4/4
f 403/4/4 404/4/4 405/4/4
f 405/4/4 404/4/4 406/4/4
f 406/3/4 407/3/4 409/3/4
f 409/3/4 407/3/4 410/3/4
f 408/4/4 409/4/4 411/4/4
f 411/4/4 409/4/4 412/4/4
f 413/4/4 414/4/4 415/4/4
f 415/4/4 414/4/4 416/4/4
f 417/4/4 418/4/4 419/4/4
f 419/4/4 418/4/4 420/4/4
f 421/1/4 422/1/4 423/1/4
f 421/1/4 423/1/4 425/1/4
f 423/1/4 424/1/4 425/1/4
f 425/1/4 424/1/4 426/1/4
f 421/1/4 425/1/4 427/1/4
f 427/1/4 425/1/4 428/1/4
f 429/4/4 430/4/4 433/4/4
f 433/4/4 430/4/4 434/4/4
f 431/4/4 432/4/4 435/4/4
f 435/4/4 432/4/4 436/4/4
f 437/4/4 438/4/4 441/4/4
f 441/4/4 438/4/4 442/4/4
f 439/4/4 440/4/4 443/4/4
f 443/4/4 440/4/4 444/4/4
f 445/3/4 446/3/4 447/3/4
f 447/3/4 446/3/4 448/3/4
f 449/3/4 450/3/4 451/3/4
f 451/3/4 450/3/4 452/3/4
f 453/1/4 454/1/4 456/1/4
f 454/1/4 455/1/4 456/1/4
f 456/1/4 455/1/4 457/1/4
f 457/1/4 455/1/4 458/1/4
f 453/1/4 456/1/4 460/1/4
f 456/3/4 457/3/4 461/3/4
f 460/1/4 456/1/4 461/1/4
f 461/3/4 457/3/4 462/3/4
f 459/4/4 460/4/4 463/4/4
f 460/1/4 461/1/4 464/1/4
f 463/4/4 460/4/4 464/4/4
f 461/1/4 462/1/4 464/1/4
f 464/1/4 462/1/4 465/1/4
f 465/1/4 462/1/4 466/1/4
f 464/1/4 465/1/4 468/1/4
f 465/3/4 466/3/4 469/3/4
f 468/1/4 465/1/4 469/1/4
f 469/3/4 466/3/4 470/3/4
f 467/4/4 468/4/4 471/4/4
f 468/1/4 469/1/4 472/1/4
f 471/4/4 468/4/4 472/4/4
f 469/1/4 470/1/4 472/1/4
f 472/1/4 470/1/4 473/1/4
f 473/1/4 470/1/4 474/1/4
f 472/1/4 473/1/4 475/1/4
f 473/3/4 474/3/4 475/3/4
f 475/3/4 474/3/4 476/3/4
f 475/1/4 476/1/4 478/1/4
f 476/1/4 477/1/4 478/1/4
f 472/1/4 475/1/4 478/1/4
f 478/1/4 477/1/4 479/1/4
f 479/1/4 477/1/4 480/1/4
f 481/3/4 482/3/4 485/3/4
f 485/3/4 482/3/4 486/3/4
f 483/3/4 484/3/4 487/3/4
f 487/3/4 484/3/4 488/3/4
f 486/4/4 487/4/4 489/4/4
f 489/4/4 487/4/4 490/4/4
f 491/3/4 492/3/4 494/3/4
f 493/3/4 494/3/4 495/3/4
f 494/3/4 492/3/4 496/3/4
f 495/3/4 494/3/4 496/3/4
f 496/3/4 492/3/4 499/3/4
f 499/3/4 492/3/4 500/3/4
f 497/4/4 498/4/4 502/4/4
f 502/4/4 498/4/4 503/4/4
f 501/3/4 502/3/4 505/3/4
f 505/3/4 502/3/4 506/3/4
f 503/3/4 504/3/4 507/3/4
f 507/3/4 504/3/4 508/3/4
f 509/3/4 510/3/4 511/3/4
f 511/3/4 510/3/4 512/3/4
f 513/3/4 514/3/4 515/3/4
f 515/3/4 514/3/4 516/3/4
f 517/3/4 518/3/4 519/3/4
f 519/3/4 518/3/4 520/3/4
f 521/3/4 522/3/4 523/3/4
f 523/3/4 522/3/4 524/3/4
f 525/3/4 526/3/4 527/3/4
f 527/3/4 526/3/4 528/3/4
f 528/3/4 526/3/4 530/3/4
f 529/3/4 530/3/4 531/3/4
f 530/3/4 526/3/4 532/3/4
f 531/3/4 530/3/4 532/3/4
f 533/3/4 534/3/4 535/3/4
f 535/3/4 534/3/4 536/3/4
f 541/3/5 538/3/5 537/3/5
f 542/3/5 538/3/5 541/3/5
f 543/3/5 540/3/5 539/3/5
f 544/3/5 540/3/5 543/3/5
f 549/3/5 546/3/5 545/3/5
f 550/3/5 546/3/5 549/3/5
f 553/3/5 548/3/5 547/3/5
f 554/3/5 548/3/5 553/3/5
f 555/4/5 551/4/5 550/4/5
f 558/4/5 553/4/5 552/4/5
f 559/4/5 556/4/5 555/4/5
f 559/4/5 555/4/5 550/4/5
f 560/4/5 556/4/5 559/4/5
f 561/4/5 558/4/5 557/4/5
f 561/4/5 553/4/5 558/4/5
f 562/4/5 553/4/5 561/4/5
f 563/2/5 560/2/5 559/2/5
f 564/4/5 556/4/5 560/4/5
f 564/2/5 560/2/5 563/2/5
f 565/4/5 561/4/5 557/4/5
f 565/2/5 562/2/5 561/2/5
f 566/2/5 562/2/5 565/2/5
f 567/4/5 564/4/5 563/4/5
f 568/4/5 556/4/5 564/4/5
f 568/4/5 564/4/5 567/4/5
f 569/4/5 565/4/5 557/4/5
f 569/4/5 566/4/5 565/4/5
f 570/4/5 566/4/5 569/4/5
f 571/2/5 568/2/5 567/2/5
f 572/4/5 556/4/5 568/4/5
f 572/2/5 568/2/5 571/2/5
f 573/4/5 569/4/5 557/4/5
f 573/2/5 570/2/5 569/2/5
f 574/2/5 570/2/5 573/2/5
f 575/4/5 556/4/5 572/4/5
f 575/4/5 572/4/5 571/4/5
f 576/4/5 556/4/5 575/4/5
f 577/4/5 574/4/5 573/4/5
f 577/4/5 573/4/5 557/4/5
f 578/4/5 574/4/5 577/4/5
f 580/4/5 575/4/5 571/4/5
f 581/4/5 575/4/5 580/4/5
f 582/4/5 574/4/5 578/4/5
f 583/4/5 574/4/5 582/4/5
f 585/3/5 580/3/5 579/3/5
f 586/3/5 580/3/5 585/3/5
f 587/3/5 584/3/5 583/3/5
f 588/3/5 584/3/5 587/3/5
f 595/3/5 592/3/5 591/3/5
f 596/3/5 592/3/5 595/3/5
f 597/3/5 594/3/5 593/3/5
f 598/3/5 594/3/5 597/3/5
f 603/3/5 600/3/5 599/3/5
f 604/3/5 600/3/5 603/3/5
f 605/3/5 602/3/5 601/3/5
f 606/3/5 602/3/5 605/3/5
f 607/1/5 590/1/5 589/1/5
f 608/1/5 590/1/5 607/1/5
f 617/4/5 610/4/5 609/4/5
f 618/3/5 611/3/5 610/3/5
f 618/4/5 610/4/5 617/4/5
f 619/4/5 612/4/5 611/4/5
f 619/3/5 611/3/5 618/3/5
f 620/4/5 612/4/5 619/4/5
f 621/4/5 614/4/5 613/4/5
f 622/3/5 615/3/5 614/3/5
f 622/4/5 614/4/5 621/4/5
f 623/4/5 616/4/5 615/4/5
f 623/3/5 615/3/5 622/3/5
f 624/4/5 616/4/5 623/4/5
f 625/4/5 619/4/5 618/4/5
f 626/4/5 623/4/5 622/4/5
f 627/4/5 625/4/5 618/4/5
f 628/4/5 625/4/5 627/4/5
f 629/4/5 623/4/5 626/4/5
f 630/4/5 623/4/5 629/4/5
f 637/3/5 632/3/5 631/3/5
f 637/3/5 636/3/5 635/3/5
f 637/3/5 635/3/5 634/3/5
f 637/3/5 634/3/5 633/3/5
f 637/3/5 633/3/5 632/3/5
f 638/3/5 636/3/5 637/3/5
f 641/3/5 640/3/5 639/3/5
f 642/3/5 640/3/5 641/3/5
f 643/3/6 644/3/6 647/3/6
f 647/3/6 644/3/6 648/3/6
f 645/3/6 646/3/6 649/3/6
f 649/3/6 646/3/6 650/3/6
f 651/3/6 652/3/6 655/3/6
f 655/3/6 652/3/6 656/3/6
f 653/3/6 654/3/6 657/3/6
f 657/3/6 654/3/6 658/3/6
f 659/3/6 660/3/6 663/3/6
f 663/3/6 660/3/6 664/3/6
f 661/3/6 662/3/6 667/3/6
f 667/3/6 662/3/6 668/3/6
f 664/4/6 665/4/6 669/4/6
f 669/4/6 665/4/6 670/4/6
f 666/4/6 667/4/6 671/4/6
f 671/4/6 667/4/6 672/4/6
f 673/4/6 674/4/6 678/4/6
f 678/4/6 674/4/6 679/4/6
f 675/4/6 676/4/6 680/4/6
f 680/4/6 676/4/6 681/4/6
f 677/3/6 678/3/6 683/3/6
f 683/3/6 678/3/6 684/3/6
f 681/3/6 682/3/6 685/3/6
f 685/3/6 682/3/6 686/3/6
f 687/3/6 688/3/6 691/3/6
f 689/3/6 690/3/6 692/3/6
f 687/3/6 691/3/6 693/3/6
f 692/3/6 690/3/6 694/3/6
f 687/3/6 693/3/6 695/3/6
f 695/3/6 693/3/6 696/3/6
f 694/3/6 690/3/6 697/3/6
f 697/3/6 690/3/6 698/3/6
f 699/3/6 700/3/6 702/3/6
f 702/3/6 700/3/6 703/3/6
f 701/3/6 702/3/6 705/3/6
f 703/3/6 704/3/6 705/3/6
f 702/3/6 703/3/6 705/3/6
f 705/3/6 704/3/6 706/3/6
f 707/4/6 708/4/6 715/4/6
f 715/4/6 708/4/6 716/4/6
f 709/4/6 710/4/6 717/4/6
f 717/4/6 710/4/6 718/4/6
f 711/4/6 712/4/6 719/4/6
f 719/4/6 712/4/6 720/4/6
f 713/4/6 714/4/6 721/4/6
f 721/4/6 714/4/6 722/4/6
f 716/4/6 717/4/6 723/4/6
f 720/4/6 721/4/6 724/4/6
f 716/4/6 723/4/6 725/4/6
f 725/4/6 723/4/6 726/4/6
f 724/4/6 721/4/6 727/4/6
f 727/4/6 721/4/6 728/4/6
f 729/3/6 730/3/6 733/3/6
f 733/3/6 730/3/6 734/3/6
f 731/3/6 732/3/6 735/3/6
f 735/3/6 732/3/6 736/3/6
f 737/3/6 738/3/6 741/3/6
f 741/3/6 738/3/6 742/3/6
f 739/3/6 740/3/6 743/3/6
f 743/3/6 740/3/6 744/3/6
f 745/3/6 746/3/6 749/3/6
f 747/3/6 748/3/6 749/3/6
f 746/3/6 747/3/6 749/3/6
f 749/3/6 748/3/6 750/3/6
f 751/1/6 752/1/6 753/1/6
f 753/1/6 752/1/6 754/1/6
f 754/1/6 752/1/6 755/1/6
f 755/1/6 752/1/6 756/1/6
f 751/1/6 753/1/6 757/1/6
f 756/1/6 752/1/6 758/1/6
f 751/1/6 757/1/6 759/1/6
f 757/1/6 758/1/6 759/1/6
f 758/1/6 752/1/6 760/1/6
f 759/1/6 758/1/6 760/1/6
f 751/1/6 759/1/6 763/1/6
f 763/1/6 759/1/6 764/1/6
f 761/1/6 762/1/6 765/1/6
f 765/1/6 762/1/6 766/1/6
f 760/1/6 752/1/6 767/1/6
f 767/1/6 752/1/6 768/1/6
f 765/3/6 766/3/6 769/3/6
f 769/3/6 766/3/6 770/3/6
f 771/1/6 772/1/6 775/1/6
f 775/1/6 772/1/6 776/1/6
f 773/1/6 774/1/6 777/1/6
f 777/1/6 774/1/6 778/1/6
f 779/3/6 780/3/6 781/3/6
f 781/3/6 780/3/6 782/3/6
f 783/1/6 784/1/6 785/1/6
f 785/1/6 784/1/6 786/1/6
f 787/3/6 788/3/6 789/3/6
f 789/3/6 788/3/6 790/3/6
f 787/3/6 789/3/6 791/3/6
f 791/3/6 789/3/6 792/3/6
f 790/3/6 788/3/6 793/3/6
f 793/3/6 788/3/6 794/3/6
f 795/3/6 796/3/6 799/3/6
f 799/3/6 796/3/6 800/3/6
f 797/3/6 798/3/6 801/3/6
f 801/3/6 798/3/6 802/3/6
f 803/3/6 804/3/6 807/3/6
f 805/3/6 806/3/6 808/3/6
f 803/3/6 807/3/6 809/3/6
f 807/3/6 808/3/6 809/3/6
f 808/3/6 806/3/6 810/3/6
f 809/3/6 808/3/6 810/3/6
