# MagicaVoxel @ Ephtracy

# group
g Blue-9

# material
mtllib Blue-9.mtl
usemtl palette

# normals
vn -1 0 0
vn 1 0 0
vn 0 0 1
vn 0 0 -1
vn 0 -1 0
vn 0 1 0

# texcoords
vt 0.00195313 0.5
vt 0.0332031 0.5
vt 0.0371094 0.5
vt 0.0410156 0.5

# verts
v -6 0 5
v -6 0 -5
v -6 1 6
v -6 1 5
v -6 1 3
v -6 1 1
v -6 1 -1
v -6 1 -3
v -6 1 -5
v -6 1 -6
v -6 3 6
v -6 3 5
v -6 3 3
v -6 3 1
v -6 3 -1
v -6 3 -3
v -6 3 -5
v -6 3 -6
v -6 4 5
v -6 4 -5
v -6 5 5
v -6 5 1
v -6 5 -2
v -6 6 8
v -6 6 5
v -6 6 1
v -6 6 -2
v -6 6 -3
v -6 8 8
v -6 8 -3
v -4 1 3
v -4 1 1
v -4 1 -1
v -4 1 -3
v -4 3 3
v -4 3 1
v -4 3 -1
v -4 3 -3
v -4 4 4
v -4 4 -4
v -4 5 4
v -4 5 -1
v -4 5 -2
v -4 6 -2
v -4 6 -3
v -4 8 4
v -4 8 -3
v -4 9 4
v -4 9 -4
v -4 11 4
v -4 11 -4
v -4 13 -2
v -4 13 -3
v -4 14 -2
v -4 14 -3
v -3 4 5
v -3 4 4
v -3 8 5
v -3 8 4
v -3 11 -2
v -3 11 -3
v -3 13 -2
v -3 13 -3
v -3 14 -2
v -3 14 -3
v -3 15 -2
v -3 15 -3
v -2 3 5
v -2 3 4
v -2 4 5
v -2 4 4
v 1 1 4
v 1 1 -4
v 1 3 4
v 1 3 -4
v 1 13 -2
v 1 13 -3
v 1 14 -2
v 1 14 -3
v 2 1 5
v 2 1 4
v 2 1 -4
v 2 1 -5
v 2 3 5
v 2 3 4
v 2 3 -4
v 2 3 -5
v 2 7 5
v 2 7 4
v 2 8 5
v 2 8 4
v 2 11 -2
v 2 11 -3
v 2 13 -2
v 2 13 -3
v 2 14 -2
v 2 14 -3
v 2 15 -2
v 2 15 -3
v 4 0 5
v 4 0 -5
v 4 1 6
v 4 1 5
v 4 1 3
v 4 1 1
v 4 1 -1
v 4 1 -3
v 4 1 -5
v 4 1 -6
v 4 3 6
v 4 3 5
v 4 3 4
v 4 3 -4
v 4 3 -5
v 4 3 -6
v 4 4 5
v 4 4 4
v 4 4 -4
v 4 4 -5
v 4 5 5
v 4 5 4
v 4 6 8
v 4 6 5
v 4 6 4
v 4 8 8
v 4 8 4
v -4 0 5
v -4 0 -5
v -4 1 6
v -4 1 5
v -4 1 3
v -4 1 1
v -4 1 -1
v -4 1 -3
v -4 1 -5
v -4 1 -6
v -4 3 6
v -4 3 5
v -4 3 4
v -4 3 -4
v -4 3 -5
v -4 3 -6
v -4 4 5
v -4 4 4
v -4 4 -4
v -4 4 -5
v -4 5 5
v -4 5 4
v -4 6 8
v -4 6 5
v -4 6 4
v -4 8 8
v -4 8 4
v -2 1 5
v -2 1 4
v -2 1 -4
v -2 1 -5
v -2 3 5
v -2 3 4
v -2 3 -4
v -2 3 -5
v -2 7 5
v -2 7 4
v -2 8 5
v -2 8 4
v -2 11 -2
v -2 11 -3
v -2 13 -2
v -2 13 -3
v -2 14 -2
v -2 14 -3
v -2 15 -2
v -2 15 -3
v -1 1 4
v -1 1 -4
v -1 3 4
v -1 3 -4
v -1 13 -2
v -1 13 -3
v -1 14 -2
v -1 14 -3
v 2 3 5
v 2 3 4
v 2 4 5
v 2 4 4
v 3 4 5
v 3 4 4
v 3 8 5
v 3 8 4
v 3 11 -2
v 3 11 -3
v 3 13 -2
v 3 13 -3
v 3 14 -2
v 3 14 -3
v 3 15 -2
v 3 15 -3
v 4 1 3
v 4 1 1
v 4 1 -1
v 4 1 -3
v 4 3 3
v 4 3 1
v 4 3 -1
v 4 3 -3
v 4 4 4
v 4 4 -4
v 4 5 4
v 4 5 -1
v 4 5 -2
v 4 6 -2
v 4 6 -3
v 4 8 4
v 4 8 -3
v 4 9 4
v 4 9 -4
v 4 11 4
v 4 11 -4
v 4 13 -2
v 4 13 -3
v 4 14 -2
v 4 14 -3
v 6 0 5
v 6 0 -5
v 6 1 6
v 6 1 5
v 6 1 3
v 6 1 1
v 6 1 -1
v 6 1 -3
v 6 1 -5
v 6 1 -6
v 6 3 6
v 6 3 5
v 6 3 3
v 6 3 1
v 6 3 -1
v 6 3 -3
v 6 3 -5
v 6 3 -6
v 6 4 5
v 6 4 -5
v 6 5 5
v 6 5 1
v 6 5 -2
v 6 6 8
v 6 6 5
v 6 6 1
v 6 6 -2
v 6 6 -3
v 6 8 8
v 6 8 -3
v -6 6 8
v -6 8 8
v -4 6 8
v -4 8 8
v 4 6 8
v 4 8 8
v 6 6 8
v 6 8 8
v -6 1 6
v -6 3 6
v -4 1 6
v -4 3 6
v 4 1 6
v 4 3 6
v 6 1 6
v 6 3 6
v -6 0 5
v -6 1 5
v -6 3 5
v -6 4 5
v -6 5 5
v -6 6 5
v -4 0 5
v -4 1 5
v -4 3 5
v -4 4 5
v -4 5 5
v -4 6 5
v -3 4 5
v -3 8 5
v -2 1 5
v -2 3 5
v -2 4 5
v -2 7 5
v -2 8 5
v 2 1 5
v 2 3 5
v 2 4 5
v 2 7 5
v 2 8 5
v 3 4 5
v 3 8 5
v 4 0 5
v 4 1 5
v 4 3 5
v 4 4 5
v 4 5 5
v 4 6 5
v 6 0 5
v 6 1 5
v 6 3 5
v 6 4 5
v 6 5 5
v 6 6 5
v -4 3 4
v -4 4 4
v -4 5 4
v -4 6 4
v -4 8 4
v -4 9 4
v -4 11 4
v -3 4 4
v -3 8 4
v -3 9 4
v -3 10 4
v -2 1 4
v -2 3 4
v -2 4 4
v -2 7 4
v -2 8 4
v -1 1 4
v -1 3 4
v 1 1 4
v 1 3 4
v 2 1 4
v 2 3 4
v 2 4 4
v 2 7 4
v 2 8 4
v 3 4 4
v 3 8 4
v 3 9 4
v 3 10 4
v 4 3 4
v 4 4 4
v 4 5 4
v 4 6 4
v 4 8 4
v 4 9 4
v 4 11 4
v -6 1 1
v -6 3 1
v -4 1 1
v -4 3 1
v 4 1 1
v 4 3 1
v 6 1 1
v 6 3 1
v -4 13 -2
v -4 14 -2
v -3 11 -2
v -3 13 -2
v -3 14 -2
v -3 15 -2
v -2 11 -2
v -2 13 -2
v -2 14 -2
v -2 15 -2
v -1 13 -2
v -1 14 -2
v 1 13 -2
v 1 14 -2
v 2 11 -2
v 2 13 -2
v 2 14 -2
v 2 15 -2
v 3 11 -2
v 3 13 -2
v 3 14 -2
v 3 15 -2
v 4 13 -2
v 4 14 -2
v -6 1 -3
v -6 3 -3
v -4 1 -3
v -4 3 -3
v 4 1 -3
v 4 3 -3
v 6 1 -3
v 6 3 -3
v -6 1 3
v -6 3 3
v -4 1 3
v -4 3 3
v 4 1 3
v 4 3 3
v 6 1 3
v 6 3 3
v -6 1 -1
v -6 3 -1
v -4 1 -1
v -4 3 -1
v 4 1 -1
v 4 3 -1
v 6 1 -1
v 6 3 -1
v -6 5 -2
v -6 6 -2
v -4 5 -2
v -4 6 -2
v 4 5 -2
v 4 6 -2
v 6 5 -2
v 6 6 -2
v -6 6 -3
v -6 8 -3
v -4 6 -3
v -4 8 -3
v -4 13 -3
v -4 14 -3
v -3 11 -3
v -3 13 -3
v -3 14 -3
v -3 15 -3
v -2 11 -3
v -2 13 -3
v -2 14 -3
v -2 15 -3
v -1 13 -3
v -1 14 -3
v 1 13 -3
v 1 14 -3
v 2 11 -3
v 2 13 -3
v 2 14 -3
v 2 15 -3
v 3 11 -3
v 3 13 -3
v 3 14 -3
v 3 15 -3
v 4 6 -3
v 4 8 -3
v 4 13 -3
v 4 14 -3
v 6 6 -3
v 6 8 -3
v -4 3 -4
v -4 4 -4
v -4 9 -4
v -4 11 -4
v -3 4 -4
v -3 5 -4
v -3 6 -4
v -3 8 -4
v -2 1 -4
v -2 3 -4
v -2 4 -4
v -2 5 -4
v -2 6 -4
v -2 8 -4
v -2 9 -4
v -2 10 -4
v -1 1 -4
v -1 3 -4
v -1 4 -4
v -1 5 -4
v -1 9 -4
v -1 10 -4
v 1 1 -4
v 1 3 -4
v 1 4 -4
v 1 5 -4
v 1 9 -4
v 1 10 -4
v 2 1 -4
v 2 3 -4
v 2 4 -4
v 2 5 -4
v 2 6 -4
v 2 8 -4
v 2 9 -4
v 2 10 -4
v 3 4 -4
v 3 5 -4
v 3 6 -4
v 3 8 -4
v 4 3 -4
v 4 4 -4
v 4 9 -4
v 4 11 -4
v -6 0 -5
v -6 1 -5
v -6 3 -5
v -6 4 -5
v -4 0 -5
v -4 1 -5
v -4 3 -5
v -4 4 -5
v -2 1 -5
v -2 3 -5
v 2 1 -5
v 2 3 -5
v 4 0 -5
v 4 1 -5
v 4 3 -5
v 4 4 -5
v 6 0 -5
v 6 1 -5
v 6 3 -5
v 6 4 -5
v -6 1 -6
v -6 3 -6
v -4 1 -6
v -4 3 -6
v 4 1 -6
v 4 3 -6
v 6 1 -6
v 6 3 -6
v -6 0 5
v -4 0 5
v 4 0 5
v 6 0 5
v -6 0 -5
v -4 0 -5
v 4 0 -5
v 6 0 -5
v -6 1 6
v -4 1 6
v 4 1 6
v 6 1 6
v -6 1 5
v -4 1 5
v -2 1 5
v 2 1 5
v 4 1 5
v 6 1 5
v -2 1 4
v -1 1 4
v 1 1 4
v 2 1 4
v -4 1 3
v -3 1 3
v 3 1 3
v 4 1 3
v -4 1 1
v -3 1 1
v 3 1 1
v 4 1 1
v -4 1 -1
v -3 1 -1
v 3 1 -1
v 4 1 -1
v -4 1 -3
v -3 1 -3
v 3 1 -3
v 4 1 -3
v -2 1 -4
v -1 1 -4
v 1 1 -4
v 2 1 -4
v -6 1 -5
v -4 1 -5
v -2 1 -5
v 2 1 -5
v 4 1 -5
v 6 1 -5
v -6 1 -6
v -4 1 -6
v 4 1 -6
v 6 1 -6
v -2 3 5
v 2 3 5
v -2 3 4
v -1 3 4
v 1 3 4
v 2 3 4
v -6 3 3
v -4 3 3
v 4 3 3
v 6 3 3
v -6 3 1
v -4 3 1
v 4 3 1
v 6 3 1
v -6 3 -1
v -4 3 -1
v 4 3 -1
v 6 3 -1
v -6 3 -3
v -4 3 -3
v 4 3 -3
v 6 3 -3
v -1 3 -4
v 1 3 -4
v -3 4 5
v -2 4 5
v 2 4 5
v 3 4 5
v -3 4 4
v -2 4 4
v 2 4 4
v 3 4 4
v -6 5 5
v -4 5 5
v 4 5 5
v 6 5 5
v -4 5 4
v 4 5 4
v -6 5 1
v -5 5 1
v 5 5 1
v 6 5 1
v -5 5 -1
v -4 5 -1
v 4 5 -1
v 5 5 -1
v -6 5 -2
v -4 5 -2
v 4 5 -2
v 6 5 -2
v -6 6 8
v -4 6 8
v 4 6 8
v 6 6 8
v -6 6 5
v -4 6 5
v 4 6 5
v 6 6 5
v -6 6 -2
v -4 6 -2
v 4 6 -2
v 6 6 -2
v -6 6 -3
v -4 6 -3
v 4 6 -3
v 6 6 -3
v -4 13 -2
v -3 13 -2
v -2 13 -2
v -1 13 -2
v 1 13 -2
v 2 13 -2
v 3 13 -2
v 4 13 -2
v -4 13 -3
v -3 13 -3
v -2 13 -3
v -1 13 -3
v 1 13 -3
v 2 13 -3
v 3 13 -3
v 4 13 -3
v -6 1 3
v -4 1 3
v 4 1 3
v 6 1 3
v -6 1 1
v -4 1 1
v 4 1 1
v 6 1 1
v -6 1 -1
v -4 1 -1
v 4 1 -1
v 6 1 -1
v -6 1 -3
v -4 1 -3
v 4 1 -3
v 6 1 -3
v -6 3 6
v -4 3 6
v 4 3 6
v 6 3 6
v -6 3 5
v -4 3 5
v -2 3 5
v 2 3 5
v 4 3 5
v 6 3 5
v -4 3 4
v -2 3 4
v 2 3 4
v 4 3 4
v -4 3 -4
v -2 3 -4
v 2 3 -4
v 4 3 -4
v -6 3 -5
v -4 3 -5
v -2 3 -5
v 2 3 -5
v 4 3 -5
v 6 3 -5
v -6 3 -6
v -4 3 -6
v 4 3 -6
v 6 3 -6
v -6 4 5
v -4 4 5
v 4 4 5
v 6 4 5
v -4 4 4
v 4 4 4
v -4 4 -4
v 4 4 -4
v -6 4 -5
v -4 4 -5
v 4 4 -5
v 6 4 -5
v -2 7 5
v 2 7 5
v -2 7 4
v 2 7 4
v -6 8 8
v -4 8 8
v 4 8 8
v 6 8 8
v -3 8 5
v -2 8 5
v 2 8 5
v 3 8 5
v -4 8 4
v -3 8 4
v -2 8 4
v 2 8 4
v 3 8 4
v 4 8 4
v -6 8 -3
v -4 8 -3
v 4 8 -3
v 6 8 -3
v -4 11 4
v 4 11 4
v -3 11 -2
v -2 11 -2
v 2 11 -2
v 3 11 -2
v -3 11 -3
v -2 11 -3
v 2 11 -3
v 3 11 -3
v -4 11 -4
v 4 11 -4
v -4 14 -2
v -3 14 -2
v -2 14 -2
v -1 14 -2
v 1 14 -2
v 2 14 -2
v 3 14 -2
v 4 14 -2
v -4 14 -3
v -3 14 -3
v -2 14 -3
v -1 14 -3
v 1 14 -3
v 2 14 -3
v 3 14 -3
v 4 14 -3
v -3 15 -2
v -2 15 -2
v 2 15 -2
v 3 15 -2
v -3 15 -3
v -2 15 -3
v 2 15 -3
v 3 15 -3

# faces
f 4/3/1 2/3/1 1/3/1
f 5/3/1 2/3/1 4/3/1
f 6/3/1 2/3/1 5/3/1
f 7/3/1 2/3/1 6/3/1
f 8/3/1 2/3/1 7/3/1
f 9/3/1 2/3/1 8/3/1
f 11/3/1 4/3/1 3/3/1
f 12/4/1 5/4/1 4/4/1
f 12/3/1 4/3/1 11/3/1
f 13/4/1 5/4/1 12/4/1
f 14/4/1 7/4/1 6/4/1
f 15/4/1 7/4/1 14/4/1
f 16/4/1 9/4/1 8/4/1
f 17/3/1 10/3/1 9/3/1
f 17/4/1 9/4/1 16/4/1
f 18/3/1 10/3/1 17/3/1
f 19/3/1 16/3/1 15/3/1
f 19/3/1 15/3/1 14/3/1
f 19/3/1 17/3/1 16/3/1
f 19/3/1 13/3/1 12/3/1
f 19/3/1 14/3/1 13/3/1
f 20/3/1 17/3/1 19/3/1
f 25/4/1 22/4/1 21/4/1
f 26/3/1 23/3/1 22/3/1
f 26/4/1 22/4/1 25/4/1
f 27/3/1 23/3/1 26/3/1
f 29/3/1 25/3/1 24/3/1
f 29/3/1 28/3/1 27/3/1
f 29/3/1 27/3/1 26/3/1
f 29/3/1 26/3/1 25/3/1
f 30/3/1 28/3/1 29/3/1
f 35/2/1 32/2/1 31/2/1
f 36/2/1 32/2/1 35/2/1
f 37/2/1 34/2/1 33/2/1
f 38/2/1 34/2/1 37/2/1
f 41/1/1 40/1/1 39/1/1
f 42/1/1 40/1/1 41/1/1
f 43/1/1 40/1/1 42/1/1
f 44/1/1 40/1/1 43/1/1
f 45/1/1 40/1/1 44/1/1
f 47/1/1 40/1/1 45/1/1
f 48/1/1 47/1/1 46/1/1
f 49/1/1 40/1/1 47/1/1
f 49/1/1 47/1/1 48/1/1
f 50/3/1 49/3/1 48/3/1
f 51/3/1 49/3/1 50/3/1
f 54/3/1 53/3/1 52/3/1
f 55/3/1 53/3/1 54/3/1
f 58/3/1 57/3/1 56/3/1
f 59/3/1 57/3/1 58/3/1
f 62/3/1 61/3/1 60/3/1
f 63/3/1 61/3/1 62/3/1
f 66/3/1 65/3/1 64/3/1
f 67/3/1 65/3/1 66/3/1
f 70/3/1 69/3/1 68/3/1
f 71/3/1 69/3/1 70/3/1
f 74/4/1 73/4/1 72/4/1
f 75/4/1 73/4/1 74/4/1
f 78/3/1 77/3/1 76/3/1
f 79/3/1 77/3/1 78/3/1
f 84/4/1 81/4/1 80/4/1
f 85/4/1 81/4/1 84/4/1
f 86/4/1 83/4/1 82/4/1
f 87/4/1 83/4/1 86/4/1
f 90/3/1 89/3/1 88/3/1
f 91/3/1 89/3/1 90/3/1
f 94/3/1 93/3/1 92/3/1
f 95/3/1 93/3/1 94/3/1
f 98/3/1 97/3/1 96/3/1
f 99/3/1 97/3/1 98/3/1
f 103/3/1 101/3/1 100/3/1
f 104/3/1 101/3/1 103/3/1
f 105/3/1 101/3/1 104/3/1
f 106/3/1 101/3/1 105/3/1
f 107/3/1 101/3/1 106/3/1
f 108/3/1 101/3/1 107/3/1
f 110/3/1 103/3/1 102/3/1
f 111/3/1 103/3/1 110/3/1
f 114/3/1 109/3/1 108/3/1
f 115/3/1 109/3/1 114/3/1
f 116/3/1 112/3/1 111/3/1
f 117/3/1 112/3/1 116/3/1
f 118/3/1 114/3/1 113/3/1
f 119/3/1 114/3/1 118/3/1
f 123/4/1 121/4/1 120/4/1
f 124/4/1 121/4/1 123/4/1
f 125/3/1 123/3/1 122/3/1
f 125/3/1 124/3/1 123/3/1
f 126/3/1 124/3/1 125/3/1
f 127/3/2 128/3/2 130/3/2
f 130/3/2 128/3/2 131/3/2
f 131/3/2 128/3/2 132/3/2
f 132/3/2 128/3/2 133/3/2
f 133/3/2 128/3/2 134/3/2
f 134/3/2 128/3/2 135/3/2
f 129/3/2 130/3/2 137/3/2
f 137/3/2 130/3/2 138/3/2
f 135/3/2 136/3/2 141/3/2
f 141/3/2 136/3/2 142/3/2
f 138/3/2 139/3/2 143/3/2
f 143/3/2 139/3/2 144/3/2
f 140/3/2 141/3/2 145/3/2
f 145/3/2 141/3/2 146/3/2
f 147/4/2 148/4/2 150/4/2
f 150/4/2 148/4/2 151/4/2
f 149/3/2 150/3/2 152/3/2
f 150/3/2 151/3/2 152/3/2
f 152/3/2 151/3/2 153/3/2
f 154/4/2 155/4/2 158/4/2
f 158/4/2 155/4/2 159/4/2
f 156/4/2 157/4/2 160/4/2
f 160/4/2 157/4/2 161/4/2
f 162/3/2 163/3/2 164/3/2
f 164/3/2 163/3/2 165/3/2
f 166/3/2 167/3/2 168/3/2
f 168/3/2 167/3/2 169/3/2
f 170/3/2 171/3/2 172/3/2
f 172/3/2 171/3/2 173/3/2
f 174/4/2 175/4/2 176/4/2
f 176/4/2 175/4/2 177/4/2
f 178/3/2 179/3/2 180/3/2
f 180/3/2 179/3/2 181/3/2
f 182/3/2 183/3/2 184/3/2
f 184/3/2 183/3/2 185/3/2
f 186/3/2 187/3/2 188/3/2
f 188/3/2 187/3/2 189/3/2
f 190/3/2 191/3/2 192/3/2
f 192/3/2 191/3/2 193/3/2
f 194/3/2 195/3/2 196/3/2
f 196/3/2 195/3/2 197/3/2
f 198/2/2 199/2/2 202/2/2
f 202/2/2 199/2/2 203/2/2
f 200/2/2 201/2/2 204/2/2
f 204/2/2 201/2/2 205/2/2
f 206/1/2 207/1/2 208/1/2
f 208/1/2 207/1/2 209/1/2
f 209/1/2 207/1/2 210/1/2
f 210/1/2 207/1/2 211/1/2
f 211/1/2 207/1/2 212/1/2
f 212/1/2 207/1/2 214/1/2
f 213/1/2 214/1/2 215/1/2
f 214/1/2 207/1/2 216/1/2
f 215/1/2 214/1/2 216/1/2
f 215/3/2 216/3/2 217/3/2
f 217/3/2 216/3/2 218/3/2
f 219/3/2 220/3/2 221/3/2
f 221/3/2 220/3/2 222/3/2
f 223/3/2 224/3/2 226/3/2
f 226/3/2 224/3/2 227/3/2
f 227/3/2 224/3/2 228/3/2
f 228/3/2 224/3/2 229/3/2
f 229/3/2 224/3/2 230/3/2
f 230/3/2 224/3/2 231/3/2
f 225/3/2 226/3/2 233/3/2
f 226/4/2 227/4/2 234/4/2
f 233/3/2 226/3/2 234/3/2
f 234/4/2 227/4/2 235/4/2
f 228/4/2 229/4/2 236/4/2
f 236/4/2 229/4/2 237/4/2
f 230/4/2 231/4/2 238/4/2
f 231/3/2 232/3/2 239/3/2
f 238/4/2 231/4/2 239/4/2
f 239/3/2 232/3/2 240/3/2
f 237/3/2 238/3/2 241/3/2
f 236/3/2 237/3/2 241/3/2
f 238/3/2 239/3/2 241/3/2
f 234/3/2 235/3/2 241/3/2
f 235/3/2 236/3/2 241/3/2
f 241/3/2 239/3/2 242/3/2
f 243/4/2 244/4/2 247/4/2
f 244/3/2 245/3/2 248/3/2
f 247/4/2 244/4/2 248/4/2
f 248/3/2 245/3/2 249/3/2
f 246/3/2 247/3/2 251/3/2
f 249/3/2 250/3/2 251/3/2
f 248/3/2 249/3/2 251/3/2
f 247/3/2 248/3/2 251/3/2
f 251/3/2 250/3/2 252/3/2
f 255/3/3 254/3/3 253/3/3
f 256/3/3 254/3/3 255/3/3
f 259/3/3 258/3/3 257/3/3
f 260/3/3 258/3/3 259/3/3
f 263/3/3 262/3/3 261/3/3
f 264/3/3 262/3/3 263/3/3
f 267/3/3 266/3/3 265/3/3
f 268/3/3 266/3/3 267/3/3
f 275/3/3 270/3/3 269/3/3
f 276/3/3 270/3/3 275/3/3
f 277/3/3 272/3/3 271/3/3
f 278/3/3 272/3/3 277/3/3
f 279/4/3 274/4/3 273/4/3
f 280/4/3 274/4/3 279/4/3
f 283/4/3 277/4/3 276/4/3
f 284/4/3 277/4/3 283/4/3
f 285/3/3 282/3/3 281/3/3
f 286/3/3 282/3/3 285/3/3
f 287/3/3 282/3/3 286/3/3
f 289/3/3 285/3/3 284/3/3
f 289/3/3 286/3/3 285/3/3
f 290/3/3 286/3/3 289/3/3
f 291/3/3 286/3/3 290/3/3
f 293/3/3 292/3/3 291/3/3
f 293/3/3 291/3/3 290/3/3
f 294/3/3 292/3/3 293/3/3
f 296/4/3 289/4/3 288/4/3
f 297/4/3 289/4/3 296/4/3
f 301/3/3 296/3/3 295/3/3
f 302/3/3 296/3/3 301/3/3
f 303/3/3 298/3/3 297/3/3
f 304/3/3 298/3/3 303/3/3
f 305/4/3 300/4/3 299/4/3
f 306/4/3 300/4/3 305/4/3
f 314/1/3 308/1/3 307/1/3
f 314/1/3 309/1/3 308/1/3
f 314/1/3 312/1/3 311/1/3
f 314/1/3 311/1/3 310/1/3
f 314/1/3 310/1/3 309/1/3
f 315/1/3 312/1/3 314/1/3
f 316/3/3 313/3/3 312/3/3
f 316/1/3 312/1/3 315/1/3
f 317/3/3 313/3/3 316/3/3
f 319/1/3 314/1/3 307/1/3
f 320/1/3 314/1/3 319/1/3
f 322/2/3 317/2/3 316/2/3
f 322/2/3 316/2/3 315/2/3
f 323/4/3 319/4/3 318/4/3
f 324/4/3 319/4/3 323/4/3
f 327/4/3 326/4/3 325/4/3
f 328/4/3 326/4/3 327/4/3
f 330/2/3 322/2/3 321/2/3
f 331/2/3 317/2/3 322/2/3
f 331/2/3 322/2/3 330/2/3
f 332/1/3 329/1/3 328/1/3
f 333/2/3 317/2/3 331/2/3
f 334/2/3 317/2/3 333/2/3
f 335/3/3 313/3/3 317/3/3
f 335/2/3 317/2/3 334/2/3
f 336/1/3 334/1/3 333/1/3
f 336/1/3 332/1/3 328/1/3
f 336/1/3 333/1/3 332/1/3
f 337/1/3 334/1/3 336/1/3
f 338/1/3 334/1/3 337/1/3
f 339/1/3 334/1/3 338/1/3
f 340/1/3 334/1/3 339/1/3
f 341/3/3 335/3/3 334/3/3
f 341/1/3 334/1/3 340/1/3
f 342/3/3 313/3/3 335/3/3
f 342/3/3 335/3/3 341/3/3
f 345/4/3 344/4/3 343/4/3
f 346/4/3 344/4/3 345/4/3
f 349/4/3 348/4/3 347/4/3
f 350/4/3 348/4/3 349/4/3
f 354/3/3 352/3/3 351/3/3
f 355/3/3 352/3/3 354/3/3
f 357/3/3 354/3/3 353/3/3
f 357/3/3 356/3/3 355/3/3
f 357/3/3 355/3/3 354/3/3
f 358/3/3 356/3/3 357/3/3
f 359/3/3 356/3/3 358/3/3
f 360/3/3 356/3/3 359/3/3
f 361/3/3 359/3/3 358/3/3
f 362/3/3 359/3/3 361/3/3
f 366/3/3 364/3/3 363/3/3
f 367/3/3 364/3/3 366/3/3
f 369/3/3 367/3/3 366/3/3
f 369/3/3 368/3/3 367/3/3
f 369/3/3 366/3/3 365/3/3
f 370/3/3 368/3/3 369/3/3
f 371/3/3 368/3/3 370/3/3
f 372/3/3 368/3/3 371/3/3
f 373/3/3 371/3/3 370/3/3
f 374/3/3 371/3/3 373/3/3
f 377/4/3 376/4/3 375/4/3
f 378/4/3 376/4/3 377/4/3
f 381/4/3 380/4/3 379/4/3
f 382/4/3 380/4/3 381/4/3
f 383/4/4 384/4/4 385/4/4
f 385/4/4 384/4/4 386/4/4
f 387/4/4 388/4/4 389/4/4
f 389/4/4 388/4/4 390/4/4
f 391/4/4 392/4/4 393/4/4
f 393/4/4 392/4/4 394/4/4
f 395/4/4 396/4/4 397/4/4
f 397/4/4 396/4/4 398/4/4
f 399/3/4 400/3/4 401/3/4
f 401/3/4 400/3/4 402/3/4
f 403/3/4 404/3/4 405/3/4
f 405/3/4 404/3/4 406/3/4
f 407/3/4 408/3/4 409/3/4
f 409/3/4 408/3/4 410/3/4
f 411/3/4 412/3/4 414/3/4
f 414/3/4 412/3/4 415/3/4
f 413/3/4 414/3/4 417/3/4
f 415/3/4 416/3/4 417/3/4
f 414/3/4 415/3/4 417/3/4
f 417/3/4 416/3/4 418/3/4
f 418/3/4 416/3/4 419/3/4
f 419/3/4 416/3/4 420/3/4
f 418/3/4 419/3/4 421/3/4
f 421/3/4 419/3/4 422/3/4
f 423/3/4 424/3/4 426/3/4
f 426/3/4 424/3/4 427/3/4
f 426/3/4 427/3/4 429/3/4
f 427/3/4 428/3/4 429/3/4
f 425/3/4 426/3/4 429/3/4
f 429/3/4 428/3/4 430/3/4
f 430/3/4 428/3/4 431/3/4
f 431/3/4 428/3/4 432/3/4
f 430/3/4 431/3/4 435/3/4
f 435/3/4 431/3/4 436/3/4
f 433/3/4 434/3/4 437/3/4
f 437/3/4 434/3/4 438/3/4
f 439/1/4 440/1/4 443/1/4
f 440/1/4 441/1/4 443/1/4
f 443/1/4 441/1/4 444/1/4
f 444/1/4 441/1/4 445/1/4
f 445/1/4 441/1/4 446/1/4
f 439/1/4 443/1/4 448/1/4
f 443/3/4 444/3/4 449/3/4
f 448/1/4 443/1/4 449/1/4
f 444/1/4 445/1/4 450/1/4
f 449/3/4 444/3/4 450/3/4
f 445/3/4 446/3/4 451/3/4
f 450/1/4 445/1/4 451/1/4
f 446/1/4 441/1/4 452/1/4
f 451/3/4 446/3/4 452/3/4
f 441/3/4 442/3/4 453/3/4
f 452/1/4 441/1/4 453/1/4
f 453/3/4 442/3/4 454/3/4
f 447/4/4 448/4/4 455/4/4
f 451/1/4 452/1/4 456/1/4
f 455/4/4 448/4/4 456/4/4
f 450/1/4 451/1/4 456/1/4
f 453/1/4 454/1/4 456/1/4
f 452/1/4 453/1/4 456/1/4
f 448/1/4 449/1/4 456/1/4
f 449/1/4 450/1/4 456/1/4
f 456/1/4 454/1/4 457/1/4
f 457/1/4 454/1/4 458/1/4
f 458/1/4 454/1/4 459/1/4
f 454/3/4 442/3/4 460/3/4
f 459/1/4 454/1/4 460/1/4
f 456/1/4 457/1/4 462/1/4
f 457/3/4 458/3/4 463/3/4
f 462/1/4 457/1/4 463/1/4
f 458/1/4 459/1/4 464/1/4
f 463/3/4 458/3/4 464/3/4
f 459/3/4 460/3/4 465/3/4
f 464/1/4 459/1/4 465/1/4
f 460/3/4 442/3/4 466/3/4
f 465/3/4 460/3/4 466/3/4
f 461/4/4 462/4/4 467/4/4
f 462/1/4 463/1/4 468/1/4
f 467/4/4 462/4/4 468/4/4
f 464/1/4 465/1/4 468/1/4
f 465/1/4 466/1/4 468/1/4
f 463/1/4 464/1/4 468/1/4
f 468/1/4 466/1/4 469/1/4
f 469/1/4 466/1/4 470/1/4
f 470/1/4 466/1/4 471/1/4
f 471/1/4 466/1/4 472/1/4
f 472/1/4 466/1/4 473/1/4
f 466/3/4 442/3/4 474/3/4
f 473/1/4 466/1/4 474/1/4
f 468/1/4 469/1/4 475/1/4
f 469/3/4 470/3/4 475/3/4
f 470/1/4 471/1/4 476/1/4
f 475/3/4 470/3/4 476/3/4
f 471/3/4 472/3/4 477/3/4
f 476/1/4 471/1/4 477/1/4
f 472/1/4 473/1/4 478/1/4
f 477/3/4 472/3/4 478/3/4
f 476/1/4 477/1/4 479/1/4
f 475/1/4 476/1/4 479/1/4
f 477/1/4 478/1/4 479/1/4
f 468/1/4 475/1/4 479/1/4
f 479/1/4 478/1/4 480/1/4
f 478/1/4 473/1/4 481/1/4
f 480/1/4 478/1/4 481/1/4
f 473/3/4 474/3/4 481/3/4
f 474/3/4 442/3/4 482/3/4
f 481/3/4 474/3/4 482/3/4
f 483/3/4 484/3/4 487/3/4
f 487/3/4 484/3/4 488/3/4
f 485/3/4 486/3/4 489/3/4
f 489/3/4 486/3/4 490/3/4
f 488/4/4 489/4/4 491/4/4
f 491/4/4 489/4/4 492/4/4
f 493/4/4 494/4/4 496/4/4
f 496/4/4 494/4/4 497/4/4
f 495/3/4 496/3/4 499/3/4
f 499/3/4 496/3/4 500/3/4
f 497/3/4 498/3/4 501/3/4
f 501/3/4 498/3/4 502/3/4
f 503/3/4 504/3/4 505/3/4
f 505/3/4 504/3/4 506/3/4
f 507/3/4 508/3/4 509/3/4
f 509/3/4 508/3/4 510/3/4
f 515/3/5 512/3/5 511/3/5
f 516/3/5 512/3/5 515/3/5
f 517/3/5 514/3/5 513/3/5
f 518/3/5 514/3/5 517/3/5
f 523/3/5 520/3/5 519/3/5
f 524/3/5 520/3/5 523/3/5
f 527/3/5 522/3/5 521/3/5
f 528/3/5 522/3/5 527/3/5
f 529/4/5 525/4/5 524/4/5
f 532/4/5 527/4/5 526/4/5
f 533/4/5 530/4/5 529/4/5
f 533/4/5 529/4/5 524/4/5
f 534/4/5 530/4/5 533/4/5
f 535/4/5 532/4/5 531/4/5
f 535/4/5 527/4/5 532/4/5
f 536/4/5 527/4/5 535/4/5
f 537/2/5 534/2/5 533/2/5
f 538/4/5 530/4/5 534/4/5
f 538/2/5 534/2/5 537/2/5
f 539/4/5 535/4/5 531/4/5
f 539/2/5 536/2/5 535/2/5
f 540/2/5 536/2/5 539/2/5
f 541/4/5 538/4/5 537/4/5
f 542/4/5 530/4/5 538/4/5
f 542/4/5 538/4/5 541/4/5
f 543/4/5 539/4/5 531/4/5
f 543/4/5 540/4/5 539/4/5
f 544/4/5 540/4/5 543/4/5
f 545/2/5 542/2/5 541/2/5
f 546/4/5 530/4/5 542/4/5
f 546/2/5 542/2/5 545/2/5
f 547/4/5 543/4/5 531/4/5
f 547/2/5 544/2/5 543/2/5
f 548/2/5 544/2/5 547/2/5
f 549/4/5 530/4/5 546/4/5
f 549/4/5 546/4/5 545/4/5
f 550/4/5 530/4/5 549/4/5
f 551/4/5 548/4/5 547/4/5
f 551/4/5 547/4/5 531/4/5
f 552/4/5 548/4/5 551/4/5
f 554/4/5 549/4/5 545/4/5
f 555/4/5 549/4/5 554/4/5
f 556/4/5 548/4/5 552/4/5
f 557/4/5 548/4/5 556/4/5
f 559/3/5 554/3/5 553/3/5
f 560/3/5 554/3/5 559/3/5
f 561/3/5 558/3/5 557/3/5
f 562/3/5 558/3/5 561/3/5
f 565/3/5 564/3/5 563/3/5
f 566/3/5 564/3/5 565/3/5
f 567/3/5 564/3/5 566/3/5
f 568/3/5 564/3/5 567/3/5
f 573/3/5 570/3/5 569/3/5
f 574/3/5 570/3/5 573/3/5
f 575/3/5 572/3/5 571/3/5
f 576/3/5 572/3/5 575/3/5
f 581/3/5 578/3/5 577/3/5
f 582/3/5 578/3/5 581/3/5
f 583/3/5 580/3/5 579/3/5
f 584/3/5 580/3/5 583/3/5
f 585/1/5 567/1/5 566/1/5
f 586/1/5 567/1/5 585/1/5
f 591/3/5 588/3/5 587/3/5
f 592/3/5 588/3/5 591/3/5
f 593/3/5 590/3/5 589/3/5
f 594/3/5 590/3/5 593/3/5
f 599/4/5 596/4/5 595/4/5
f 600/4/5 598/4/5 597/4/5
f 601/4/5 599/4/5 595/4/5
f 602/4/5 599/4/5 601/4/5
f 603/4/5 598/4/5 600/4/5
f 604/4/5 598/4/5 603/4/5
f 605/4/5 599/4/5 602/4/5
f 605/3/5 602/3/5 601/3/5
f 606/4/5 599/4/5 605/4/5
f 607/4/5 603/4/5 600/4/5
f 608/3/5 604/3/5 603/3/5
f 608/4/5 603/4/5 607/4/5
f 609/3/5 606/3/5 605/3/5
f 609/3/5 605/3/5 601/3/5
f 610/3/5 606/3/5 609/3/5
f 611/3/5 608/3/5 607/3/5
f 612/3/5 604/3/5 608/3/5
f 612/3/5 608/3/5 611/3/5
f 617/3/5 614/3/5 613/3/5
f 618/3/5 614/3/5 617/3/5
f 619/3/5 616/3/5 615/3/5
f 620/3/5 616/3/5 619/3/5
f 625/3/5 622/3/5 621/3/5
f 626/3/5 622/3/5 625/3/5
f 627/3/5 624/3/5 623/3/5
f 628/3/5 624/3/5 627/3/5
f 637/3/5 630/3/5 629/3/5
f 638/3/5 630/3/5 637/3/5
f 639/3/5 632/3/5 631/3/5
f 640/3/5 632/3/5 639/3/5
f 641/3/5 634/3/5 633/3/5
f 642/3/5 634/3/5 641/3/5
f 643/3/5 636/3/5 635/3/5
f 644/3/5 636/3/5 643/3/5
f 645/3/6 646/3/6 649/3/6
f 649/3/6 646/3/6 650/3/6
f 647/3/6 648/3/6 651/3/6
f 651/3/6 648/3/6 652/3/6
f 653/3/6 654/3/6 657/3/6
f 657/3/6 654/3/6 658/3/6
f 655/3/6 656/3/6 659/3/6
f 659/3/6 656/3/6 660/3/6
f 661/3/6 662/3/6 665/3/6
f 665/3/6 662/3/6 666/3/6
f 663/3/6 664/3/6 669/3/6
f 669/3/6 664/3/6 670/3/6
f 666/4/6 667/4/6 671/4/6
f 671/4/6 667/4/6 672/4/6
f 668/4/6 669/4/6 673/4/6
f 673/4/6 669/4/6 674/4/6
f 675/4/6 676/4/6 680/4/6
f 680/4/6 676/4/6 681/4/6
f 677/4/6 678/4/6 682/4/6
f 682/4/6 678/4/6 683/4/6
f 679/3/6 680/3/6 685/3/6
f 685/3/6 680/3/6 686/3/6
f 683/3/6 684/3/6 687/3/6
f 687/3/6 684/3/6 688/3/6
f 689/3/6 690/3/6 693/3/6
f 691/3/6 692/3/6 694/3/6
f 689/3/6 693/3/6 695/3/6
f 694/3/6 692/3/6 696/3/6
f 689/3/6 695/3/6 697/3/6
f 697/3/6 695/3/6 698/3/6
f 696/3/6 692/3/6 699/3/6
f 699/3/6 692/3/6 700/3/6
f 701/3/6 702/3/6 703/3/6
f 703/3/6 702/3/6 704/3/6
f 705/3/6 706/3/6 713/3/6
f 709/3/6 710/3/6 714/3/6
f 714/3/6 710/3/6 715/3/6
f 711/3/6 712/3/6 716/3/6
f 716/3/6 712/3/6 717/3/6
f 707/3/6 708/3/6 718/3/6
f 705/3/6 713/3/6 719/3/6
f 719/3/6 713/3/6 720/3/6
f 718/3/6 708/3/6 721/3/6
f 721/3/6 708/3/6 722/3/6
f 723/3/6 724/3/6 725/3/6
f 725/3/6 724/3/6 726/3/6
f 726/3/6 724/3/6 727/3/6
f 727/3/6 724/3/6 728/3/6
f 723/3/6 725/3/6 729/3/6
f 726/3/6 727/3/6 730/3/6
f 730/3/6 727/3/6 731/3/6
f 728/3/6 724/3/6 732/3/6
f 730/3/6 731/3/6 733/3/6
f 731/3/6 732/3/6 733/3/6
f 723/3/6 729/3/6 733/3/6
f 729/3/6 730/3/6 733/3/6
f 732/3/6 724/3/6 734/3/6
f 733/3/6 732/3/6 734/3/6
f 735/3/6 736/3/6 743/3/6
f 743/3/6 736/3/6 744/3/6
f 737/3/6 738/3/6 745/3/6
f 745/3/6 738/3/6 746/3/6
f 739/3/6 740/3/6 747/3/6
f 747/3/6 740/3/6 748/3/6
f 741/3/6 742/3/6 749/3/6
f 749/3/6 742/3/6 750/3/6
f 751/3/6 752/3/6 755/3/6
f 755/3/6 752/3/6 756/3/6
f 753/3/6 754/3/6 757/3/6
f 757/3/6 754/3/6 758/3/6
