# MagicaVoxel @ Ephtracy

# group
g Blue-12

# material
mtllib Blue-12.mtl
usemtl palette

# normals
vn -1 0 0
vn 1 0 0
vn 0 0 1
vn 0 0 -1
vn 0 -1 0
vn 0 1 0

# texcoords
vt 0.00195313 0.5
vt 0.0332031 0.5
vt 0.0371094 0.5
vt 0.0410156 0.5
vt 0.0449219 0.5

# verts
v -7 6 3
v -7 6 -0
v -7 7 3
v -7 7 -0
v -6 0 5
v -6 0 -5
v -6 1 6
v -6 1 5
v -6 1 3
v -6 1 1
v -6 1 -1
v -6 1 -3
v -6 1 -5
v -6 1 -6
v -6 3 6
v -6 3 5
v -6 3 3
v -6 3 1
v -6 3 -1
v -6 3 -3
v -6 3 -5
v -6 3 -6
v -6 4 5
v -6 4 -5
v -6 5 2
v -6 5 -2
v -6 6 7
v -6 6 3
v -6 6 2
v -6 6 -0
v -6 6 -2
v -6 6 -3
v -6 7 7
v -6 7 3
v -6 7 -0
v -6 7 -3
v -5 6 8
v -5 6 7
v -5 7 8
v -5 7 7
v -4 1 3
v -4 1 1
v -4 1 -1
v -4 1 -3
v -4 3 3
v -4 3 1
v -4 3 -1
v -4 3 -3
v -4 4 5
v -4 4 4
v -4 4 -4
v -4 5 2
v -4 5 1
v -4 5 -1
v -4 5 -2
v -4 6 5
v -4 6 4
v -4 6 2
v -4 6 -2
v -4 6 -3
v -4 7 5
v -4 7 4
v -4 7 1
v -4 7 -3
v -4 9 5
v -4 9 4
v -4 9 -4
v -4 11 4
v -4 11 -4
v -4 13 -2
v -4 13 -3
v -4 14 -2
v -4 14 -3
v -3 11 -2
v -3 11 -3
v -3 13 -2
v -3 13 -3
v -3 14 -2
v -3 14 -3
v -3 15 -2
v -3 15 -3
v 1 1 4
v 1 1 -4
v 1 3 4
v 1 3 -4
v 1 13 -2
v 1 13 -3
v 1 14 -2
v 1 14 -3
v 2 1 5
v 2 1 4
v 2 1 -4
v 2 1 -5
v 2 3 5
v 2 3 4
v 2 3 -4
v 2 3 -5
v 2 7 5
v 2 7 4
v 2 8 5
v 2 8 4
v 2 11 -2
v 2 11 -3
v 2 13 -2
v 2 13 -3
v 2 14 -2
v 2 14 -3
v 2 15 -2
v 2 15 -3
v 3 8 5
v 3 8 4
v 3 9 5
v 3 9 4
v 4 0 5
v 4 0 -5
v 4 1 6
v 4 1 5
v 4 1 3
v 4 1 1
v 4 1 -1
v 4 1 -3
v 4 1 -5
v 4 1 -6
v 4 3 6
v 4 3 5
v 4 3 -4
v 4 3 -5
v 4 3 -6
v 4 4 -4
v 4 4 -5
v 4 6 8
v 4 6 5
v 4 7 8
v 4 7 5
v -4 0 5
v -4 0 -5
v -4 1 6
v -4 1 5
v -4 1 3
v -4 1 1
v -4 1 -1
v -4 1 -3
v -4 1 -5
v -4 1 -6
v -4 3 6
v -4 3 5
v -4 3 -4
v -4 3 -5
v -4 3 -6
v -4 4 -4
v -4 4 -5
v -4 6 8
v -4 6 5
v -4 7 8
v -4 7 5
v -3 8 5
v -3 8 4
v -3 9 5
v -3 9 4
v -2 1 5
v -2 1 4
v -2 1 -4
v -2 1 -5
v -2 3 5
v -2 3 4
v -2 3 -4
v -2 3 -5
v -2 7 5
v -2 7 4
v -2 8 5
v -2 8 4
v -2 11 -2
v -2 11 -3
v -2 13 -2
v -2 13 -3
v -2 14 -2
v -2 14 -3
v -2 15 -2
v -2 15 -3
v -1 1 4
v -1 1 -4
v -1 3 4
v -1 3 -4
v -1 13 -2
v -1 13 -3
v -1 14 -2
v -1 14 -3
v 3 11 -2
v 3 11 -3
v 3 13 -2
v 3 13 -3
v 3 14 -2
v 3 14 -3
v 3 15 -2
v 3 15 -3
v 4 1 3
v 4 1 1
v 4 1 -1
v 4 1 -3
v 4 3 3
v 4 3 1
v 4 3 -1
v 4 3 -3
v 4 4 5
v 4 4 4
v 4 4 -4
v 4 5 2
v 4 5 1
v 4 5 -1
v 4 5 -2
v 4 6 5
v 4 6 4
v 4 6 2
v 4 6 -2
v 4 6 -3
v 4 7 5
v 4 7 4
v 4 7 1
v 4 7 -3
v 4 9 5
v 4 9 4
v 4 9 -4
v 4 11 4
v 4 11 -4
v 4 13 -2
v 4 13 -3
v 4 14 -2
v 4 14 -3
v 5 6 8
v 5 6 7
v 5 7 8
v 5 7 7
v 6 0 5
v 6 0 -5
v 6 1 6
v 6 1 5
v 6 1 3
v 6 1 1
v 6 1 -1
v 6 1 -3
v 6 1 -5
v 6 1 -6
v 6 3 6
v 6 3 5
v 6 3 3
v 6 3 1
v 6 3 -1
v 6 3 -3
v 6 3 -5
v 6 3 -6
v 6 4 5
v 6 4 -5
v 6 5 2
v 6 5 -2
v 6 6 7
v 6 6 3
v 6 6 2
v 6 6 -0
v 6 6 -2
v 6 6 -3
v 6 7 7
v 6 7 3
v 6 7 -0
v 6 7 -3
v 7 6 3
v 7 6 -0
v 7 7 3
v 7 7 -0
v -5 6 8
v -5 7 8
v -4 6 8
v -4 7 8
v 4 6 8
v 4 7 8
v 5 6 8
v 5 7 8
v -6 6 7
v -6 7 7
v -5 6 7
v -5 7 7
v 5 6 7
v 5 7 7
v 6 6 7
v 6 7 7
v -6 1 6
v -6 3 6
v -4 1 6
v -4 3 6
v 4 1 6
v 4 3 6
v 6 1 6
v 6 3 6
v -6 0 5
v -6 1 5
v -6 3 5
v -6 4 5
v -4 0 5
v -4 1 5
v -4 3 5
v -4 4 5
v -4 6 5
v -4 7 5
v -4 9 5
v -3 8 5
v -3 9 5
v -2 1 5
v -2 3 5
v -2 7 5
v -2 8 5
v 2 1 5
v 2 3 5
v 2 7 5
v 2 8 5
v 3 8 5
v 3 9 5
v 4 0 5
v 4 1 5
v 4 3 5
v 4 4 5
v 4 6 5
v 4 7 5
v 4 9 5
v 6 0 5
v 6 1 5
v 6 3 5
v 6 4 5
v -4 9 4
v -4 11 4
v -3 8 4
v -3 9 4
v -3 10 4
v -2 1 4
v -2 3 4
v -2 7 4
v -2 8 4
v -1 1 4
v -1 3 4
v 1 1 4
v 1 3 4
v 2 1 4
v 2 3 4
v 2 7 4
v 2 8 4
v 3 8 4
v 3 9 4
v 3 10 4
v 4 9 4
v 4 11 4
v -7 6 3
v -7 7 3
v -6 6 3
v -6 7 3
v 6 6 3
v 6 7 3
v 7 6 3
v 7 7 3
v -6 5 2
v -6 6 2
v -4 5 2
v -4 6 2
v 4 5 2
v 4 6 2
v 6 5 2
v 6 6 2
v -6 1 1
v -6 3 1
v -4 1 1
v -4 3 1
v 4 1 1
v 4 3 1
v 6 1 1
v 6 3 1
v -4 13 -2
v -4 14 -2
v -3 11 -2
v -3 13 -2
v -3 14 -2
v -3 15 -2
v -2 11 -2
v -2 13 -2
v -2 14 -2
v -2 15 -2
v -1 13 -2
v -1 14 -2
v 1 13 -2
v 1 14 -2
v 2 11 -2
v 2 13 -2
v 2 14 -2
v 2 15 -2
v 3 11 -2
v 3 13 -2
v 3 14 -2
v 3 15 -2
v 4 13 -2
v 4 14 -2
v -6 1 -3
v -6 3 -3
v -4 1 -3
v -4 3 -3
v 4 1 -3
v 4 3 -3
v 6 1 -3
v 6 3 -3
v -6 1 3
v -6 3 3
v -4 1 3
v -4 3 3
v 4 1 3
v 4 3 3
v 6 1 3
v 6 3 3
v -7 6 -0
v -7 7 -0
v -6 6 -0
v -6 7 -0
v 6 6 -0
v 6 7 -0
v 7 6 -0
v 7 7 -0
v -6 1 -1
v -6 3 -1
v -4 1 -1
v -4 3 -1
v 4 1 -1
v 4 3 -1
v 6 1 -1
v 6 3 -1
v -6 5 -2
v -6 6 -2
v -4 5 -2
v -4 6 -2
v 4 5 -2
v 4 6 -2
v 6 5 -2
v 6 6 -2
v -6 6 -3
v -6 7 -3
v -4 6 -3
v -4 7 -3
v -4 13 -3
v -4 14 -3
v -3 11 -3
v -3 13 -3
v -3 14 -3
v -3 15 -3
v -2 11 -3
v -2 13 -3
v -2 14 -3
v -2 15 -3
v -1 13 -3
v -1 14 -3
v 1 13 -3
v 1 14 -3
v 2 11 -3
v 2 13 -3
v 2 14 -3
v 2 15 -3
v 3 11 -3
v 3 13 -3
v 3 14 -3
v 3 15 -3
v 4 6 -3
v 4 7 -3
v 4 13 -3
v 4 14 -3
v 6 6 -3
v 6 7 -3
v -4 3 -4
v -4 4 -4
v -4 9 -4
v -4 11 -4
v -3 4 -4
v -3 5 -4
v -3 6 -4
v -3 8 -4
v -2 1 -4
v -2 3 -4
v -2 4 -4
v -2 5 -4
v -2 6 -4
v -2 8 -4
v -2 9 -4
v -2 10 -4
v -1 1 -4
v -1 3 -4
v -1 4 -4
v -1 5 -4
v -1 9 -4
v -1 10 -4
v 1 1 -4
v 1 3 -4
v 1 4 -4
v 1 5 -4
v 1 9 -4
v 1 10 -4
v 2 1 -4
v 2 3 -4
v 2 4 -4
v 2 5 -4
v 2 6 -4
v 2 8 -4
v 2 9 -4
v 2 10 -4
v 3 4 -4
v 3 5 -4
v 3 6 -4
v 3 8 -4
v 4 3 -4
v 4 4 -4
v 4 9 -4
v 4 11 -4
v -6 0 -5
v -6 1 -5
v -6 3 -5
v -6 4 -5
v -4 0 -5
v -4 1 -5
v -4 3 -5
v -4 4 -5
v -2 1 -5
v -2 3 -5
v 2 1 -5
v 2 3 -5
v 4 0 -5
v 4 1 -5
v 4 3 -5
v 4 4 -5
v 6 0 -5
v 6 1 -5
v 6 3 -5
v 6 4 -5
v -6 1 -6
v -6 3 -6
v -4 1 -6
v -4 3 -6
v 4 1 -6
v 4 3 -6
v 6 1 -6
v 6 3 -6
v -6 0 5
v -4 0 5
v 4 0 5
v 6 0 5
v -6 0 -5
v -4 0 -5
v 4 0 -5
v 6 0 -5
v -6 1 6
v -4 1 6
v 4 1 6
v 6 1 6
v -6 1 5
v -4 1 5
v -2 1 5
v 2 1 5
v 4 1 5
v 6 1 5
v -2 1 4
v -1 1 4
v 1 1 4
v 2 1 4
v -4 1 3
v -3 1 3
v 3 1 3
v 4 1 3
v -4 1 1
v -3 1 1
v 3 1 1
v 4 1 1
v -4 1 -1
v -3 1 -1
v 3 1 -1
v 4 1 -1
v -4 1 -3
v -3 1 -3
v 3 1 -3
v 4 1 -3
v -2 1 -4
v -1 1 -4
v 1 1 -4
v 2 1 -4
v -6 1 -5
v -4 1 -5
v -2 1 -5
v 2 1 -5
v 4 1 -5
v 6 1 -5
v -6 1 -6
v -4 1 -6
v 4 1 -6
v 6 1 -6
v -2 3 5
v 2 3 5
v -2 3 4
v -1 3 4
v 1 3 4
v 2 3 4
v -6 3 3
v -4 3 3
v 4 3 3
v 6 3 3
v -6 3 1
v -4 3 1
v 4 3 1
v 6 3 1
v -6 3 -1
v -4 3 -1
v 4 3 -1
v 6 3 -1
v -6 3 -3
v -4 3 -3
v 4 3 -3
v 6 3 -3
v -1 3 -4
v 1 3 -4
v -6 5 2
v -4 5 2
v 4 5 2
v 6 5 2
v -5 5 1
v -4 5 1
v 4 5 1
v 5 5 1
v -5 5 -1
v -4 5 -1
v 4 5 -1
v 5 5 -1
v -6 5 -2
v -4 5 -2
v 4 5 -2
v 6 5 -2
v -5 6 8
v -4 6 8
v 4 6 8
v 5 6 8
v -6 6 7
v -5 6 7
v 5 6 7
v 6 6 7
v -4 6 5
v 4 6 5
v -4 6 4
v 4 6 4
v -7 6 3
v -6 6 3
v 6 6 3
v 7 6 3
v -6 6 2
v -4 6 2
v 4 6 2
v 6 6 2
v -7 6 -0
v -6 6 -0
v 6 6 -0
v 7 6 -0
v -6 6 -2
v -4 6 -2
v 4 6 -2
v 6 6 -2
v -6 6 -3
v -4 6 -3
v 4 6 -3
v 6 6 -3
v -4 13 -2
v -3 13 -2
v -2 13 -2
v -1 13 -2
v 1 13 -2
v 2 13 -2
v 3 13 -2
v 4 13 -2
v -4 13 -3
v -3 13 -3
v -2 13 -3
v -1 13 -3
v 1 13 -3
v 2 13 -3
v 3 13 -3
v 4 13 -3
v -6 1 3
v -4 1 3
v 4 1 3
v 6 1 3
v -6 1 1
v -4 1 1
v 4 1 1
v 6 1 1
v -6 1 -1
v -4 1 -1
v 4 1 -1
v 6 1 -1
v -6 1 -3
v -4 1 -3
v 4 1 -3
v 6 1 -3
v -6 3 6
v -4 3 6
v 4 3 6
v 6 3 6
v -6 3 5
v -4 3 5
v 4 3 5
v 6 3 5
v -4 3 -4
v -2 3 -4
v 2 3 -4
v 4 3 -4
v -6 3 -5
v -4 3 -5
v -2 3 -5
v 2 3 -5
v 4 3 -5
v 6 3 -5
v -6 3 -6
v -4 3 -6
v 4 3 -6
v 6 3 -6
v -6 4 5
v -4 4 5
v 4 4 5
v 6 4 5
v -4 4 4
v 4 4 4
v -4 4 -4
v 4 4 -4
v -6 4 -5
v -4 4 -5
v 4 4 -5
v 6 4 -5
v -5 7 8
v -4 7 8
v 4 7 8
v 5 7 8
v -6 7 7
v -5 7 7
v 5 7 7
v 6 7 7
v -4 7 5
v -2 7 5
v 2 7 5
v 4 7 5
v -4 7 4
v -2 7 4
v 2 7 4
v 4 7 4
v -7 7 3
v -6 7 3
v 6 7 3
v 7 7 3
v -6 7 1
v -4 7 1
v 4 7 1
v 6 7 1
v -7 7 -0
v -6 7 -0
v 6 7 -0
v 7 7 -0
v -6 7 -3
v -4 7 -3
v 4 7 -3
v 6 7 -3
v -3 8 5
v -2 8 5
v 2 8 5
v 3 8 5
v -3 8 4
v -2 8 4
v 2 8 4
v 3 8 4
v -4 9 5
v -3 9 5
v 3 9 5
v 4 9 5
v -4 9 4
v -3 9 4
v 3 9 4
v 4 9 4
v -4 11 4
v 4 11 4
v -3 11 -2
v -2 11 -2
v 2 11 -2
v 3 11 -2
v -3 11 -3
v -2 11 -3
v 2 11 -3
v 3 11 -3
v -4 11 -4
v 4 11 -4
v -4 14 -2
v -3 14 -2
v -2 14 -2
v -1 14 -2
v 1 14 -2
v 2 14 -2
v 3 14 -2
v 4 14 -2
v -4 14 -3
v -3 14 -3
v -2 14 -3
v -1 14 -3
v 1 14 -3
v 2 14 -3
v 3 14 -3
v 4 14 -3
v -3 15 -2
v -2 15 -2
v 2 15 -2
v 3 15 -2
v -3 15 -3
v -2 15 -3
v 2 15 -3
v 3 15 -3

# faces
f 3/4/1 2/4/1 1/4/1
f 4/4/1 2/4/1 3/4/1
f 8/3/1 6/3/1 5/3/1
f 9/3/1 6/3/1 8/3/1
f 10/3/1 6/3/1 9/3/1
f 11/3/1 6/3/1 10/3/1
f 12/3/1 6/3/1 11/3/1
f 13/3/1 6/3/1 12/3/1
f 15/3/1 8/3/1 7/3/1
f 16/4/1 9/4/1 8/4/1
f 16/3/1 8/3/1 15/3/1
f 17/4/1 9/4/1 16/4/1
f 18/4/1 11/4/1 10/4/1
f 19/4/1 11/4/1 18/4/1
f 20/4/1 13/4/1 12/4/1
f 21/3/1 14/3/1 13/3/1
f 21/4/1 13/4/1 20/4/1
f 22/3/1 14/3/1 21/3/1
f 23/3/1 20/3/1 19/3/1
f 23/3/1 19/3/1 18/3/1
f 23/3/1 21/3/1 20/3/1
f 23/3/1 17/3/1 16/3/1
f 23/3/1 18/3/1 17/3/1
f 24/3/1 21/3/1 23/3/1
f 29/3/1 26/3/1 25/3/1
f 30/3/1 26/3/1 29/3/1
f 31/3/1 26/3/1 30/3/1
f 33/5/1 28/5/1 27/5/1
f 34/5/1 28/5/1 33/5/1
f 35/4/1 32/4/1 31/4/1
f 35/4/1 31/4/1 30/4/1
f 36/4/1 32/4/1 35/4/1
f 39/5/1 38/5/1 37/5/1
f 40/5/1 38/5/1 39/5/1
f 45/2/1 42/2/1 41/2/1
f 46/2/1 42/2/1 45/2/1
f 47/2/1 44/2/1 43/2/1
f 48/2/1 44/2/1 47/2/1
f 52/1/1 51/1/1 50/1/1
f 53/1/1 51/1/1 52/1/1
f 54/1/1 51/1/1 53/1/1
f 55/1/1 51/1/1 54/1/1
f 56/3/1 50/3/1 49/3/1
f 57/1/1 52/1/1 50/1/1
f 57/3/1 50/3/1 56/3/1
f 58/1/1 52/1/1 57/1/1
f 59/1/1 51/1/1 55/1/1
f 60/1/1 51/1/1 59/1/1
f 64/1/1 51/1/1 60/1/1
f 65/3/1 62/3/1 61/3/1
f 66/1/1 63/1/1 62/1/1
f 66/3/1 62/3/1 65/3/1
f 66/1/1 64/1/1 63/1/1
f 67/1/1 51/1/1 64/1/1
f 67/1/1 64/1/1 66/1/1
f 68/3/1 67/3/1 66/3/1
f 69/3/1 67/3/1 68/3/1
f 72/3/1 71/3/1 70/3/1
f 73/3/1 71/3/1 72/3/1
f 76/3/1 75/3/1 74/3/1
f 77/3/1 75/3/1 76/3/1
f 80/3/1 79/3/1 78/3/1
f 81/3/1 79/3/1 80/3/1
f 84/4/1 83/4/1 82/4/1
f 85/4/1 83/4/1 84/4/1
f 88/3/1 87/3/1 86/3/1
f 89/3/1 87/3/1 88/3/1
f 94/4/1 91/4/1 90/4/1
f 95/4/1 91/4/1 94/4/1
f 96/4/1 93/4/1 92/4/1
f 97/4/1 93/4/1 96/4/1
f 100/3/1 99/3/1 98/3/1
f 101/3/1 99/3/1 100/3/1
f 104/3/1 103/3/1 102/3/1
f 105/3/1 103/3/1 104/3/1
f 108/3/1 107/3/1 106/3/1
f 109/3/1 107/3/1 108/3/1
f 112/3/1 111/3/1 110/3/1
f 113/3/1 111/3/1 112/3/1
f 117/3/1 115/3/1 114/3/1
f 118/3/1 115/3/1 117/3/1
f 119/3/1 115/3/1 118/3/1
f 120/3/1 115/3/1 119/3/1
f 121/3/1 115/3/1 120/3/1
f 122/3/1 115/3/1 121/3/1
f 124/3/1 117/3/1 116/3/1
f 125/3/1 117/3/1 124/3/1
f 127/3/1 123/3/1 122/3/1
f 128/3/1 123/3/1 127/3/1
f 129/3/1 127/3/1 126/3/1
f 130/3/1 127/3/1 129/3/1
f 133/5/1 132/5/1 131/5/1
f 134/5/1 132/5/1 133/5/1
f 135/3/2 136/3/2 138/3/2
f 138/3/2 136/3/2 139/3/2
f 139/3/2 136/3/2 140/3/2
f 140/3/2 136/3/2 141/3/2
f 141/3/2 136/3/2 142/3/2
f 142/3/2 136/3/2 143/3/2
f 137/3/2 138/3/2 145/3/2
f 145/3/2 138/3/2 146/3/2
f 143/3/2 144/3/2 148/3/2
f 148/3/2 144/3/2 149/3/2
f 147/3/2 148/3/2 150/3/2
f 150/3/2 148/3/2 151/3/2
f 152/5/2 153/5/2 154/5/2
f 154/5/2 153/5/2 155/5/2
f 156/3/2 157/3/2 158/3/2
f 158/3/2 157/3/2 159/3/2
f 160/4/2 161/4/2 164/4/2
f 164/4/2 161/4/2 165/4/2
f 162/4/2 163/4/2 166/4/2
f 166/4/2 163/4/2 167/4/2
f 168/3/2 169/3/2 170/3/2
f 170/3/2 169/3/2 171/3/2
f 172/3/2 173/3/2 174/3/2
f 174/3/2 173/3/2 175/3/2
f 176/3/2 177/3/2 178/3/2
f 178/3/2 177/3/2 179/3/2
f 180/4/2 181/4/2 182/4/2
f 182/4/2 181/4/2 183/4/2
f 184/3/2 185/3/2 186/3/2
f 186/3/2 185/3/2 187/3/2
f 188/3/2 189/3/2 190/3/2
f 190/3/2 189/3/2 191/3/2
f 192/3/2 193/3/2 194/3/2
f 194/3/2 193/3/2 195/3/2
f 196/2/2 197/2/2 200/2/2
f 200/2/2 197/2/2 201/2/2
f 198/2/2 199/2/2 202/2/2
f 202/2/2 199/2/2 203/2/2
f 205/1/2 206/1/2 207/1/2
f 207/1/2 206/1/2 208/1/2
f 208/1/2 206/1/2 209/1/2
f 209/1/2 206/1/2 210/1/2
f 204/3/2 205/3/2 211/3/2
f 205/1/2 207/1/2 212/1/2
f 211/3/2 205/3/2 212/3/2
f 212/1/2 207/1/2 213/1/2
f 210/1/2 206/1/2 214/1/2
f 214/1/2 206/1/2 215/1/2
f 215/1/2 206/1/2 219/1/2
f 216/3/2 217/3/2 220/3/2
f 217/1/2 218/1/2 221/1/2
f 220/3/2 217/3/2 221/3/2
f 218/1/2 219/1/2 221/1/2
f 219/1/2 206/1/2 222/1/2
f 221/1/2 219/1/2 222/1/2
f 221/3/2 222/3/2 223/3/2
f 223/3/2 222/3/2 224/3/2
f 225/3/2 226/3/2 227/3/2
f 227/3/2 226/3/2 228/3/2
f 229/5/2 230/5/2 231/5/2
f 231/5/2 230/5/2 232/5/2
f 233/3/2 234/3/2 236/3/2
f 236/3/2 234/3/2 237/3/2
f 237/3/2 234/3/2 238/3/2
f 238/3/2 234/3/2 239/3/2
f 239/3/2 234/3/2 240/3/2
f 240/3/2 234/3/2 241/3/2
f 235/3/2 236/3/2 243/3/2
f 236/4/2 237/4/2 244/4/2
f 243/3/2 236/3/2 244/3/2
f 244/4/2 237/4/2 245/4/2
f 238/4/2 239/4/2 246/4/2
f 246/4/2 239/4/2 247/4/2
f 240/4/2 241/4/2 248/4/2
f 241/3/2 242/3/2 249/3/2
f 248/4/2 241/4/2 249/4/2
f 249/3/2 242/3/2 250/3/2
f 247/3/2 248/3/2 251/3/2
f 246/3/2 247/3/2 251/3/2
f 248/3/2 249/3/2 251/3/2
f 244/3/2 245/3/2 251/3/2
f 245/3/2 246/3/2 251/3/2
f 251/3/2 249/3/2 252/3/2
f 253/3/2 254/3/2 257/3/2
f 257/3/2 254/3/2 258/3/2
f 258/3/2 254/3/2 259/3/2
f 255/5/2 256/5/2 261/5/2
f 261/5/2 256/5/2 262/5/2
f 259/4/2 260/4/2 263/4/2
f 258/4/2 259/4/2 263/4/2
f 263/4/2 260/4/2 264/4/2
f 265/4/2 266/4/2 267/4/2
f 267/4/2 266/4/2 268/4/2
f 271/5/3 270/5/3 269/5/3
f 272/5/3 270/5/3 271/5/3
f 275/5/3 274/5/3 273/5/3
f 276/5/3 274/5/3 275/5/3
f 279/5/3 278/5/3 277/5/3
f 280/5/3 278/5/3 279/5/3
f 283/5/3 282/5/3 281/5/3
f 284/5/3 282/5/3 283/5/3
f 287/3/3 286/3/3 285/3/3
f 288/3/3 286/3/3 287/3/3
f 291/3/3 290/3/3 289/3/3
f 292/3/3 290/3/3 291/3/3
f 297/3/3 294/3/3 293/3/3
f 298/3/3 294/3/3 297/3/3
f 299/3/3 296/3/3 295/3/3
f 300/3/3 296/3/3 299/3/3
f 304/3/3 303/3/3 302/3/3
f 304/3/3 302/3/3 301/3/3
f 304/3/3 301/3/3 300/3/3
f 304/3/3 300/3/3 299/3/3
f 305/3/3 303/3/3 304/3/3
f 306/4/3 299/4/3 298/4/3
f 307/3/3 304/3/3 299/3/3
f 307/4/3 299/4/3 306/4/3
f 308/3/3 304/3/3 307/3/3
f 309/3/3 304/3/3 308/3/3
f 311/3/3 308/3/3 307/3/3
f 312/3/3 308/3/3 311/3/3
f 314/3/3 312/3/3 311/3/3
f 314/3/3 313/3/3 312/3/3
f 317/4/3 311/4/3 310/4/3
f 318/3/3 314/3/3 311/3/3
f 318/3/3 315/3/3 314/3/3
f 318/4/3 311/4/3 317/4/3
f 319/3/3 315/3/3 318/3/3
f 320/3/3 315/3/3 319/3/3
f 321/3/3 315/3/3 320/3/3
f 322/3/3 315/3/3 321/3/3
f 323/3/3 317/3/3 316/3/3
f 324/3/3 317/3/3 323/3/3
f 325/3/3 319/3/3 318/3/3
f 326/3/3 319/3/3 325/3/3
f 330/3/3 328/3/3 327/3/3
f 331/3/3 328/3/3 330/3/3
f 335/2/3 330/2/3 329/2/3
f 335/2/3 331/2/3 330/2/3
f 336/4/3 333/4/3 332/4/3
f 337/4/3 333/4/3 336/4/3
f 340/4/3 339/4/3 338/4/3
f 341/4/3 339/4/3 340/4/3
f 342/2/3 335/2/3 334/2/3
f 343/2/3 331/2/3 335/2/3
f 343/2/3 335/2/3 342/2/3
f 344/2/3 331/2/3 343/2/3
f 345/2/3 331/2/3 344/2/3
f 346/3/3 328/3/3 331/3/3
f 346/2/3 331/2/3 345/2/3
f 347/3/3 346/3/3 345/3/3
f 348/3/3 328/3/3 346/3/3
f 348/3/3 346/3/3 347/3/3
f 351/4/3 350/4/3 349/4/3
f 352/4/3 350/4/3 351/4/3
f 355/4/3 354/4/3 353/4/3
f 356/4/3 354/4/3 355/4/3
f 359/3/3 358/3/3 357/3/3
f 360/3/3 358/3/3 359/3/3
f 363/3/3 362/3/3 361/3/3
f 364/3/3 362/3/3 363/3/3
f 367/4/3 366/4/3 365/4/3
f 368/4/3 366/4/3 367/4/3
f 371/4/3 370/4/3 369/4/3
f 372/4/3 370/4/3 371/4/3
f 376/3/3 374/3/3 373/3/3
f 377/3/3 374/3/3 376/3/3
f 379/3/3 376/3/3 375/3/3
f 379/3/3 378/3/3 377/3/3
f 379/3/3 377/3/3 376/3/3
f 380/3/3 378/3/3 379/3/3
f 381/3/3 378/3/3 380/3/3
f 382/3/3 378/3/3 381/3/3
f 383/3/3 381/3/3 380/3/3
f 384/3/3 381/3/3 383/3/3
f 388/3/3 386/3/3 385/3/3
f 389/3/3 386/3/3 388/3/3
f 391/3/3 389/3/3 388/3/3
f 391/3/3 390/3/3 389/3/3
f 391/3/3 388/3/3 387/3/3
f 392/3/3 390/3/3 391/3/3
f 393/3/3 390/3/3 392/3/3
f 394/3/3 390/3/3 393/3/3
f 395/3/3 393/3/3 392/3/3
f 396/3/3 393/3/3 395/3/3
f 399/4/3 398/4/3 397/4/3
f 400/4/3 398/4/3 399/4/3
f 403/4/3 402/4/3 401/4/3
f 404/4/3 402/4/3 403/4/3
f 405/4/4 406/4/4 407/4/4
f 407/4/4 406/4/4 408/4/4
f 409/4/4 410/4/4 411/4/4
f 411/4/4 410/4/4 412/4/4
f 413/4/4 414/4/4 415/4/4
f 415/4/4 414/4/4 416/4/4
f 417/4/4 418/4/4 419/4/4
f 419/4/4 418/4/4 420/4/4
f 421/4/4 422/4/4 423/4/4
f 423/4/4 422/4/4 424/4/4
f 425/4/4 426/4/4 427/4/4
f 427/4/4 426/4/4 428/4/4
f 429/3/4 430/3/4 431/3/4
f 431/3/4 430/3/4 432/3/4
f 433/3/4 434/3/4 435/3/4
f 435/3/4 434/3/4 436/3/4
f 437/4/4 438/4/4 439/4/4
f 439/4/4 438/4/4 440/4/4
f 441/3/4 442/3/4 444/3/4
f 444/3/4 442/3/4 445/3/4
f 443/3/4 444/3/4 447/3/4
f 445/3/4 446/3/4 447/3/4
f 444/3/4 445/3/4 447/3/4
f 447/3/4 446/3/4 448/3/4
f 448/3/4 446/3/4 449/3/4
f 449/3/4 446/3/4 450/3/4
f 448/3/4 449/3/4 451/3/4
f 451/3/4 449/3/4 452/3/4
f 453/3/4 454/3/4 456/3/4
f 456/3/4 454/3/4 457/3/4
f 456/3/4 457/3/4 459/3/4
f 457/3/4 458/3/4 459/3/4
f 455/3/4 456/3/4 459/3/4
f 459/3/4 458/3/4 460/3/4
f 460/3/4 458/3/4 461/3/4
f 461/3/4 458/3/4 462/3/4
f 460/3/4 461/3/4 465/3/4
f 465/3/4 461/3/4 466/3/4
f 463/4/4 464/4/4 467/4/4
f 467/4/4 464/4/4 468/4/4
f 469/1/4 470/1/4 473/1/4
f 470/1/4 471/1/4 473/1/4
f 473/1/4 471/1/4 474/1/4
f 474/1/4 471/1/4 475/1/4
f 475/1/4 471/1/4 476/1/4
f 469/1/4 473/1/4 478/1/4
f 473/3/4 474/3/4 479/3/4
f 478/1/4 473/1/4 479/1/4
f 474/1/4 475/1/4 480/1/4
f 479/3/4 474/3/4 480/3/4
f 475/3/4 476/3/4 481/3/4
f 480/1/4 475/1/4 481/1/4
f 476/1/4 471/1/4 482/1/4
f 481/3/4 476/3/4 482/3/4
f 471/3/4 472/3/4 483/3/4
f 482/1/4 471/1/4 483/1/4
f 483/3/4 472/3/4 484/3/4
f 477/4/4 478/4/4 485/4/4
f 481/1/4 482/1/4 486/1/4
f 485/4/4 478/4/4 486/4/4
f 480/1/4 481/1/4 486/1/4
f 483/1/4 484/1/4 486/1/4
f 482/1/4 483/1/4 486/1/4
f 478/1/4 479/1/4 486/1/4
f 479/1/4 480/1/4 486/1/4
f 486/1/4 484/1/4 487/1/4
f 487/1/4 484/1/4 488/1/4
f 488/1/4 484/1/4 489/1/4
f 484/3/4 472/3/4 490/3/4
f 489/1/4 484/1/4 490/1/4
f 486/1/4 487/1/4 492/1/4
f 487/3/4 488/3/4 493/3/4
f 492/1/4 487/1/4 493/1/4
f 488/1/4 489/1/4 494/1/4
f 493/3/4 488/3/4 494/3/4
f 489/3/4 490/3/4 495/3/4
f 494/1/4 489/1/4 495/1/4
f 490/3/4 472/3/4 496/3/4
f 495/3/4 490/3/4 496/3/4
f 491/4/4 492/4/4 497/4/4
f 492/1/4 493/1/4 498/1/4
f 497/4/4 492/4/4 498/4/4
f 494/1/4 495/1/4 498/1/4
f 495/1/4 496/1/4 498/1/4
f 493/1/4 494/1/4 498/1/4
f 498/1/4 496/1/4 499/1/4
f 499/1/4 496/1/4 500/1/4
f 500/1/4 496/1/4 501/1/4
f 501/1/4 496/1/4 502/1/4
f 502/1/4 496/1/4 503/1/4
f 496/3/4 472/3/4 504/3/4
f 503/1/4 496/1/4 504/1/4
f 498/1/4 499/1/4 505/1/4
f 499/3/4 500/3/4 505/3/4
f 500/1/4 501/1/4 506/1/4
f 505/3/4 500/3/4 506/3/4
f 501/3/4 502/3/4 507/3/4
f 506/1/4 501/1/4 507/1/4
f 502/1/4 503/1/4 508/1/4
f 507/3/4 502/3/4 508/3/4
f 506/1/4 507/1/4 509/1/4
f 505/1/4 506/1/4 509/1/4
f 507/1/4 508/1/4 509/1/4
f 498/1/4 505/1/4 509/1/4
f 509/1/4 508/1/4 510/1/4
f 508/1/4 503/1/4 511/1/4
f 510/1/4 508/1/4 511/1/4
f 503/3/4 504/3/4 511/3/4
f 504/3/4 472/3/4 512/3/4
f 511/3/4 504/3/4 512/3/4
f 513/3/4 514/3/4 517/3/4
f 517/3/4 514/3/4 518/3/4
f 515/3/4 516/3/4 519/3/4
f 519/3/4 516/3/4 520/3/4
f 518/4/4 519/4/4 521/4/4
f 521/4/4 519/4/4 522/4/4
f 523/4/4 524/4/4 526/4/4
f 526/4/4 524/4/4 527/4/4
f 525/3/4 526/3/4 529/3/4
f 529/3/4 526/3/4 530/3/4
f 527/3/4 528/3/4 531/3/4
f 531/3/4 528/3/4 532/3/4
f 533/3/4 534/3/4 535/3/4
f 535/3/4 534/3/4 536/3/4
f 537/3/4 538/3/4 539/3/4
f 539/3/4 538/3/4 540/3/4
f 545/3/5 542/3/5 541/3/5
f 546/3/5 542/3/5 545/3/5
f 547/3/5 544/3/5 543/3/5
f 548/3/5 544/3/5 547/3/5
f 553/3/5 550/3/5 549/3/5
f 554/3/5 550/3/5 553/3/5
f 557/3/5 552/3/5 551/3/5
f 558/3/5 552/3/5 557/3/5
f 559/4/5 555/4/5 554/4/5
f 562/4/5 557/4/5 556/4/5
f 563/4/5 560/4/5 559/4/5
f 563/4/5 559/4/5 554/4/5
f 564/4/5 560/4/5 563/4/5
f 565/4/5 562/4/5 561/4/5
f 565/4/5 557/4/5 562/4/5
f 566/4/5 557/4/5 565/4/5
f 567/2/5 564/2/5 563/2/5
f 568/4/5 560/4/5 564/4/5
f 568/2/5 564/2/5 567/2/5
f 569/4/5 565/4/5 561/4/5
f 569/2/5 566/2/5 565/2/5
f 570/2/5 566/2/5 569/2/5
f 571/4/5 568/4/5 567/4/5
f 572/4/5 560/4/5 568/4/5
f 572/4/5 568/4/5 571/4/5
f 573/4/5 569/4/5 561/4/5
f 573/4/5 570/4/5 569/4/5
f 574/4/5 570/4/5 573/4/5
f 575/2/5 572/2/5 571/2/5
f 576/4/5 560/4/5 572/4/5
f 576/2/5 572/2/5 575/2/5
f 577/4/5 573/4/5 561/4/5
f 577/2/5 574/2/5 573/2/5
f 578/2/5 574/2/5 577/2/5
f 579/4/5 560/4/5 576/4/5
f 579/4/5 576/4/5 575/4/5
f 580/4/5 560/4/5 579/4/5
f 581/4/5 578/4/5 577/4/5
f 581/4/5 577/4/5 561/4/5
f 582/4/5 578/4/5 581/4/5
f 584/4/5 579/4/5 575/4/5
f 585/4/5 579/4/5 584/4/5
f 586/4/5 578/4/5 582/4/5
f 587/4/5 578/4/5 586/4/5
f 589/3/5 584/3/5 583/3/5
f 590/3/5 584/3/5 589/3/5
f 591/3/5 588/3/5 587/3/5
f 592/3/5 588/3/5 591/3/5
f 595/3/5 594/3/5 593/3/5
f 596/3/5 594/3/5 595/3/5
f 597/3/5 594/3/5 596/3/5
f 598/3/5 594/3/5 597/3/5
f 603/3/5 600/3/5 599/3/5
f 604/3/5 600/3/5 603/3/5
f 605/3/5 602/3/5 601/3/5
f 606/3/5 602/3/5 605/3/5
f 611/3/5 608/3/5 607/3/5
f 612/3/5 608/3/5 611/3/5
f 613/3/5 610/3/5 609/3/5
f 614/3/5 610/3/5 613/3/5
f 615/1/5 597/1/5 596/1/5
f 616/1/5 597/1/5 615/1/5
f 621/3/5 618/3/5 617/3/5
f 622/3/5 618/3/5 621/3/5
f 623/3/5 620/3/5 619/3/5
f 624/3/5 620/3/5 623/3/5
f 625/4/5 622/4/5 621/4/5
f 625/3/5 621/3/5 617/3/5
f 626/4/5 622/4/5 625/4/5
f 627/4/5 624/4/5 623/4/5
f 628/3/5 620/3/5 624/3/5
f 628/4/5 624/4/5 627/4/5
f 629/3/5 626/3/5 625/3/5
f 629/3/5 625/3/5 617/3/5
f 630/3/5 626/3/5 629/3/5
f 631/3/5 628/3/5 627/3/5
f 632/3/5 620/3/5 628/3/5
f 632/3/5 628/3/5 631/3/5
f 638/5/5 634/5/5 633/5/5
f 639/5/5 636/5/5 635/5/5
f 641/5/5 638/5/5 637/5/5
f 641/5/5 634/5/5 638/5/5
f 642/5/5 640/5/5 639/5/5
f 642/5/5 639/5/5 635/5/5
f 643/5/5 641/5/5 637/5/5
f 644/5/5 640/5/5 642/5/5
f 646/5/5 643/5/5 637/5/5
f 647/5/5 640/5/5 644/5/5
f 649/4/5 646/4/5 645/4/5
f 649/5/5 643/5/5 646/5/5
f 650/5/5 643/5/5 649/5/5
f 651/5/5 647/5/5 644/5/5
f 652/4/5 648/4/5 647/4/5
f 652/5/5 647/5/5 651/5/5
f 653/4/5 649/4/5 645/4/5
f 654/4/5 649/4/5 653/4/5
f 655/4/5 648/4/5 652/4/5
f 656/4/5 648/4/5 655/4/5
f 661/4/5 658/4/5 657/4/5
f 662/4/5 658/4/5 661/4/5
f 663/4/5 660/4/5 659/4/5
f 664/4/5 660/4/5 663/4/5
f 673/3/5 666/3/5 665/3/5
f 674/3/5 666/3/5 673/3/5
f 675/3/5 668/3/5 667/3/5
f 676/3/5 668/3/5 675/3/5
f 677/3/5 670/3/5 669/3/5
f 678/3/5 670/3/5 677/3/5
f 679/3/5 672/3/5 671/3/5
f 680/3/5 672/3/5 679/3/5
f 681/3/6 682/3/6 685/3/6
f 685/3/6 682/3/6 686/3/6
f 683/3/6 684/3/6 687/3/6
f 687/3/6 684/3/6 688/3/6
f 689/3/6 690/3/6 693/3/6
f 693/3/6 690/3/6 694/3/6
f 691/3/6 692/3/6 695/3/6
f 695/3/6 692/3/6 696/3/6
f 697/3/6 698/3/6 701/3/6
f 701/3/6 698/3/6 702/3/6
f 699/3/6 700/3/6 703/3/6
f 703/3/6 700/3/6 704/3/6
f 705/4/6 706/4/6 710/4/6
f 710/4/6 706/4/6 711/4/6
f 707/4/6 708/4/6 712/4/6
f 712/4/6 708/4/6 713/4/6
f 709/3/6 710/3/6 715/3/6
f 715/3/6 710/3/6 716/3/6
f 713/3/6 714/3/6 717/3/6
f 717/3/6 714/3/6 718/3/6
f 719/3/6 720/3/6 723/3/6
f 721/3/6 722/3/6 724/3/6
f 719/3/6 723/3/6 725/3/6
f 724/3/6 722/3/6 726/3/6
f 719/3/6 725/3/6 727/3/6
f 727/3/6 725/3/6 728/3/6
f 726/3/6 722/3/6 729/3/6
f 729/3/6 722/3/6 730/3/6
f 731/5/6 732/5/6 736/5/6
f 733/5/6 734/5/6 737/5/6
f 735/5/6 736/5/6 739/5/6
f 736/5/6 732/5/6 739/5/6
f 737/5/6 738/5/6 742/5/6
f 733/5/6 737/5/6 742/5/6
f 735/5/6 739/5/6 743/5/6
f 740/3/6 741/3/6 744/3/6
f 744/3/6 741/3/6 745/3/6
f 742/5/6 738/5/6 746/5/6
f 735/5/6 743/5/6 748/5/6
f 746/5/6 738/5/6 749/5/6
f 747/4/6 748/4/6 751/4/6
f 748/5/6 743/5/6 751/5/6
f 751/5/6 743/5/6 752/5/6
f 746/5/6 749/5/6 753/5/6
f 749/4/6 750/4/6 754/4/6
f 753/5/6 749/5/6 754/5/6
f 751/4/6 752/4/6 755/4/6
f 747/4/6 751/4/6 755/4/6
f 755/4/6 752/4/6 756/4/6
f 754/4/6 750/4/6 757/4/6
f 753/4/6 754/4/6 757/4/6
f 757/4/6 750/4/6 758/4/6
f 756/4/6 752/4/6 759/4/6
f 759/4/6 752/4/6 760/4/6
f 753/4/6 757/4/6 761/4/6
f 761/4/6 757/4/6 762/4/6
f 763/3/6 764/3/6 767/3/6
f 767/3/6 764/3/6 768/3/6
f 765/3/6 766/3/6 769/3/6
f 769/3/6 766/3/6 770/3/6
f 771/3/6 772/3/6 775/3/6
f 775/3/6 772/3/6 776/3/6
f 773/3/6 774/3/6 777/3/6
f 777/3/6 774/3/6 778/3/6
f 779/3/6 780/3/6 781/3/6
f 781/3/6 780/3/6 782/3/6
f 782/3/6 780/3/6 783/3/6
f 783/3/6 780/3/6 784/3/6
f 779/3/6 781/3/6 785/3/6
f 782/3/6 783/3/6 786/3/6
f 786/3/6 783/3/6 787/3/6
f 784/3/6 780/3/6 788/3/6
f 786/3/6 787/3/6 789/3/6
f 787/3/6 788/3/6 789/3/6
f 779/3/6 785/3/6 789/3/6
f 785/3/6 786/3/6 789/3/6
f 788/3/6 780/3/6 790/3/6
f 789/3/6 788/3/6 790/3/6
f 791/3/6 792/3/6 799/3/6
f 799/3/6 792/3/6 800/3/6
f 793/3/6 794/3/6 801/3/6
f 801/3/6 794/3/6 802/3/6
f 795/3/6 796/3/6 803/3/6
f 803/3/6 796/3/6 804/3/6
f 797/3/6 798/3/6 805/3/6
f 805/3/6 798/3/6 806/3/6
f 807/3/6 808/3/6 811/3/6
f 811/3/6 808/3/6 812/3/6
f 809/3/6 810/3/6 813/3/6
f 813/3/6 810/3/6 814/3/6
