# MagicaVoxel @ Ephtracy

# group
g Blue-13

# material
mtllib Blue-13.mtl
usemtl palette

# normals
vn -1 0 0
vn 1 0 0
vn 0 0 1
vn 0 0 -1
vn 0 -1 0
vn 0 1 0

# texcoords
vt 0.00195313 0.5
vt 0.0332031 0.5
vt 0.0371094 0.5
vt 0.0410156 0.5
vt 0.0449219 0.5

# verts
v -6 0 5
v -6 0 -5
v -6 1 6
v -6 1 5
v -6 1 3
v -6 1 1
v -6 1 -1
v -6 1 -3
v -6 1 -5
v -6 1 -6
v -6 3 6
v -6 3 5
v -6 3 3
v -6 3 1
v -6 3 -1
v -6 3 -3
v -6 3 -5
v -6 3 -6
v -6 4 5
v -6 4 -5
v -6 5 6
v -6 5 -1
v -6 5 -3
v -6 6 8
v -6 6 6
v -6 6 -1
v -6 7 8
v -6 7 6
v -6 7 4
v -6 7 -1
v -6 8 6
v -6 8 4
v -6 9 -1
v -6 9 -3
v -4 1 3
v -4 1 1
v -4 1 -1
v -4 1 -3
v -4 3 3
v -4 3 1
v -4 3 -1
v -4 3 -3
v -4 4 4
v -4 4 3
v -4 4 -4
v -4 5 4
v -4 5 3
v -4 5 -1
v -4 5 -3
v -4 6 7
v -4 6 6
v -4 7 7
v -4 7 6
v -4 7 4
v -4 7 -1
v -4 8 4
v -4 8 -1
v -4 8 -3
v -4 8 -4
v -4 9 -1
v -4 9 -3
v -4 10 4
v -4 10 -4
v -4 11 4
v -4 11 -4
v -4 13 -2
v -4 13 -3
v -4 14 -2
v -4 14 -3
v -3 4 -4
v -3 4 -6
v -3 8 -4
v -3 10 -4
v -3 10 -6
v -3 11 -2
v -3 11 -3
v -3 13 -2
v -3 13 -3
v -3 14 -2
v -3 14 -3
v -3 15 -2
v -3 15 -3
v 1 1 4
v 1 1 -4
v 1 3 4
v 1 3 -4
v 1 13 -2
v 1 13 -3
v 1 14 -2
v 1 14 -3
v 2 1 5
v 2 1 4
v 2 1 -4
v 2 1 -5
v 2 3 5
v 2 3 4
v 2 3 -4
v 2 3 -5
v 2 11 -2
v 2 11 -3
v 2 13 -2
v 2 13 -3
v 2 14 -2
v 2 14 -3
v 2 15 -2
v 2 15 -3
v 3 5 8
v 3 5 5
v 3 7 8
v 3 7 5
v 4 0 5
v 4 0 -5
v 4 1 6
v 4 1 5
v 4 1 3
v 4 1 1
v 4 1 -1
v 4 1 -3
v 4 1 -5
v 4 1 -6
v 4 3 6
v 4 3 5
v 4 3 4
v 4 3 -4
v 4 3 -5
v 4 3 -6
v 4 4 5
v 4 4 4
v 4 4 -4
v 4 4 -5
v 4 5 5
v 4 5 4
v 4 6 4
v 4 7 5
v 4 7 4
v 6 5 8
v 6 5 6
v 6 7 8
v 6 7 6
v -5 6 8
v -5 6 6
v -5 7 8
v -5 7 6
v -5 7 4
v -5 8 6
v -5 8 4
v -4 0 5
v -4 0 -5
v -4 1 6
v -4 1 5
v -4 1 3
v -4 1 1
v -4 1 -1
v -4 1 -3
v -4 1 -5
v -4 1 -6
v -4 3 6
v -4 3 5
v -4 3 4
v -4 3 -4
v -4 3 -5
v -4 3 -6
v -4 4 5
v -4 4 4
v -4 4 -4
v -4 4 -5
v -4 5 6
v -4 5 4
v -4 6 6
v -4 6 5
v -4 6 4
v -4 7 5
v -4 7 4
v -3 6 7
v -3 6 5
v -3 7 7
v -3 7 5
v -2 1 5
v -2 1 4
v -2 1 -4
v -2 1 -5
v -2 3 5
v -2 3 4
v -2 3 -4
v -2 3 -5
v -2 11 -2
v -2 11 -3
v -2 13 -2
v -2 13 -3
v -2 14 -2
v -2 14 -3
v -2 15 -2
v -2 15 -3
v -1 1 4
v -1 1 -4
v -1 3 4
v -1 3 -4
v -1 13 -2
v -1 13 -3
v -1 14 -2
v -1 14 -3
v 3 4 -4
v 3 4 -6
v 3 8 -4
v 3 10 -4
v 3 10 -6
v 3 11 -2
v 3 11 -3
v 3 13 -2
v 3 13 -3
v 3 14 -2
v 3 14 -3
v 3 15 -2
v 3 15 -3
v 4 1 3
v 4 1 1
v 4 1 -1
v 4 1 -3
v 4 3 3
v 4 3 1
v 4 3 -1
v 4 3 -3
v 4 4 4
v 4 4 3
v 4 4 -4
v 4 5 8
v 4 5 6
v 4 5 4
v 4 5 3
v 4 5 -1
v 4 7 8
v 4 7 6
v 4 7 4
v 4 7 -1
v 4 8 4
v 4 8 -4
v 4 10 4
v 4 10 -4
v 4 11 4
v 4 11 -4
v 4 13 -2
v 4 13 -3
v 4 14 -2
v 4 14 -3
v 6 0 5
v 6 0 -5
v 6 1 6
v 6 1 5
v 6 1 3
v 6 1 1
v 6 1 -1
v 6 1 -3
v 6 1 -5
v 6 1 -6
v 6 3 6
v 6 3 5
v 6 3 3
v 6 3 1
v 6 3 -1
v 6 3 -3
v 6 3 -5
v 6 3 -6
v 6 4 5
v 6 4 -5
v 6 5 5
v 6 5 -1
v 6 7 5
v 6 7 -1
v 7 5 8
v 7 5 5
v 7 7 8
v 7 7 5
v -6 6 8
v -6 7 8
v -5 6 8
v -5 7 8
v 3 5 8
v 3 7 8
v 4 5 8
v 4 7 8
v 6 5 8
v 6 7 8
v 7 5 8
v 7 7 8
v -4 6 7
v -4 7 7
v -3 6 7
v -3 7 7
v -6 1 6
v -6 3 6
v -6 5 6
v -6 6 6
v -6 7 6
v -6 8 6
v -5 6 6
v -5 7 6
v -5 8 6
v -4 1 6
v -4 3 6
v -4 5 6
v -4 6 6
v -4 7 6
v 4 1 6
v 4 3 6
v 4 5 6
v 4 7 6
v 6 1 6
v 6 3 6
v 6 5 6
v 6 7 6
v -6 0 5
v -6 1 5
v -6 3 5
v -6 4 5
v -4 0 5
v -4 1 5
v -4 3 5
v -4 4 5
v -2 1 5
v -2 3 5
v 2 1 5
v 2 3 5
v 4 0 5
v 4 1 5
v 4 3 5
v 4 4 5
v 6 0 5
v 6 1 5
v 6 3 5
v 6 4 5
v -4 3 4
v -4 4 4
v -4 5 4
v -4 6 4
v -4 7 4
v -4 8 4
v -4 10 4
v -4 11 4
v -3 8 4
v -3 10 4
v -2 1 4
v -2 3 4
v -2 7 4
v -2 8 4
v -1 1 4
v -1 3 4
v 1 1 4
v 1 3 4
v 2 1 4
v 2 3 4
v 2 7 4
v 2 8 4
v 3 8 4
v 3 10 4
v 4 3 4
v 4 4 4
v 4 5 4
v 4 6 4
v 4 7 4
v 4 8 4
v 4 10 4
v 4 11 4
v -6 1 1
v -6 3 1
v -4 1 1
v -4 3 1
v 4 1 1
v 4 3 1
v 6 1 1
v 6 3 1
v -6 7 -1
v -6 9 -1
v -5 7 -1
v -4 7 -1
v -4 8 -1
v -4 9 -1
v -4 13 -2
v -4 14 -2
v -3 11 -2
v -3 13 -2
v -3 14 -2
v -3 15 -2
v -2 11 -2
v -2 13 -2
v -2 14 -2
v -2 15 -2
v -1 13 -2
v -1 14 -2
v 1 13 -2
v 1 14 -2
v 2 11 -2
v 2 13 -2
v 2 14 -2
v 2 15 -2
v 3 11 -2
v 3 13 -2
v 3 14 -2
v 3 15 -2
v 4 13 -2
v 4 14 -2
v -6 1 -3
v -6 3 -3
v -4 1 -3
v -4 3 -3
v 4 1 -3
v 4 3 -3
v 6 1 -3
v 6 3 -3
v -4 6 5
v -4 7 5
v -3 6 5
v -3 7 5
v 3 5 5
v 3 7 5
v 4 5 5
v 4 7 5
v 6 5 5
v 6 7 5
v 7 5 5
v 7 7 5
v -6 7 4
v -6 8 4
v -5 7 4
v -5 8 4
v -6 1 3
v -6 3 3
v -4 1 3
v -4 3 3
v 4 1 3
v 4 3 3
v 6 1 3
v 6 3 3
v -6 1 -1
v -6 3 -1
v -4 1 -1
v -4 3 -1
v 4 1 -1
v 4 3 -1
v 4 5 -1
v 4 7 -1
v 6 1 -1
v 6 3 -1
v 6 5 -1
v 6 7 -1
v -6 5 -3
v -6 9 -3
v -4 5 -3
v -4 8 -3
v -4 9 -3
v -4 13 -3
v -4 14 -3
v -3 11 -3
v -3 13 -3
v -3 14 -3
v -3 15 -3
v -2 11 -3
v -2 13 -3
v -2 14 -3
v -2 15 -3
v -1 13 -3
v -1 14 -3
v 1 13 -3
v 1 14 -3
v 2 11 -3
v 2 13 -3
v 2 14 -3
v 2 15 -3
v 3 11 -3
v 3 13 -3
v 3 14 -3
v 3 15 -3
v 4 13 -3
v 4 14 -3
v -4 3 -4
v -4 4 -4
v -4 8 -4
v -4 10 -4
v -4 11 -4
v -3 4 -4
v -3 8 -4
v -3 10 -4
v -2 1 -4
v -2 3 -4
v -1 1 -4
v -1 3 -4
v 1 1 -4
v 1 3 -4
v 2 1 -4
v 2 3 -4
v 3 4 -4
v 3 8 -4
v 3 10 -4
v 4 3 -4
v 4 4 -4
v 4 8 -4
v 4 10 -4
v 4 11 -4
v -6 0 -5
v -6 1 -5
v -6 3 -5
v -6 4 -5
v -4 0 -5
v -4 1 -5
v -4 3 -5
v -4 4 -5
v -2 1 -5
v -2 3 -5
v 2 1 -5
v 2 3 -5
v 4 0 -5
v 4 1 -5
v 4 3 -5
v 4 4 -5
v 6 0 -5
v 6 1 -5
v 6 3 -5
v 6 4 -5
v -6 1 -6
v -6 3 -6
v -4 1 -6
v -4 3 -6
v -3 4 -6
v -3 10 -6
v 3 4 -6
v 3 10 -6
v 4 1 -6
v 4 3 -6
v 6 1 -6
v 6 3 -6
v -6 0 5
v -4 0 5
v 4 0 5
v 6 0 5
v -6 0 -5
v -4 0 -5
v 4 0 -5
v 6 0 -5
v -6 1 6
v -4 1 6
v 4 1 6
v 6 1 6
v -6 1 5
v -4 1 5
v -2 1 5
v 2 1 5
v 4 1 5
v 6 1 5
v -2 1 4
v -1 1 4
v 1 1 4
v 2 1 4
v -4 1 3
v -3 1 3
v 3 1 3
v 4 1 3
v -4 1 1
v -3 1 1
v 3 1 1
v 4 1 1
v -4 1 -1
v -3 1 -1
v 3 1 -1
v 4 1 -1
v -4 1 -3
v -3 1 -3
v 3 1 -3
v 4 1 -3
v -2 1 -4
v -1 1 -4
v 1 1 -4
v 2 1 -4
v -6 1 -5
v -4 1 -5
v -2 1 -5
v 2 1 -5
v 4 1 -5
v 6 1 -5
v -6 1 -6
v -4 1 -6
v 4 1 -6
v 6 1 -6
v -1 3 4
v 1 3 4
v -6 3 3
v -4 3 3
v 4 3 3
v 6 3 3
v -6 3 1
v -4 3 1
v 4 3 1
v 6 3 1
v -6 3 -1
v -4 3 -1
v 4 3 -1
v 6 3 -1
v -6 3 -3
v -4 3 -3
v 4 3 -3
v 6 3 -3
v -1 3 -4
v 1 3 -4
v -3 4 -4
v 3 4 -4
v -3 4 -6
v 3 4 -6
v 3 5 8
v 4 5 8
v 6 5 8
v 7 5 8
v -6 5 6
v -4 5 6
v 4 5 6
v 6 5 6
v 3 5 5
v 4 5 5
v 6 5 5
v 7 5 5
v -4 5 4
v 4 5 4
v -4 5 3
v 4 5 3
v -6 5 -1
v -4 5 -1
v 4 5 -1
v 6 5 -1
v -6 5 -3
v -4 5 -3
v -6 6 8
v -5 6 8
v -4 6 7
v -3 6 7
v -6 6 6
v -5 6 6
v -4 6 6
v -4 6 5
v -3 6 5
v -4 13 -2
v -3 13 -2
v -2 13 -2
v -1 13 -2
v 1 13 -2
v 2 13 -2
v 3 13 -2
v 4 13 -2
v -4 13 -3
v -3 13 -3
v -2 13 -3
v -1 13 -3
v 1 13 -3
v 2 13 -3
v 3 13 -3
v 4 13 -3
v -6 1 3
v -4 1 3
v 4 1 3
v 6 1 3
v -6 1 1
v -4 1 1
v 4 1 1
v 6 1 1
v -6 1 -1
v -4 1 -1
v 4 1 -1
v 6 1 -1
v -6 1 -3
v -4 1 -3
v 4 1 -3
v 6 1 -3
v -6 3 6
v -4 3 6
v 4 3 6
v 6 3 6
v -6 3 5
v -4 3 5
v -2 3 5
v 2 3 5
v 4 3 5
v 6 3 5
v -4 3 4
v -2 3 4
v 2 3 4
v 4 3 4
v -4 3 -4
v -2 3 -4
v 2 3 -4
v 4 3 -4
v -6 3 -5
v -4 3 -5
v -2 3 -5
v 2 3 -5
v 4 3 -5
v 6 3 -5
v -6 3 -6
v -4 3 -6
v 4 3 -6
v 6 3 -6
v -6 4 5
v -4 4 5
v 4 4 5
v 6 4 5
v -4 4 4
v 4 4 4
v -4 4 3
v 4 4 3
v -4 4 -4
v 4 4 -4
v -6 4 -5
v -4 4 -5
v 4 4 -5
v 6 4 -5
v -6 7 8
v -5 7 8
v 3 7 8
v 4 7 8
v 6 7 8
v 7 7 8
v -4 7 7
v -3 7 7
v -6 7 6
v -5 7 6
v -4 7 6
v 4 7 6
v 6 7 6
v -4 7 5
v -3 7 5
v 3 7 5
v 4 7 5
v 6 7 5
v 7 7 5
v -6 7 4
v -5 7 4
v -4 7 4
v 4 7 4
v -6 7 -1
v -5 7 -1
v -4 7 -1
v 4 7 -1
v 6 7 -1
v -6 8 6
v -5 8 6
v -6 8 4
v -5 8 4
v -6 9 -1
v -4 9 -1
v -6 9 -3
v -4 9 -3
v -3 10 -4
v 3 10 -4
v -3 10 -6
v 3 10 -6
v -4 11 4
v 4 11 4
v -3 11 -2
v -2 11 -2
v 2 11 -2
v 3 11 -2
v -3 11 -3
v -2 11 -3
v 2 11 -3
v 3 11 -3
v -4 11 -4
v 4 11 -4
v -4 14 -2
v -3 14 -2
v -2 14 -2
v -1 14 -2
v 1 14 -2
v 2 14 -2
v 3 14 -2
v 4 14 -2
v -4 14 -3
v -3 14 -3
v -2 14 -3
v -1 14 -3
v 1 14 -3
v 2 14 -3
v 3 14 -3
v 4 14 -3
v -3 15 -2
v -2 15 -2
v 2 15 -2
v 3 15 -2
v -3 15 -3
v -2 15 -3
v 2 15 -3
v 3 15 -3

# faces
f 4/3/1 2/3/1 1/3/1
f 5/3/1 2/3/1 4/3/1
f 6/3/1 2/3/1 5/3/1
f 7/3/1 2/3/1 6/3/1
f 8/3/1 2/3/1 7/3/1
f 9/3/1 2/3/1 8/3/1
f 11/3/1 4/3/1 3/3/1
f 12/4/1 5/4/1 4/4/1
f 12/3/1 4/3/1 11/3/1
f 13/4/1 5/4/1 12/4/1
f 14/4/1 7/4/1 6/4/1
f 15/4/1 7/4/1 14/4/1
f 16/4/1 9/4/1 8/4/1
f 17/3/1 10/3/1 9/3/1
f 17/4/1 9/4/1 16/4/1
f 18/3/1 10/3/1 17/3/1
f 19/3/1 16/3/1 15/3/1
f 19/3/1 15/3/1 14/3/1
f 19/3/1 17/3/1 16/3/1
f 19/3/1 13/3/1 12/3/1
f 19/3/1 14/3/1 13/3/1
f 20/3/1 17/3/1 19/3/1
f 25/4/1 22/4/1 21/4/1
f 26/3/1 23/3/1 22/3/1
f 26/4/1 22/4/1 25/4/1
f 27/3/1 25/3/1 24/3/1
f 27/3/1 26/3/1 25/3/1
f 28/3/1 26/3/1 27/3/1
f 29/3/1 26/3/1 28/3/1
f 30/3/1 23/3/1 26/3/1
f 30/3/1 26/3/1 29/3/1
f 31/3/1 29/3/1 28/3/1
f 32/3/1 29/3/1 31/3/1
f 33/3/1 23/3/1 30/3/1
f 34/3/1 23/3/1 33/3/1
f 39/2/1 36/2/1 35/2/1
f 40/2/1 36/2/1 39/2/1
f 41/2/1 38/2/1 37/2/1
f 42/2/1 38/2/1 41/2/1
f 46/5/1 44/5/1 43/5/1
f 47/1/1 45/1/1 44/1/1
f 47/5/1 44/5/1 46/5/1
f 48/1/1 45/1/1 47/1/1
f 49/1/1 45/1/1 48/1/1
f 52/4/1 51/4/1 50/4/1
f 53/4/1 51/4/1 52/4/1
f 56/1/1 55/1/1 54/1/1
f 57/1/1 55/1/1 56/1/1
f 58/1/1 45/1/1 49/1/1
f 59/1/1 45/1/1 58/1/1
f 60/5/1 57/5/1 56/5/1
f 61/5/1 59/5/1 58/5/1
f 62/5/1 60/5/1 56/5/1
f 62/5/1 61/5/1 60/5/1
f 63/5/1 59/5/1 61/5/1
f 63/5/1 61/5/1 62/5/1
f 64/1/1 63/1/1 62/1/1
f 65/1/1 63/1/1 64/1/1
f 68/3/1 67/3/1 66/3/1
f 69/3/1 67/3/1 68/3/1
f 72/3/1 71/3/1 70/3/1
f 73/3/1 71/3/1 72/3/1
f 74/3/1 71/3/1 73/3/1
f 77/3/1 76/3/1 75/3/1
f 78/3/1 76/3/1 77/3/1
f 81/3/1 80/3/1 79/3/1
f 82/3/1 80/3/1 81/3/1
f 85/4/1 84/4/1 83/4/1
f 86/4/1 84/4/1 85/4/1
f 89/3/1 88/3/1 87/3/1
f 90/3/1 88/3/1 89/3/1
f 95/4/1 92/4/1 91/4/1
f 96/4/1 92/4/1 95/4/1
f 97/4/1 94/4/1 93/4/1
f 98/4/1 94/4/1 97/4/1
f 101/3/1 100/3/1 99/3/1
f 102/3/1 100/3/1 101/3/1
f 105/3/1 104/3/1 103/3/1
f 106/3/1 104/3/1 105/3/1
f 109/4/1 108/4/1 107/4/1
f 110/4/1 108/4/1 109/4/1
f 114/3/1 112/3/1 111/3/1
f 115/3/1 112/3/1 114/3/1
f 116/3/1 112/3/1 115/3/1
f 117/3/1 112/3/1 116/3/1
f 118/3/1 112/3/1 117/3/1
f 119/3/1 112/3/1 118/3/1
f 121/3/1 114/3/1 113/3/1
f 122/3/1 114/3/1 121/3/1
f 125/3/1 120/3/1 119/3/1
f 126/3/1 120/3/1 125/3/1
f 127/3/1 123/3/1 122/3/1
f 128/3/1 123/3/1 127/3/1
f 129/3/1 125/3/1 124/3/1
f 130/3/1 125/3/1 129/3/1
f 133/4/1 132/4/1 131/4/1
f 134/4/1 133/4/1 131/4/1
f 135/4/1 133/4/1 134/4/1
f 138/4/1 137/4/1 136/4/1
f 139/4/1 137/4/1 138/4/1
f 140/3/2 141/3/2 142/3/2
f 142/3/2 141/3/2 143/3/2
f 143/3/2 144/3/2 145/3/2
f 145/3/2 144/3/2 146/3/2
f 147/3/2 148/3/2 150/3/2
f 150/3/2 148/3/2 151/3/2
f 151/3/2 148/3/2 152/3/2
f 152/3/2 148/3/2 153/3/2
f 153/3/2 148/3/2 154/3/2
f 154/3/2 148/3/2 155/3/2
f 149/3/2 150/3/2 157/3/2
f 157/3/2 150/3/2 158/3/2
f 155/3/2 156/3/2 161/3/2
f 161/3/2 156/3/2 162/3/2
f 158/3/2 159/3/2 163/3/2
f 163/3/2 159/3/2 164/3/2
f 160/3/2 161/3/2 165/3/2
f 165/3/2 161/3/2 166/3/2
f 167/4/2 168/4/2 169/4/2
f 169/4/2 168/4/2 170/4/2
f 170/4/2 168/4/2 171/4/2
f 170/4/2 171/4/2 172/4/2
f 172/4/2 171/4/2 173/4/2
f 174/4/2 175/4/2 176/4/2
f 176/4/2 175/4/2 177/4/2
f 178/4/2 179/4/2 182/4/2
f 182/4/2 179/4/2 183/4/2
f 180/4/2 181/4/2 184/4/2
f 184/4/2 181/4/2 185/4/2
f 186/3/2 187/3/2 188/3/2
f 188/3/2 187/3/2 189/3/2
f 190/3/2 191/3/2 192/3/2
f 192/3/2 191/3/2 193/3/2
f 194/4/2 195/4/2 196/4/2
f 196/4/2 195/4/2 197/4/2
f 198/3/2 199/3/2 200/3/2
f 200/3/2 199/3/2 201/3/2
f 202/3/2 203/3/2 204/3/2
f 204/3/2 203/3/2 205/3/2
f 205/3/2 203/3/2 206/3/2
f 207/3/2 208/3/2 209/3/2
f 209/3/2 208/3/2 210/3/2
f 211/3/2 212/3/2 213/3/2
f 213/3/2 212/3/2 214/3/2
f 215/2/2 216/2/2 219/2/2
f 219/2/2 216/2/2 220/2/2
f 217/2/2 218/2/2 221/2/2
f 221/2/2 218/2/2 222/2/2
f 223/5/2 224/5/2 228/5/2
f 224/1/2 225/1/2 229/1/2
f 228/5/2 224/5/2 229/5/2
f 229/1/2 225/1/2 230/1/2
f 226/4/2 227/4/2 231/4/2
f 231/4/2 227/4/2 232/4/2
f 230/1/2 225/1/2 234/1/2
f 233/1/2 234/1/2 235/1/2
f 234/1/2 225/1/2 236/1/2
f 235/1/2 234/1/2 236/1/2
f 235/5/2 236/5/2 237/5/2
f 237/5/2 236/5/2 238/5/2
f 237/1/2 238/1/2 239/1/2
f 239/1/2 238/1/2 240/1/2
f 241/3/2 242/3/2 243/3/2
f 243/3/2 242/3/2 244/3/2
f 245/3/2 246/3/2 248/3/2
f 248/3/2 246/3/2 249/3/2
f 249/3/2 246/3/2 250/3/2
f 250/3/2 246/3/2 251/3/2
f 251/3/2 246/3/2 252/3/2
f 252/3/2 246/3/2 253/3/2
f 247/3/2 248/3/2 255/3/2
f 248/4/2 249/4/2 256/4/2
f 255/3/2 248/3/2 256/3/2
f 256/4/2 249/4/2 257/4/2
f 250/4/2 251/4/2 258/4/2
f 258/4/2 251/4/2 259/4/2
f 252/4/2 253/4/2 260/4/2
f 253/3/2 254/3/2 261/3/2
f 260/4/2 253/4/2 261/4/2
f 261/3/2 254/3/2 262/3/2
f 259/3/2 260/3/2 263/3/2
f 258/3/2 259/3/2 263/3/2
f 260/3/2 261/3/2 263/3/2
f 256/3/2 257/3/2 263/3/2
f 257/3/2 258/3/2 263/3/2
f 263/3/2 261/3/2 264/3/2
f 265/4/2 266/4/2 267/4/2
f 267/4/2 266/4/2 268/4/2
f 269/4/2 270/4/2 271/4/2
f 271/4/2 270/4/2 272/4/2
f 275/3/3 274/3/3 273/3/3
f 276/3/3 274/3/3 275/3/3
f 279/4/3 278/4/3 277/4/3
f 280/4/3 278/4/3 279/4/3
f 283/4/3 282/4/3 281/4/3
f 284/4/3 282/4/3 283/4/3
f 287/4/3 286/4/3 285/4/3
f 288/4/3 286/4/3 287/4/3
f 295/4/3 292/4/3 291/4/3
f 296/3/3 294/3/3 293/3/3
f 297/3/3 294/3/3 296/3/3
f 298/3/3 290/3/3 289/3/3
f 299/3/3 290/3/3 298/3/3
f 300/4/3 295/4/3 291/4/3
f 300/4/3 296/4/3 295/4/3
f 301/4/3 296/4/3 300/4/3
f 302/4/3 296/4/3 301/4/3
f 307/3/3 304/3/3 303/3/3
f 308/3/3 304/3/3 307/3/3
f 309/4/3 306/4/3 305/4/3
f 310/4/3 306/4/3 309/4/3
f 315/3/3 312/3/3 311/3/3
f 316/3/3 312/3/3 315/3/3
f 317/3/3 314/3/3 313/3/3
f 318/3/3 314/3/3 317/3/3
f 319/4/3 317/4/3 316/4/3
f 320/4/3 317/4/3 319/4/3
f 324/4/3 322/4/3 321/4/3
f 325/4/3 322/4/3 324/4/3
f 327/3/3 324/3/3 323/3/3
f 328/3/3 324/3/3 327/3/3
f 329/3/3 326/3/3 325/3/3
f 330/3/3 326/3/3 329/3/3
f 339/1/3 335/1/3 334/1/3
f 339/1/3 336/1/3 335/1/3
f 339/5/3 337/5/3 336/5/3
f 340/1/3 338/1/3 337/1/3
f 340/5/3 337/5/3 339/5/3
f 342/1/3 332/1/3 331/1/3
f 343/1/3 339/1/3 334/1/3
f 344/2/3 340/2/3 339/2/3
f 344/1/3 339/1/3 343/1/3
f 345/4/3 342/4/3 341/4/3
f 346/1/3 332/1/3 342/1/3
f 346/4/3 342/4/3 345/4/3
f 348/1/3 332/1/3 346/1/3
f 349/4/3 348/4/3 347/4/3
f 350/1/3 332/1/3 348/1/3
f 350/4/3 348/4/3 349/4/3
f 351/1/3 343/1/3 334/1/3
f 351/2/3 344/2/3 343/2/3
f 352/2/3 340/2/3 344/2/3
f 352/2/3 344/2/3 351/2/3
f 353/2/3 340/2/3 352/2/3
f 353/1/3 352/1/3 351/1/3
f 354/1/3 338/1/3 340/1/3
f 354/2/3 340/2/3 353/2/3
f 355/1/3 332/1/3 350/1/3
f 356/5/3 333/5/3 332/5/3
f 356/1/3 332/1/3 355/1/3
f 356/5/3 334/5/3 333/5/3
f 357/5/3 334/5/3 356/5/3
f 358/1/3 353/1/3 351/1/3
f 358/5/3 334/5/3 357/5/3
f 358/1/3 351/1/3 334/1/3
f 359/1/3 353/1/3 358/1/3
f 360/5/3 354/5/3 353/5/3
f 360/1/3 353/1/3 359/1/3
f 361/1/3 338/1/3 354/1/3
f 361/5/3 354/5/3 360/5/3
f 362/1/3 338/1/3 361/1/3
f 365/4/3 364/4/3 363/4/3
f 366/4/3 364/4/3 365/4/3
f 369/4/3 368/4/3 367/4/3
f 370/4/3 368/4/3 369/4/3
f 373/3/3 372/3/3 371/3/3
f 374/3/3 372/3/3 373/3/3
f 375/3/3 372/3/3 374/3/3
f 376/3/3 372/3/3 375/3/3
f 380/3/3 378/3/3 377/3/3
f 381/3/3 378/3/3 380/3/3
f 383/3/3 380/3/3 379/3/3
f 383/3/3 382/3/3 381/3/3
f 383/3/3 381/3/3 380/3/3
f 384/3/3 382/3/3 383/3/3
f 385/3/3 382/3/3 384/3/3
f 386/3/3 382/3/3 385/3/3
f 387/3/3 385/3/3 384/3/3
f 388/3/3 385/3/3 387/3/3
f 392/3/3 390/3/3 389/3/3
f 393/3/3 390/3/3 392/3/3
f 395/3/3 393/3/3 392/3/3
f 395/3/3 394/3/3 393/3/3
f 395/3/3 392/3/3 391/3/3
f 396/3/3 394/3/3 395/3/3
f 397/3/3 394/3/3 396/3/3
f 398/3/3 394/3/3 397/3/3
f 399/3/3 397/3/3 396/3/3
f 400/3/3 397/3/3 399/3/3
f 403/4/3 402/4/3 401/4/3
f 404/4/3 402/4/3 403/4/3
f 407/4/3 406/4/3 405/4/3
f 408/4/3 406/4/3 407/4/3
f 409/4/4 410/4/4 411/4/4
f 411/4/4 410/4/4 412/4/4
f 413/4/4 414/4/4 415/4/4
f 415/4/4 414/4/4 416/4/4
f 417/4/4 418/4/4 419/4/4
f 419/4/4 418/4/4 420/4/4
f 421/3/4 422/3/4 423/3/4
f 423/3/4 422/3/4 424/3/4
f 425/4/4 426/4/4 427/4/4
f 427/4/4 426/4/4 428/4/4
f 429/4/4 430/4/4 431/4/4
f 431/4/4 430/4/4 432/4/4
f 433/4/4 434/4/4 435/4/4
f 435/4/4 434/4/4 436/4/4
f 437/4/4 438/4/4 441/4/4
f 441/4/4 438/4/4 442/4/4
f 439/4/4 440/4/4 443/4/4
f 443/4/4 440/4/4 444/4/4
f 445/3/4 446/3/4 447/3/4
f 447/3/4 446/3/4 448/3/4
f 448/3/4 446/3/4 449/3/4
f 450/3/4 451/3/4 453/3/4
f 453/3/4 451/3/4 454/3/4
f 452/3/4 453/3/4 456/3/4
f 454/3/4 455/3/4 456/3/4
f 453/3/4 454/3/4 456/3/4
f 456/3/4 455/3/4 457/3/4
f 457/3/4 455/3/4 458/3/4
f 458/3/4 455/3/4 459/3/4
f 457/3/4 458/3/4 460/3/4
f 460/3/4 458/3/4 461/3/4
f 462/3/4 463/3/4 465/3/4
f 465/3/4 463/3/4 466/3/4
f 465/3/4 466/3/4 468/3/4
f 466/3/4 467/3/4 468/3/4
f 464/3/4 465/3/4 468/3/4
f 468/3/4 467/3/4 469/3/4
f 469/3/4 467/3/4 470/3/4
f 470/3/4 467/3/4 471/3/4
f 469/3/4 470/3/4 472/3/4
f 472/3/4 470/3/4 473/3/4
f 474/1/4 475/1/4 479/1/4
f 475/1/4 476/1/4 479/1/4
f 476/5/4 477/5/4 480/5/4
f 479/1/4 476/1/4 480/1/4
f 477/1/4 478/1/4 481/1/4
f 480/5/4 477/5/4 481/5/4
f 474/1/4 479/1/4 483/1/4
f 482/4/4 483/4/4 484/4/4
f 483/1/4 479/1/4 485/1/4
f 484/4/4 483/4/4 485/4/4
f 485/1/4 479/1/4 487/1/4
f 486/4/4 487/4/4 488/4/4
f 487/1/4 479/1/4 489/1/4
f 488/4/4 487/4/4 489/4/4
f 489/1/4 479/1/4 490/1/4
f 481/1/4 478/1/4 492/1/4
f 490/1/4 491/1/4 493/1/4
f 489/1/4 490/1/4 493/1/4
f 493/1/4 491/1/4 494/1/4
f 491/5/4 492/5/4 495/5/4
f 494/1/4 491/1/4 495/1/4
f 492/1/4 478/1/4 496/1/4
f 495/5/4 492/5/4 496/5/4
f 496/1/4 478/1/4 497/1/4
f 498/3/4 499/3/4 502/3/4
f 502/3/4 499/3/4 503/3/4
f 500/3/4 501/3/4 504/3/4
f 504/3/4 501/3/4 505/3/4
f 503/4/4 504/4/4 506/4/4
f 506/4/4 504/4/4 507/4/4
f 508/4/4 509/4/4 511/4/4
f 511/4/4 509/4/4 512/4/4
f 510/3/4 511/3/4 514/3/4
f 514/3/4 511/3/4 515/3/4
f 512/3/4 513/3/4 516/3/4
f 516/3/4 513/3/4 517/3/4
f 518/3/4 519/3/4 520/3/4
f 520/3/4 519/3/4 521/3/4
f 522/3/4 523/3/4 524/3/4
f 524/3/4 523/3/4 525/3/4
f 526/3/4 527/3/4 528/3/4
f 528/3/4 527/3/4 529/3/4
f 534/3/5 531/3/5 530/3/5
f 535/3/5 531/3/5 534/3/5
f 536/3/5 533/3/5 532/3/5
f 537/3/5 533/3/5 536/3/5
f 542/3/5 539/3/5 538/3/5
f 543/3/5 539/3/5 542/3/5
f 546/3/5 541/3/5 540/3/5
f 547/3/5 541/3/5 546/3/5
f 548/4/5 544/4/5 543/4/5
f 551/4/5 546/4/5 545/4/5
f 552/4/5 549/4/5 548/4/5
f 552/4/5 548/4/5 543/4/5
f 553/4/5 549/4/5 552/4/5
f 554/4/5 551/4/5 550/4/5
f 554/4/5 546/4/5 551/4/5
f 555/4/5 546/4/5 554/4/5
f 556/2/5 553/2/5 552/2/5
f 557/4/5 549/4/5 553/4/5
f 557/2/5 553/2/5 556/2/5
f 558/4/5 554/4/5 550/4/5
f 558/2/5 555/2/5 554/2/5
f 559/2/5 555/2/5 558/2/5
f 560/4/5 557/4/5 556/4/5
f 561/4/5 549/4/5 557/4/5
f 561/4/5 557/4/5 560/4/5
f 562/4/5 558/4/5 550/4/5
f 562/4/5 559/4/5 558/4/5
f 563/4/5 559/4/5 562/4/5
f 564/2/5 561/2/5 560/2/5
f 565/4/5 549/4/5 561/4/5
f 565/2/5 561/2/5 564/2/5
f 566/4/5 562/4/5 550/4/5
f 566/2/5 563/2/5 562/2/5
f 567/2/5 563/2/5 566/2/5
f 568/4/5 549/4/5 565/4/5
f 568/4/5 565/4/5 564/4/5
f 569/4/5 549/4/5 568/4/5
f 570/4/5 567/4/5 566/4/5
f 570/4/5 566/4/5 550/4/5
f 571/4/5 567/4/5 570/4/5
f 573/4/5 568/4/5 564/4/5
f 574/4/5 568/4/5 573/4/5
f 575/4/5 567/4/5 571/4/5
f 576/4/5 567/4/5 575/4/5
f 578/3/5 573/3/5 572/3/5
f 579/3/5 573/3/5 578/3/5
f 580/3/5 577/3/5 576/3/5
f 581/3/5 577/3/5 580/3/5
f 588/3/5 585/3/5 584/3/5
f 589/3/5 585/3/5 588/3/5
f 590/3/5 587/3/5 586/3/5
f 591/3/5 587/3/5 590/3/5
f 596/3/5 593/3/5 592/3/5
f 597/3/5 593/3/5 596/3/5
f 598/3/5 595/3/5 594/3/5
f 599/3/5 595/3/5 598/3/5
f 600/1/5 583/1/5 582/1/5
f 601/1/5 583/1/5 600/1/5
f 604/3/5 603/3/5 602/3/5
f 605/3/5 603/3/5 604/3/5
f 612/4/5 607/4/5 606/4/5
f 613/4/5 609/4/5 608/4/5
f 614/4/5 612/4/5 606/4/5
f 614/4/5 613/4/5 612/4/5
f 615/4/5 613/4/5 614/4/5
f 616/4/5 609/4/5 613/4/5
f 616/4/5 613/4/5 615/4/5
f 617/4/5 609/4/5 616/4/5
f 618/4/5 611/4/5 610/4/5
f 619/4/5 616/4/5 615/4/5
f 620/4/5 618/4/5 610/4/5
f 621/4/5 616/4/5 619/4/5
f 622/4/5 620/4/5 610/4/5
f 623/4/5 620/4/5 622/4/5
f 624/4/5 616/4/5 621/4/5
f 625/4/5 616/4/5 624/4/5
f 626/3/5 623/3/5 622/3/5
f 627/3/5 623/3/5 626/3/5
f 632/3/5 629/3/5 628/3/5
f 633/3/5 629/3/5 632/3/5
f 634/4/5 631/4/5 630/4/5
f 635/4/5 631/4/5 634/4/5
f 636/4/5 631/4/5 635/4/5
f 645/3/5 638/3/5 637/3/5
f 646/3/5 638/3/5 645/3/5
f 647/3/5 640/3/5 639/3/5
f 648/3/5 640/3/5 647/3/5
f 649/3/5 642/3/5 641/3/5
f 650/3/5 642/3/5 649/3/5
f 651/3/5 644/3/5 643/3/5
f 652/3/5 644/3/5 651/3/5
f 653/3/6 654/3/6 657/3/6
f 657/3/6 654/3/6 658/3/6
f 655/3/6 656/3/6 659/3/6
f 659/3/6 656/3/6 660/3/6
f 661/3/6 662/3/6 665/3/6
f 665/3/6 662/3/6 666/3/6
f 663/3/6 664/3/6 667/3/6
f 667/3/6 664/3/6 668/3/6
f 669/3/6 670/3/6 673/3/6
f 673/3/6 670/3/6 674/3/6
f 671/3/6 672/3/6 677/3/6
f 677/3/6 672/3/6 678/3/6
f 674/4/6 675/4/6 679/4/6
f 679/4/6 675/4/6 680/4/6
f 676/4/6 677/4/6 681/4/6
f 681/4/6 677/4/6 682/4/6
f 683/4/6 684/4/6 688/4/6
f 688/4/6 684/4/6 689/4/6
f 685/4/6 686/4/6 690/4/6
f 690/4/6 686/4/6 691/4/6
f 687/3/6 688/3/6 693/3/6
f 693/3/6 688/3/6 694/3/6
f 691/3/6 692/3/6 695/3/6
f 695/3/6 692/3/6 696/3/6
f 697/3/6 698/3/6 701/3/6
f 699/3/6 700/3/6 702/3/6
f 697/3/6 701/3/6 703/3/6
f 702/3/6 700/3/6 704/3/6
f 697/3/6 703/3/6 705/3/6
f 704/3/6 700/3/6 706/3/6
f 697/3/6 705/3/6 707/3/6
f 707/3/6 705/3/6 708/3/6
f 706/3/6 700/3/6 709/3/6
f 709/3/6 700/3/6 710/3/6
f 711/3/6 712/3/6 719/3/6
f 719/3/6 712/3/6 720/3/6
f 717/4/6 718/4/6 721/4/6
f 713/4/6 714/4/6 722/4/6
f 715/4/6 716/4/6 723/4/6
f 720/4/6 721/4/6 724/4/6
f 721/4/6 718/4/6 724/4/6
f 724/4/6 718/4/6 725/4/6
f 722/4/6 723/4/6 726/4/6
f 713/4/6 722/4/6 726/4/6
f 726/4/6 723/4/6 727/4/6
f 723/4/6 716/4/6 728/4/6
f 727/4/6 723/4/6 728/4/6
f 728/4/6 716/4/6 729/4/6
f 720/4/6 724/4/6 731/4/6
f 731/4/6 724/4/6 732/4/6
f 727/4/6 728/4/6 733/4/6
f 730/3/6 731/3/6 734/3/6
f 731/4/6 732/4/6 735/4/6
f 734/3/6 731/3/6 735/3/6
f 735/4/6 732/4/6 736/4/6
f 733/4/6 728/4/6 737/4/6
f 737/4/6 728/4/6 738/4/6
f 739/3/6 740/3/6 741/3/6
f 741/3/6 740/3/6 742/3/6
f 743/3/6 744/3/6 745/3/6
f 745/3/6 744/3/6 746/3/6
f 747/3/6 748/3/6 749/3/6
f 749/3/6 748/3/6 750/3/6
f 751/1/6 752/1/6 753/1/6
f 753/1/6 752/1/6 754/1/6
f 754/1/6 752/1/6 755/1/6
f 755/1/6 752/1/6 756/1/6
f 751/1/6 753/1/6 757/1/6
f 754/1/6 755/1/6 758/1/6
f 758/1/6 755/1/6 759/1/6
f 756/1/6 752/1/6 760/1/6
f 758/1/6 759/1/6 761/1/6
f 759/1/6 760/1/6 761/1/6
f 751/1/6 757/1/6 761/1/6
f 757/1/6 758/1/6 761/1/6
f 760/1/6 752/1/6 762/1/6
f 761/1/6 760/1/6 762/1/6
f 763/3/6 764/3/6 771/3/6
f 771/3/6 764/3/6 772/3/6
f 765/3/6 766/3/6 773/3/6
f 773/3/6 766/3/6 774/3/6
f 767/3/6 768/3/6 775/3/6
f 775/3/6 768/3/6 776/3/6
f 769/3/6 770/3/6 777/3/6
f 777/3/6 770/3/6 778/3/6
f 779/3/6 780/3/6 783/3/6
f 783/3/6 780/3/6 784/3/6
f 781/3/6 782/3/6 785/3/6
f 785/3/6 782/3/6 786/3/6
