# MagicaVoxel @ Ephtracy

# group
g Red-2

# material
mtllib Red-2.mtl
usemtl palette

# normals
vn -1 0 0
vn 1 0 0
vn 0 0 1
vn 0 0 -1
vn 0 -1 0
vn 0 1 0

# texcoords
vt 0.00195313 0.5
vt 0.0332031 0.5
vt 0.0371094 0.5
vt 0.0410156 0.5

# verts
v -32 0 32
v -32 0 -32
v -32 2 32
v -32 2 -32
v -26 2 16
v -26 2 14
v -26 2 -14
v -26 2 -16
v -26 4 14
v -26 4 -14
v -26 6 14
v -26 6 -14
v -26 8 14
v -26 8 -14
v -26 10 14
v -26 10 -14
v -26 12 14
v -26 12 -14
v -26 14 14
v -26 14 -14
v -26 16 14
v -26 16 -14
v -26 18 14
v -26 18 -14
v -26 20 14
v -26 20 -14
v -26 22 16
v -26 22 -16
v -25 2 14
v -25 2 -14
v -25 4 14
v -25 4 -14
v -25 6 14
v -25 6 -14
v -25 8 14
v -25 8 -14
v -25 10 14
v -25 10 -14
v -25 12 14
v -25 12 -14
v -25 14 14
v -25 14 -14
v -25 16 14
v -25 16 -14
v -25 18 14
v -25 18 -14
v -25 20 14
v -25 20 -14
v -24 2 24
v -24 2 16
v -24 2 -16
v -24 2 -24
v -24 22 16
v -24 22 -16
v -24 42 24
v -24 42 -24
v -16 42 24
v -16 42 -24
v -16 50 24
v -16 50 -24
v -10 2 26
v -10 2 24
v -10 20 26
v -10 20 24
v 8 2 26
v 8 2 16
v 8 18 26
v 8 18 16
v 9 0 32
v 9 0 30
v 9 1 30
v 9 1 28
v 9 2 32
v 9 2 28
v 12 42 20
v 12 42 12
v 12 42 4
v 12 42 -4
v 12 42 -12
v 12 42 -20
v 12 64 20
v 12 64 12
v 12 64 4
v 12 64 -4
v 12 64 -12
v 12 64 -20
v 19 34 19
v 19 34 13
v 19 34 3
v 19 34 -3
v 19 34 -13
v 19 34 -19
v 19 64 19
v 19 64 13
v 19 64 3
v 19 64 -3
v 19 64 -13
v 19 64 -19
v -9 0 32
v -9 0 30
v -9 1 30
v -9 1 28
v -9 2 32
v -9 2 28
v -8 2 26
v -8 2 16
v -8 18 26
v -8 18 16
v 8 42 24
v 8 42 -24
v 8 50 24
v 8 50 -24
v 10 2 26
v 10 2 24
v 10 20 26
v 10 20 24
v 13 42 19
v 13 42 13
v 13 42 3
v 13 42 -3
v 13 42 -13
v 13 42 -19
v 13 64 19
v 13 64 13
v 13 64 3
v 13 64 -3
v 13 64 -13
v 13 64 -19
v 16 34 24
v 16 34 20
v 16 34 19
v 16 34 13
v 16 34 12
v 16 34 4
v 16 34 3
v 16 34 -3
v 16 34 -4
v 16 34 -12
v 16 34 -13
v 16 34 -19
v 16 34 -20
v 16 34 -24
v 16 42 24
v 16 42 20
v 16 42 19
v 16 42 13
v 16 42 12
v 16 42 4
v 16 42 3
v 16 42 -3
v 16 42 -4
v 16 42 -12
v 16 42 -13
v 16 42 -19
v 16 42 -20
v 16 42 -24
v 20 34 20
v 20 34 12
v 20 34 4
v 20 34 -4
v 20 34 -12
v 20 34 -20
v 20 64 20
v 20 64 12
v 20 64 4
v 20 64 -4
v 20 64 -12
v 20 64 -20
v 24 2 24
v 24 2 -24
v 24 34 24
v 24 34 -24
v 32 0 32
v 32 0 -32
v 32 2 32
v 32 2 -32
v -32 0 32
v -32 2 32
v -9 0 32
v -9 2 32
v 9 0 32
v 9 2 32
v 32 0 32
v 32 2 32
v -9 0 30
v -9 1 30
v 9 0 30
v 9 1 30
v -9 1 28
v -9 2 28
v 9 1 28
v 9 2 28
v -10 2 26
v -10 20 26
v -9 2 26
v -8 2 26
v -8 18 26
v 8 2 26
v 8 18 26
v 9 2 26
v 10 2 26
v 10 20 26
v -24 2 24
v -24 42 24
v -16 42 24
v -16 50 24
v -10 2 24
v -10 20 24
v 8 42 24
v 8 50 24
v 10 2 24
v 10 20 24
v 16 34 24
v 16 42 24
v 24 2 24
v 24 34 24
v 12 42 20
v 12 64 20
v 16 34 20
v 16 42 20
v 20 34 20
v 20 64 20
v -26 2 16
v -26 22 16
v -24 2 16
v -24 22 16
v -8 2 16
v -8 18 16
v 8 2 16
v 8 18 16
v 13 42 13
v 13 64 13
v 16 34 13
v 16 42 13
v 19 34 13
v 19 64 13
v 12 42 4
v 12 64 4
v 16 34 4
v 16 42 4
v 20 34 4
v 20 64 4
v 13 42 -3
v 13 64 -3
v 16 34 -3
v 16 42 -3
v 19 34 -3
v 19 64 -3
v 12 42 -12
v 12 64 -12
v 16 34 -12
v 16 42 -12
v 20 34 -12
v 20 64 -12
v -26 2 -14
v -26 4 -14
v -26 6 -14
v -26 8 -14
v -26 10 -14
v -26 12 -14
v -26 14 -14
v -26 16 -14
v -26 18 -14
v -26 20 -14
v -25 2 -14
v -25 4 -14
v -25 6 -14
v -25 8 -14
v -25 10 -14
v -25 12 -14
v -25 14 -14
v -25 16 -14
v -25 18 -14
v -25 20 -14
v 13 42 -19
v 13 64 -19
v 16 34 -19
v 16 42 -19
v 19 34 -19
v 19 64 -19
v 13 42 19
v 13 64 19
v 16 34 19
v 16 42 19
v 19 34 19
v 19 64 19
v -26 2 14
v -26 4 14
v -26 6 14
v -26 8 14
v -26 10 14
v -26 12 14
v -26 14 14
v -26 16 14
v -26 18 14
v -26 20 14
v -25 2 14
v -25 4 14
v -25 6 14
v -25 8 14
v -25 10 14
v -25 12 14
v -25 14 14
v -25 16 14
v -25 18 14
v -25 20 14
v 12 42 12
v 12 64 12
v 16 34 12
v 16 42 12
v 20 34 12
v 20 64 12
v 13 42 3
v 13 64 3
v 16 34 3
v 16 42 3
v 19 34 3
v 19 64 3
v 12 42 -4
v 12 64 -4
v 16 34 -4
v 16 42 -4
v 20 34 -4
v 20 64 -4
v 13 42 -13
v 13 64 -13
v 16 34 -13
v 16 42 -13
v 19 34 -13
v 19 64 -13
v -26 2 -16
v -26 22 -16
v -24 2 -16
v -24 22 -16
v 12 42 -20
v 12 64 -20
v 16 34 -20
v 16 42 -20
v 20 34 -20
v 20 64 -20
v -24 2 -24
v -24 42 -24
v -16 42 -24
v -16 50 -24
v 8 42 -24
v 8 50 -24
v 16 34 -24
v 16 42 -24
v 24 2 -24
v 24 34 -24
v -32 0 -32
v -32 2 -32
v 32 0 -32
v 32 2 -32
v -32 0 32
v -9 0 32
v 9 0 32
v 32 0 32
v -9 0 30
v 9 0 30
v -9 0 28
v 9 0 28
v -32 0 -32
v 32 0 -32
v -26 4 14
v -25 4 14
v -26 4 -14
v -25 4 -14
v -26 8 14
v -25 8 14
v -26 8 -14
v -25 8 -14
v -26 12 14
v -25 12 14
v -26 12 -14
v -25 12 -14
v -26 16 14
v -25 16 14
v -26 16 -14
v -25 16 -14
v -8 18 26
v 8 18 26
v -8 18 16
v 8 18 16
v -26 20 14
v -25 20 14
v -26 20 -14
v -25 20 -14
v -9 1 30
v 9 1 30
v -9 1 28
v 9 1 28
v -32 2 32
v -9 2 32
v 9 2 32
v 32 2 32
v -9 2 28
v 9 2 28
v -10 2 26
v -9 2 26
v -8 2 26
v 8 2 26
v 9 2 26
v 10 2 26
v -24 2 24
v -10 2 24
v 10 2 24
v 24 2 24
v -26 2 16
v -24 2 16
v -8 2 16
v 8 2 16
v -26 2 14
v -25 2 14
v -26 2 -14
v -25 2 -14
v -26 2 -16
v -24 2 -16
v -24 2 -24
v 24 2 -24
v -32 2 -32
v 32 2 -32
v -26 6 14
v -25 6 14
v -26 6 -14
v -25 6 -14
v -26 10 14
v -25 10 14
v -26 10 -14
v -25 10 -14
v -26 14 14
v -25 14 14
v -26 14 -14
v -25 14 -14
v -26 18 14
v -25 18 14
v -26 18 -14
v -25 18 -14
v -10 20 26
v 10 20 26
v -10 20 24
v 10 20 24
v -26 22 16
v -24 22 16
v -26 22 -16
v -24 22 -16
v 16 34 24
v 24 34 24
v 16 34 20
v 20 34 20
v 16 34 19
v 19 34 19
v 16 34 13
v 19 34 13
v 16 34 12
v 20 34 12
v 16 34 4
v 20 34 4
v 16 34 3
v 19 34 3
v 16 34 -3
v 19 34 -3
v 16 34 -4
v 20 34 -4
v 16 34 -12
v 20 34 -12
v 16 34 -13
v 19 34 -13
v 16 34 -19
v 19 34 -19
v 16 34 -20
v 20 34 -20
v 16 34 -24
v 24 34 -24
v -24 42 24
v -16 42 24
v 8 42 24
v 16 42 24
v 12 42 20
v 16 42 20
v 13 42 19
v 16 42 19
v 13 42 13
v 16 42 13
v 12 42 12
v 16 42 12
v 12 42 4
v 16 42 4
v 13 42 3
v 16 42 3
v 13 42 -3
v 16 42 -3
v 12 42 -4
v 16 42 -4
v 12 42 -12
v 16 42 -12
v 13 42 -13
v 16 42 -13
v 13 42 -19
v 16 42 -19
v 12 42 -20
v 16 42 -20
v -24 42 -24
v -16 42 -24
v 8 42 -24
v 16 42 -24
v -16 50 24
v 8 50 24
v -16 50 -24
v 8 50 -24
v 12 64 20
v 20 64 20
v 13 64 19
v 19 64 19
v 13 64 13
v 19 64 13
v 12 64 12
v 20 64 12
v 12 64 4
v 20 64 4
v 13 64 3
v 19 64 3
v 13 64 -3
v 19 64 -3
v 12 64 -4
v 20 64 -4
v 12 64 -12
v 20 64 -12
v 13 64 -13
v 19 64 -13
v 13 64 -19
v 19 64 -19
v 12 64 -20
v 20 64 -20

# faces
f 3/3/1 2/3/1 1/3/1
f 4/3/1 2/3/1 3/3/1
f 9/4/1 6/4/1 5/4/1
f 10/4/1 8/4/1 7/4/1
f 11/4/1 9/4/1 5/4/1
f 11/4/1 10/4/1 9/4/1
f 12/4/1 8/4/1 10/4/1
f 12/4/1 10/4/1 11/4/1
f 13/4/1 11/4/1 5/4/1
f 14/4/1 8/4/1 12/4/1
f 15/4/1 13/4/1 5/4/1
f 15/4/1 14/4/1 13/4/1
f 16/4/1 8/4/1 14/4/1
f 16/4/1 14/4/1 15/4/1
f 17/4/1 15/4/1 5/4/1
f 18/4/1 8/4/1 16/4/1
f 19/4/1 17/4/1 5/4/1
f 19/4/1 18/4/1 17/4/1
f 20/4/1 8/4/1 18/4/1
f 20/4/1 18/4/1 19/4/1
f 21/4/1 19/4/1 5/4/1
f 22/4/1 8/4/1 20/4/1
f 23/4/1 21/4/1 5/4/1
f 23/4/1 22/4/1 21/4/1
f 24/4/1 8/4/1 22/4/1
f 24/4/1 22/4/1 23/4/1
f 25/4/1 23/4/1 5/4/1
f 26/4/1 8/4/1 24/4/1
f 27/4/1 25/4/1 5/4/1
f 27/4/1 26/4/1 25/4/1
f 28/4/1 8/4/1 26/4/1
f 28/4/1 26/4/1 27/4/1
f 31/3/1 30/3/1 29/3/1
f 32/3/1 30/3/1 31/3/1
f 35/3/1 34/3/1 33/3/1
f 36/3/1 34/3/1 35/3/1
f 39/3/1 38/3/1 37/3/1
f 40/3/1 38/3/1 39/3/1
f 43/3/1 42/3/1 41/3/1
f 44/3/1 42/3/1 43/3/1
f 47/3/1 46/3/1 45/3/1
f 48/3/1 46/3/1 47/3/1
f 53/1/1 50/1/1 49/1/1
f 54/1/1 52/1/1 51/1/1
f 55/1/1 53/1/1 49/1/1
f 55/1/1 54/1/1 53/1/1
f 56/1/1 52/1/1 54/1/1
f 56/1/1 54/1/1 55/1/1
f 59/1/1 58/1/1 57/1/1
f 60/1/1 58/1/1 59/1/1
f 63/4/1 62/4/1 61/4/1
f 64/4/1 62/4/1 63/4/1
f 67/4/1 66/4/1 65/4/1
f 68/4/1 66/4/1 67/4/1
f 71/3/1 70/3/1 69/3/1
f 73/3/1 71/3/1 69/3/1
f 73/3/1 72/3/1 71/3/1
f 74/3/1 72/3/1 73/3/1
f 81/3/1 76/3/1 75/3/1
f 82/3/1 76/3/1 81/3/1
f 83/3/1 78/3/1 77/3/1
f 84/3/1 78/3/1 83/3/1
f 85/3/1 80/3/1 79/3/1
f 86/3/1 80/3/1 85/3/1
f 93/3/1 88/3/1 87/3/1
f 94/3/1 88/3/1 93/3/1
f 95/3/1 90/3/1 89/3/1
f 96/3/1 90/3/1 95/3/1
f 97/3/1 92/3/1 91/3/1
f 98/3/1 92/3/1 97/3/1
f 99/3/2 100/3/2 101/3/2
f 99/3/2 101/3/2 103/3/2
f 101/3/2 102/3/2 103/3/2
f 103/3/2 102/3/2 104/3/2
f 105/4/2 106/4/2 107/4/2
f 107/4/2 106/4/2 108/4/2
f 109/1/2 110/1/2 111/1/2
f 111/1/2 110/1/2 112/1/2
f 113/4/2 114/4/2 115/4/2
f 115/4/2 114/4/2 116/4/2
f 117/3/2 118/3/2 123/3/2
f 123/3/2 118/3/2 124/3/2
f 119/3/2 120/3/2 125/3/2
f 125/3/2 120/3/2 126/3/2
f 121/3/2 122/3/2 127/3/2
f 127/3/2 122/3/2 128/3/2
f 129/1/2 130/1/2 143/1/2
f 143/1/2 130/1/2 144/1/2
f 131/1/2 132/1/2 145/1/2
f 145/1/2 132/1/2 146/1/2
f 133/1/2 134/1/2 147/1/2
f 147/1/2 134/1/2 148/1/2
f 135/1/2 136/1/2 149/1/2
f 149/1/2 136/1/2 150/1/2
f 137/1/2 138/1/2 151/1/2
f 151/1/2 138/1/2 152/1/2
f 139/1/2 140/1/2 153/1/2
f 153/1/2 140/1/2 154/1/2
f 141/1/2 142/1/2 155/1/2
f 155/1/2 142/1/2 156/1/2
f 157/3/2 158/3/2 163/3/2
f 163/3/2 158/3/2 164/3/2
f 159/3/2 160/3/2 165/3/2
f 165/3/2 160/3/2 166/3/2
f 161/3/2 162/3/2 167/3/2
f 167/3/2 162/3/2 168/3/2
f 169/1/2 170/1/2 171/1/2
f 171/1/2 170/1/2 172/1/2
f 173/3/2 174/3/2 175/3/2
f 175/3/2 174/3/2 176/3/2
f 179/3/3 178/3/3 177/3/3
f 180/3/3 178/3/3 179/3/3
f 183/3/3 182/3/3 181/3/3
f 184/3/3 182/3/3 183/3/3
f 187/4/3 186/4/3 185/4/3
f 188/4/3 186/4/3 187/4/3
f 191/4/3 190/4/3 189/4/3
f 192/4/3 190/4/3 191/4/3
f 195/4/3 194/4/3 193/4/3
f 196/4/3 194/4/3 195/4/3
f 197/4/3 194/4/3 196/4/3
f 199/4/3 194/4/3 197/4/3
f 200/4/3 199/4/3 198/4/3
f 201/4/3 199/4/3 200/4/3
f 202/4/3 194/4/3 199/4/3
f 202/4/3 199/4/3 201/4/3
f 205/1/3 204/1/3 203/1/3
f 207/1/3 205/1/3 203/1/3
f 207/1/3 206/1/3 205/1/3
f 208/1/3 206/1/3 207/1/3
f 209/1/3 206/1/3 208/1/3
f 210/1/3 206/1/3 209/1/3
f 212/1/3 209/1/3 208/1/3
f 213/1/3 209/1/3 212/1/3
f 213/1/3 212/1/3 211/1/3
f 214/1/3 209/1/3 213/1/3
f 215/1/3 213/1/3 211/1/3
f 216/1/3 213/1/3 215/1/3
f 220/3/3 218/3/3 217/3/3
f 221/3/3 220/3/3 219/3/3
f 222/3/3 218/3/3 220/3/3
f 222/3/3 220/3/3 221/3/3
f 225/4/3 224/4/3 223/4/3
f 226/4/3 224/4/3 225/4/3
f 229/2/3 228/2/3 227/2/3
f 230/2/3 228/2/3 229/2/3
f 234/3/3 232/3/3 231/3/3
f 235/3/3 234/3/3 233/3/3
f 236/3/3 232/3/3 234/3/3
f 236/3/3 234/3/3 235/3/3
f 240/3/3 238/3/3 237/3/3
f 241/3/3 240/3/3 239/3/3
f 242/3/3 238/3/3 240/3/3
f 242/3/3 240/3/3 241/3/3
f 246/3/3 244/3/3 243/3/3
f 247/3/3 246/3/3 245/3/3
f 248/3/3 244/3/3 246/3/3
f 248/3/3 246/3/3 247/3/3
f 252/3/3 250/3/3 249/3/3
f 253/3/3 252/3/3 251/3/3
f 254/3/3 250/3/3 252/3/3
f 254/3/3 252/3/3 253/3/3
f 265/4/3 256/4/3 255/4/3
f 266/4/3 256/4/3 265/4/3
f 267/4/3 258/4/3 257/4/3
f 268/4/3 258/4/3 267/4/3
f 269/4/3 260/4/3 259/4/3
f 270/4/3 260/4/3 269/4/3
f 271/4/3 262/4/3 261/4/3
f 272/4/3 262/4/3 271/4/3
f 273/4/3 264/4/3 263/4/3
f 274/4/3 264/4/3 273/4/3
f 278/3/3 276/3/3 275/3/3
f 279/3/3 278/3/3 277/3/3
f 280/3/3 276/3/3 278/3/3
f 280/3/3 278/3/3 279/3/3
f 281/3/4 282/3/4 284/3/4
f 283/3/4 284/3/4 285/3/4
f 284/3/4 282/3/4 286/3/4
f 285/3/4 284/3/4 286/3/4
f 287/4/4 288/4/4 297/4/4
f 297/4/4 288/4/4 298/4/4
f 289/4/4 290/4/4 299/4/4
f 299/4/4 290/4/4 300/4/4
f 291/4/4 292/4/4 301/4/4
f 301/4/4 292/4/4 302/4/4
f 293/4/4 294/4/4 303/4/4
f 303/4/4 294/4/4 304/4/4
f 295/4/4 296/4/4 305/4/4
f 305/4/4 296/4/4 306/4/4
f 307/3/4 308/3/4 310/3/4
f 309/3/4 310/3/4 311/3/4
f 310/3/4 308/3/4 312/3/4
f 311/3/4 310/3/4 312/3/4
f 313/3/4 314/3/4 316/3/4
f 315/3/4 316/3/4 317/3/4
f 316/3/4 314/3/4 318/3/4
f 317/3/4 316/3/4 318/3/4
f 319/3/4 320/3/4 322/3/4
f 321/3/4 322/3/4 323/3/4
f 322/3/4 320/3/4 324/3/4
f 323/3/4 322/3/4 324/3/4
f 325/3/4 326/3/4 328/3/4
f 327/3/4 328/3/4 329/3/4
f 328/3/4 326/3/4 330/3/4
f 329/3/4 328/3/4 330/3/4
f 331/4/4 332/4/4 333/4/4
f 333/4/4 332/4/4 334/4/4
f 335/3/4 336/3/4 338/3/4
f 337/3/4 338/3/4 339/3/4
f 338/3/4 336/3/4 340/3/4
f 339/3/4 338/3/4 340/3/4
f 341/1/4 342/1/4 343/1/4
f 341/1/4 343/1/4 345/1/4
f 343/1/4 344/1/4 345/1/4
f 345/1/4 344/1/4 346/1/4
f 341/1/4 345/1/4 347/1/4
f 347/1/4 345/1/4 348/1/4
f 341/1/4 347/1/4 349/1/4
f 349/1/4 347/1/4 350/1/4
f 351/3/4 352/3/4 353/3/4
f 353/3/4 352/3/4 354/3/4
f 359/3/5 356/3/5 355/3/5
f 360/3/5 358/3/5 357/3/5
f 361/3/5 359/3/5 355/3/5
f 361/4/5 360/4/5 359/4/5
f 362/3/5 358/3/5 360/3/5
f 362/4/5 360/4/5 361/4/5
f 363/3/5 361/3/5 355/3/5
f 363/3/5 362/3/5 361/3/5
f 364/3/5 358/3/5 362/3/5
f 364/3/5 362/3/5 363/3/5
f 367/4/5 366/4/5 365/4/5
f 368/4/5 366/4/5 367/4/5
f 371/4/5 370/4/5 369/4/5
f 372/4/5 370/4/5 371/4/5
f 375/4/5 374/4/5 373/4/5
f 376/4/5 374/4/5 375/4/5
f 379/4/5 378/4/5 377/4/5
f 380/4/5 378/4/5 379/4/5
f 383/4/5 382/4/5 381/4/5
f 384/4/5 382/4/5 383/4/5
f 387/4/5 386/4/5 385/4/5
f 388/4/5 386/4/5 387/4/5
f 389/4/6 390/4/6 391/4/6
f 391/4/6 390/4/6 392/4/6
f 393/3/6 394/3/6 397/3/6
f 395/3/6 396/3/6 398/3/6
f 393/3/6 397/3/6 399/3/6
f 397/4/6 398/4/6 400/4/6
f 399/3/6 397/3/6 400/3/6
f 400/4/6 398/4/6 401/4/6
f 401/4/6 398/4/6 402/4/6
f 398/3/6 396/3/6 403/3/6
f 402/4/6 398/4/6 403/4/6
f 403/3/6 396/3/6 404/3/6
f 393/3/6 399/3/6 405/3/6
f 405/3/6 399/3/6 406/3/6
f 404/3/6 396/3/6 407/3/6
f 407/3/6 396/3/6 408/3/6
f 393/3/6 405/3/6 409/3/6
f 409/3/6 405/3/6 410/3/6
f 401/4/6 402/4/6 411/4/6
f 411/4/6 402/4/6 412/4/6
f 393/3/6 409/3/6 413/3/6
f 393/3/6 413/3/6 415/3/6
f 413/3/6 414/3/6 415/3/6
f 415/3/6 414/3/6 416/3/6
f 393/3/6 415/3/6 417/3/6
f 417/3/6 418/3/6 419/3/6
f 408/3/6 396/3/6 420/3/6
f 417/3/6 419/3/6 421/3/6
f 419/3/6 420/3/6 421/3/6
f 393/3/6 417/3/6 421/3/6
f 420/3/6 396/3/6 422/3/6
f 421/3/6 420/3/6 422/3/6
f 423/4/6 424/4/6 425/4/6
f 425/4/6 424/4/6 426/4/6
f 427/4/6 428/4/6 429/4/6
f 429/4/6 428/4/6 430/4/6
f 431/4/6 432/4/6 433/4/6
f 433/4/6 432/4/6 434/4/6
f 435/4/6 436/4/6 437/4/6
f 437/4/6 436/4/6 438/4/6
f 439/4/6 440/4/6 441/4/6
f 441/4/6 440/4/6 442/4/6
f 443/4/6 444/4/6 445/4/6
f 445/4/6 444/4/6 446/4/6
f 447/1/6 448/1/6 449/1/6
f 449/1/6 448/1/6 450/1/6
f 451/1/6 452/1/6 453/1/6
f 453/1/6 452/1/6 454/1/6
f 450/1/6 448/1/6 456/1/6
f 455/1/6 456/1/6 457/1/6
f 456/1/6 448/1/6 458/1/6
f 457/1/6 456/1/6 458/1/6
f 459/1/6 460/1/6 461/1/6
f 461/1/6 460/1/6 462/1/6
f 458/1/6 448/1/6 464/1/6
f 463/1/6 464/1/6 465/1/6
f 464/1/6 448/1/6 466/1/6
f 465/1/6 464/1/6 466/1/6
f 467/1/6 468/1/6 469/1/6
f 469/1/6 468/1/6 470/1/6
f 466/1/6 448/1/6 472/1/6
f 471/1/6 472/1/6 473/1/6
f 472/1/6 448/1/6 474/1/6
f 473/1/6 472/1/6 474/1/6
f 477/1/6 478/1/6 479/1/6
f 479/1/6 478/1/6 480/1/6
f 481/1/6 482/1/6 483/1/6
f 483/1/6 482/1/6 484/1/6
f 477/1/6 479/1/6 485/1/6
f 477/1/6 485/1/6 487/1/6
f 485/1/6 486/1/6 487/1/6
f 487/1/6 486/1/6 488/1/6
f 489/1/6 490/1/6 491/1/6
f 491/1/6 490/1/6 492/1/6
f 477/1/6 487/1/6 493/1/6
f 477/1/6 493/1/6 495/1/6
f 493/1/6 494/1/6 495/1/6
f 495/1/6 494/1/6 496/1/6
f 497/1/6 498/1/6 499/1/6
f 499/1/6 498/1/6 500/1/6
f 477/1/6 495/1/6 501/1/6
f 475/1/6 476/1/6 503/1/6
f 503/1/6 476/1/6 504/1/6
f 501/1/6 502/1/6 505/1/6
f 477/1/6 501/1/6 505/1/6
f 505/1/6 502/1/6 506/1/6
f 507/1/6 508/1/6 509/1/6
f 509/1/6 508/1/6 510/1/6
f 511/3/6 512/3/6 513/3/6
f 513/3/6 512/3/6 514/3/6
f 511/3/6 513/3/6 515/3/6
f 514/3/6 512/3/6 516/3/6
f 511/3/6 515/3/6 517/3/6
f 515/3/6 516/3/6 517/3/6
f 516/3/6 512/3/6 518/3/6
f 517/3/6 516/3/6 518/3/6
f 519/3/6 520/3/6 521/3/6
f 521/3/6 520/3/6 522/3/6
f 519/3/6 521/3/6 523/3/6
f 522/3/6 520/3/6 524/3/6
f 519/3/6 523/3/6 525/3/6
f 523/3/6 524/3/6 525/3/6
f 524/3/6 520/3/6 526/3/6
f 525/3/6 524/3/6 526/3/6
f 527/3/6 528/3/6 529/3/6
f 529/3/6 528/3/6 530/3/6
f 527/3/6 529/3/6 531/3/6
f 530/3/6 528/3/6 532/3/6
f 527/3/6 531/3/6 533/3/6
f 531/3/6 532/3/6 533/3/6
f 532/3/6 528/3/6 534/3/6
f 533/3/6 532/3/6 534/3/6
