# MagicaVoxel @ Ephtracy

# group
g Red-5

# material
mtllib Red-5.mtl
usemtl palette

# normals
vn -1 0 0
vn 1 0 0
vn 0 0 1
vn 0 0 -1
vn 0 -1 0
vn 0 1 0

# texcoords
vt 0.00195313 0.5
vt 0.970703 0.5
vt 0.986328 0.5
vt 0.990234 0.5

# verts
v -32 0 32
v -32 0 -32
v -32 2 32
v -32 2 -32
v -24 2 24
v -24 2 -24
v -24 42 24
v -24 42 -24
v -16 24 25
v -16 24 24
v -16 42 25
v -16 42 24
v -16 42 -24
v -16 50 24
v -16 50 -24
v -10 2 26
v -10 2 24
v -10 20 26
v -10 20 24
v 8 2 26
v 8 2 16
v 8 18 26
v 8 18 16
v 9 0 32
v 9 0 30
v 9 1 30
v 9 1 28
v 9 2 32
v 9 2 28
v 14 26 25
v 14 26 24
v 14 28 25
v 14 28 24
v 14 30 25
v 14 30 24
v 14 32 25
v 14 32 24
v 14 34 25
v 14 34 24
v 14 36 25
v 14 36 24
v 14 38 25
v 14 38 24
v 14 40 25
v 14 40 24
v -14 26 25
v -14 26 24
v -14 28 25
v -14 28 24
v -14 30 25
v -14 30 24
v -14 32 25
v -14 32 24
v -14 34 25
v -14 34 24
v -14 36 25
v -14 36 24
v -14 38 25
v -14 38 24
v -14 40 25
v -14 40 24
v -9 0 32
v -9 0 30
v -9 1 30
v -9 1 28
v -9 2 32
v -9 2 28
v -8 2 26
v -8 2 16
v -8 18 26
v -8 18 16
v 10 2 26
v 10 2 24
v 10 20 26
v 10 20 24
v 16 24 25
v 16 24 24
v 16 42 25
v 16 42 24
v 16 42 -24
v 16 50 24
v 16 50 -24
v 24 2 24
v 24 2 -24
v 24 42 24
v 24 42 -24
v 32 0 32
v 32 0 -32
v 32 2 32
v 32 2 -32
v -32 0 32
v -32 2 32
v -9 0 32
v -9 2 32
v 9 0 32
v 9 2 32
v 32 0 32
v 32 2 32
v -9 0 30
v -9 1 30
v 9 0 30
v 9 1 30
v -9 1 28
v -9 2 28
v 9 1 28
v 9 2 28
v -10 2 26
v -10 20 26
v -9 2 26
v -8 2 26
v -8 18 26
v 8 2 26
v 8 18 26
v 9 2 26
v 10 2 26
v 10 20 26
v -16 24 25
v -16 42 25
v -14 26 25
v -14 28 25
v -14 30 25
v -14 32 25
v -14 34 25
v -14 36 25
v -14 38 25
v -14 40 25
v 14 26 25
v 14 28 25
v 14 30 25
v 14 32 25
v 14 34 25
v 14 36 25
v 14 38 25
v 14 40 25
v 16 24 25
v 16 42 25
v -24 2 24
v -24 42 24
v -16 24 24
v -16 42 24
v -16 50 24
v -14 26 24
v -14 28 24
v -14 30 24
v -14 32 24
v -14 34 24
v -14 36 24
v -14 38 24
v -14 40 24
v -10 2 24
v -10 20 24
v 10 2 24
v 10 20 24
v 14 26 24
v 14 28 24
v 14 30 24
v 14 32 24
v 14 34 24
v 14 36 24
v 14 38 24
v 14 40 24
v 16 24 24
v 16 42 24
v 16 50 24
v 24 2 24
v 24 42 24
v -8 2 16
v -8 18 16
v 8 2 16
v 8 18 16
v -24 2 -24
v -24 42 -24
v -16 42 -24
v -16 50 -24
v 16 42 -24
v 16 50 -24
v 24 2 -24
v 24 42 -24
v -32 0 -32
v -32 2 -32
v 32 0 -32
v 32 2 -32
v -32 0 32
v -9 0 32
v 9 0 32
v 32 0 32
v -9 0 30
v 9 0 30
v -9 0 28
v 9 0 28
v -32 0 -32
v 32 0 -32
v -8 18 26
v 8 18 26
v -8 18 16
v 8 18 16
v -16 24 25
v 16 24 25
v -16 24 24
v 16 24 24
v -14 28 25
v 14 28 25
v -14 28 24
v 14 28 24
v -14 32 25
v 14 32 25
v -14 32 24
v 14 32 24
v -14 36 25
v 14 36 25
v -14 36 24
v 14 36 24
v -14 40 25
v 14 40 25
v -14 40 24
v 14 40 24
v -9 1 30
v 9 1 30
v -9 1 28
v 9 1 28
v -32 2 32
v -9 2 32
v 9 2 32
v 32 2 32
v -9 2 28
v 9 2 28
v -10 2 26
v -9 2 26
v -8 2 26
v 8 2 26
v 9 2 26
v 10 2 26
v -24 2 24
v -10 2 24
v 10 2 24
v 24 2 24
v -8 2 16
v 8 2 16
v -24 2 -24
v 24 2 -24
v -32 2 -32
v 32 2 -32
v -10 20 26
v 10 20 26
v -10 20 24
v 10 20 24
v -14 26 25
v 14 26 25
v -14 26 24
v 14 26 24
v -14 30 25
v 14 30 25
v -14 30 24
v 14 30 24
v -14 34 25
v 14 34 25
v -14 34 24
v 14 34 24
v -14 38 25
v 14 38 25
v -14 38 24
v 14 38 24
v -16 42 25
v 16 42 25
v -24 42 24
v -16 42 24
v 16 42 24
v 24 42 24
v -24 42 -24
v -16 42 -24
v 16 42 -24
v 24 42 -24
v -16 50 24
v 16 50 24
v -16 50 -24
v 16 50 -24

# faces
f 3/3/1 2/3/1 1/3/1
f 4/3/1 2/3/1 3/3/1
f 7/1/1 6/1/1 5/1/1
f 8/1/1 6/1/1 7/1/1
f 11/2/1 10/2/1 9/2/1
f 12/2/1 10/2/1 11/2/1
f 14/1/1 13/1/1 12/1/1
f 15/1/1 13/1/1 14/1/1
f 18/2/1 17/2/1 16/2/1
f 19/2/1 17/2/1 18/2/1
f 22/2/1 21/2/1 20/2/1
f 23/2/1 21/2/1 22/2/1
f 26/3/1 25/3/1 24/3/1
f 28/3/1 26/3/1 24/3/1
f 28/3/1 27/3/1 26/3/1
f 29/3/1 27/3/1 28/3/1
f 32/2/1 31/2/1 30/2/1
f 33/2/1 31/2/1 32/2/1
f 36/2/1 35/2/1 34/2/1
f 37/2/1 35/2/1 36/2/1
f 40/2/1 39/2/1 38/2/1
f 41/2/1 39/2/1 40/2/1
f 44/2/1 43/2/1 42/2/1
f 45/2/1 43/2/1 44/2/1
f 46/2/2 47/2/2 48/2/2
f 48/2/2 47/2/2 49/2/2
f 50/2/2 51/2/2 52/2/2
f 52/2/2 51/2/2 53/2/2
f 54/2/2 55/2/2 56/2/2
f 56/2/2 55/2/2 57/2/2
f 58/2/2 59/2/2 60/2/2
f 60/2/2 59/2/2 61/2/2
f 62/3/2 63/3/2 64/3/2
f 62/3/2 64/3/2 66/3/2
f 64/3/2 65/3/2 66/3/2
f 66/3/2 65/3/2 67/3/2
f 68/2/2 69/2/2 70/2/2
f 70/2/2 69/2/2 71/2/2
f 72/2/2 73/2/2 74/2/2
f 74/2/2 73/2/2 75/2/2
f 76/2/2 77/2/2 78/2/2
f 78/2/2 77/2/2 79/2/2
f 79/1/2 80/1/2 81/1/2
f 81/1/2 80/1/2 82/1/2
f 83/1/2 84/1/2 85/1/2
f 85/1/2 84/1/2 86/1/2
f 87/3/2 88/3/2 89/3/2
f 89/3/2 88/3/2 90/3/2
f 93/3/3 92/3/3 91/3/3
f 94/3/3 92/3/3 93/3/3
f 97/3/3 96/3/3 95/3/3
f 98/3/3 96/3/3 97/3/3
f 101/2/3 100/2/3 99/2/3
f 102/2/3 100/2/3 101/2/3
f 105/2/3 104/2/3 103/2/3
f 106/2/3 104/2/3 105/2/3
f 109/2/3 108/2/3 107/2/3
f 110/2/3 108/2/3 109/2/3
f 111/2/3 108/2/3 110/2/3
f 113/2/3 108/2/3 111/2/3
f 114/2/3 113/2/3 112/2/3
f 115/2/3 113/2/3 114/2/3
f 116/2/3 108/2/3 113/2/3
f 116/2/3 113/2/3 115/2/3
f 119/2/3 118/2/3 117/2/3
f 120/2/3 118/2/3 119/2/3
f 121/2/3 118/2/3 120/2/3
f 122/2/3 118/2/3 121/2/3
f 123/2/3 118/2/3 122/2/3
f 124/2/3 118/2/3 123/2/3
f 125/2/3 118/2/3 124/2/3
f 126/2/3 118/2/3 125/2/3
f 127/2/3 119/2/3 117/2/3
f 128/2/3 121/2/3 120/2/3
f 129/2/3 121/2/3 128/2/3
f 130/2/3 123/2/3 122/2/3
f 131/2/3 123/2/3 130/2/3
f 132/2/3 125/2/3 124/2/3
f 133/2/3 125/2/3 132/2/3
f 134/2/3 118/2/3 126/2/3
f 135/2/3 133/2/3 132/2/3
f 135/2/3 134/2/3 133/2/3
f 135/2/3 131/2/3 130/2/3
f 135/2/3 127/2/3 117/2/3
f 135/2/3 132/2/3 131/2/3
f 135/2/3 129/2/3 128/2/3
f 135/2/3 130/2/3 129/2/3
f 135/2/3 128/2/3 127/2/3
f 136/2/3 118/2/3 134/2/3
f 136/2/3 134/2/3 135/2/3
f 139/1/3 138/1/3 137/1/3
f 140/1/3 138/1/3 139/1/3
f 150/1/3 139/1/3 137/1/3
f 151/1/3 139/1/3 150/1/3
f 153/1/3 139/1/3 151/1/3
f 154/3/3 143/3/3 142/3/3
f 155/3/3 143/3/3 154/3/3
f 156/3/3 145/3/3 144/3/3
f 157/3/3 145/3/3 156/3/3
f 158/3/3 147/3/3 146/3/3
f 159/3/3 147/3/3 158/3/3
f 160/3/3 149/3/3 148/3/3
f 161/3/3 149/3/3 160/3/3
f 162/1/3 153/1/3 152/1/3
f 162/1/3 139/1/3 153/1/3
f 163/1/3 141/1/3 140/1/3
f 164/1/3 141/1/3 163/1/3
f 165/1/3 162/1/3 152/1/3
f 165/1/3 163/1/3 162/1/3
f 166/1/3 163/1/3 165/1/3
f 169/4/3 168/4/3 167/4/3
f 170/4/3 168/4/3 169/4/3
f 171/1/4 172/1/4 173/1/4
f 171/1/4 173/1/4 175/1/4
f 173/1/4 174/1/4 175/1/4
f 175/1/4 174/1/4 176/1/4
f 171/1/4 175/1/4 177/1/4
f 177/1/4 175/1/4 178/1/4
f 179/3/4 180/3/4 181/3/4
f 181/3/4 180/3/4 182/3/4
f 187/3/5 184/3/5 183/3/5
f 188/3/5 186/3/5 185/3/5
f 189/3/5 187/3/5 183/3/5
f 189/2/5 188/2/5 187/2/5
f 190/3/5 186/3/5 188/3/5
f 190/2/5 188/2/5 189/2/5
f 191/3/5 189/3/5 183/3/5
f 191/3/5 190/3/5 189/3/5
f 192/3/5 186/3/5 190/3/5
f 192/3/5 190/3/5 191/3/5
f 195/2/5 194/2/5 193/2/5
f 196/2/5 194/2/5 195/2/5
f 199/2/5 198/2/5 197/2/5
f 200/2/5 198/2/5 199/2/5
f 203/2/5 202/2/5 201/2/5
f 204/2/5 202/2/5 203/2/5
f 207/2/5 206/2/5 205/2/5
f 208/2/5 206/2/5 207/2/5
f 211/2/5 210/2/5 209/2/5
f 212/2/5 210/2/5 211/2/5
f 215/2/5 214/2/5 213/2/5
f 216/2/5 214/2/5 215/2/5
f 217/2/6 218/2/6 219/2/6
f 219/2/6 218/2/6 220/2/6
f 221/3/6 222/3/6 225/3/6
f 223/3/6 224/3/6 226/3/6
f 221/3/6 225/3/6 227/3/6
f 225/2/6 226/2/6 228/2/6
f 227/3/6 225/3/6 228/3/6
f 228/2/6 226/2/6 229/2/6
f 229/2/6 226/2/6 230/2/6
f 226/3/6 224/3/6 231/3/6
f 230/2/6 226/2/6 231/2/6
f 231/3/6 224/3/6 232/3/6
f 221/3/6 227/3/6 233/3/6
f 233/3/6 227/3/6 234/3/6
f 232/3/6 224/3/6 235/3/6
f 235/3/6 224/3/6 236/3/6
f 229/2/6 230/2/6 237/2/6
f 237/2/6 230/2/6 238/2/6
f 221/3/6 233/3/6 239/3/6
f 236/3/6 224/3/6 240/3/6
f 221/3/6 239/3/6 241/3/6
f 239/3/6 240/3/6 241/3/6
f 240/3/6 224/3/6 242/3/6
f 241/3/6 240/3/6 242/3/6
f 243/2/6 244/2/6 245/2/6
f 245/2/6 244/2/6 246/2/6
f 247/2/6 248/2/6 249/2/6
f 249/2/6 248/2/6 250/2/6
f 251/2/6 252/2/6 253/2/6
f 253/2/6 252/2/6 254/2/6
f 255/2/6 256/2/6 257/2/6
f 257/2/6 256/2/6 258/2/6
f 259/2/6 260/2/6 261/2/6
f 261/2/6 260/2/6 262/2/6
f 263/2/6 264/2/6 266/2/6
f 266/2/6 264/2/6 267/2/6
f 265/1/6 266/1/6 269/1/6
f 269/1/6 266/1/6 270/1/6
f 267/1/6 268/1/6 271/1/6
f 271/1/6 268/1/6 272/1/6
f 273/1/6 274/1/6 275/1/6
f 275/1/6 274/1/6 276/1/6
